<svg width="180" height="54" viewBox="0 0 180 54" fill="none" xmlns="http://www.w3.org/2000/svg">
<path d="M0.674949 35.521L0.674949 35.8461H1.00002L15.1557 35.8461L0.770167 50.2287L0.540239 50.4586L0.770167 50.6884L3.31177 53.2295L3.5416 53.4593L3.77144 53.2295L18.1575 38.8464L18.1575 53V53.3251H18.4826H21.9791H22.3042V53V32.0252V31.7001L21.9791 31.7001L1.00002 31.7001L0.67495 31.7001L0.67495 32.0252L0.674949 35.521Z" fill="#26CBA3" stroke="#26CBA3" stroke-width="0.650134"/>
<path d="M18.4826 0.674933H18.1575V1V18.1539L1 18.1539H0.674934L0.674934 18.479L0.674933 27.0855L0.674933 27.4106H1H4.49652H4.82159V27.0855V22.2999H21.9791H22.3042V21.9748V4.82086H31.7065V21.9748V22.2999H32.0316L49.1891 22.2999V31.7001L32.0316 31.7001H31.7065V32.0252V49.1791H26.7868H26.4617V49.5042V53V53.3251H26.7868H35.5281H35.8532V53V35.8461L53.0107 35.8461H53.3358V35.521L53.3358 18.479V18.1539H53.0107H35.8532V1V0.674933H35.5281H18.4826Z" fill="#2C49C7" stroke="#2C49C7" stroke-width="0.650134"/>
<path d="M71.7156 20.0912C73.3462 20.0912 74.5487 20.4886 75.3232 21.2833C76.0977 22.0577 76.6072 23.0664 76.8518 24.3094L76.3321 24.0343L76.5767 23.5452C76.8213 23.0766 77.1983 22.5773 77.7079 22.0475C78.2174 21.4973 78.8289 21.0388 79.5422 20.672C80.276 20.2848 81.0912 20.0912 81.988 20.0912C83.4555 20.0912 84.5663 20.4071 85.3204 21.0388C86.0949 21.6705 86.6249 22.5162 86.9102 23.5758C87.1955 24.6151 87.3382 25.7766 87.3382 27.0604V34.8853C87.3382 35.4151 87.165 35.8634 86.8185 36.2302C86.472 36.5766 86.0338 36.7499 85.5039 36.7499C84.9739 36.7499 84.5357 36.5766 84.1892 36.2302C83.8428 35.8634 83.6695 35.4151 83.6695 34.8853V27.0604C83.6695 26.3879 83.588 25.7868 83.4249 25.2569C83.2619 24.7068 82.9663 24.2686 82.5383 23.9426C82.1103 23.6166 81.4989 23.4535 80.704 23.4535C79.9295 23.4535 79.2671 23.6166 78.7168 23.9426C78.1664 24.2686 77.7486 24.7068 77.4633 25.2569C77.1983 25.7868 77.0658 26.3879 77.0658 27.0604V34.8853C77.0658 35.4151 76.8926 35.8634 76.5461 36.2302C76.1996 36.5766 75.7614 36.7499 75.2315 36.7499C74.7016 36.7499 74.2634 36.5766 73.9169 36.2302C73.5704 35.8634 73.3971 35.4151 73.3971 34.8853V27.0604C73.3971 26.3879 73.3156 25.7868 73.1526 25.2569C72.9895 24.7068 72.694 24.2686 72.2659 23.9426C71.8379 23.6166 71.2265 23.4535 70.4316 23.4535C69.6571 23.4535 68.9947 23.6166 68.4444 23.9426C67.8941 24.2686 67.4762 24.7068 67.1909 25.2569C66.9259 25.7868 66.7935 26.3879 66.7935 27.0604V34.8853C66.7935 35.4151 66.6202 35.8634 66.2737 36.2302C65.9272 36.5766 65.489 36.7499 64.9591 36.7499C64.4292 36.7499 63.991 36.5766 63.6445 36.2302C63.298 35.8634 63.1248 35.4151 63.1248 34.8853V22.2615C63.1248 21.7316 63.298 21.2935 63.6445 20.9471C63.991 20.5803 64.4292 20.3969 64.9591 20.3969C65.489 20.3969 65.9272 20.5803 66.2737 20.9471C66.6202 21.2935 66.7935 21.7316 66.7935 22.2615V23.5758L66.3349 23.4841C66.5183 23.1377 66.7731 22.7709 67.0992 22.3837C67.4253 21.9762 67.8227 21.5992 68.2915 21.2528C68.7603 20.9063 69.28 20.6313 69.8507 20.4275C70.4214 20.2033 71.043 20.0912 71.7156 20.0912Z" fill="#000A33"/>
<path d="M98.4017 37.0555C96.6692 37.0555 95.161 36.6989 93.8769 35.9857C92.6133 35.2521 91.6349 34.2638 90.942 33.0208C90.2694 31.7777 89.9331 30.3717 89.9331 28.8026C89.9331 26.9687 90.2999 25.4098 91.0337 24.126C91.7878 22.8218 92.7661 21.8233 93.9686 21.1305C95.1712 20.4377 96.445 20.0912 97.7902 20.0912C98.8297 20.0912 99.808 20.3052 100.725 20.7331C101.663 21.1611 102.488 21.752 103.202 22.506C103.915 23.2396 104.475 24.0954 104.883 25.0735C105.311 26.0517 105.525 27.0909 105.525 28.1913C105.505 28.6804 105.311 29.0777 104.944 29.3834C104.577 29.6891 104.149 29.8419 103.66 29.8419H91.9814L91.0642 26.7853H102.284L101.612 27.3966V26.5713C101.571 25.9803 101.357 25.4505 100.97 24.9818C100.603 24.5132 100.134 24.1464 99.5634 23.8815C99.0131 23.5962 98.422 23.4535 97.7902 23.4535C97.1788 23.4535 96.6081 23.535 96.0781 23.6981C95.5482 23.8611 95.0896 24.1362 94.7024 24.5234C94.3151 24.9105 94.0094 25.4302 93.7852 26.0822C93.561 26.7343 93.4489 27.5596 93.4489 28.5581C93.4489 29.6585 93.6731 30.5959 94.1215 31.3702C94.5903 32.1242 95.1813 32.7049 95.8947 33.1125C96.6284 33.4996 97.403 33.6932 98.2182 33.6932C98.9723 33.6932 99.5736 33.6321 100.022 33.5098C100.47 33.3876 100.827 33.2449 101.092 33.0819C101.377 32.8985 101.632 32.7457 101.856 32.6234C102.223 32.44 102.57 32.3483 102.896 32.3483C103.344 32.3483 103.711 32.5011 103.996 32.8068C104.302 33.1125 104.455 33.4691 104.455 33.8766C104.455 34.4268 104.17 34.9261 103.599 35.3744C103.069 35.8227 102.325 36.22 101.367 36.5665C100.409 36.8925 99.4207 37.0555 98.4017 37.0555Z" fill="#000A33"/>
<path d="M121.51 14.1308C122.04 14.1308 122.478 14.304 122.824 14.6505C123.171 14.9969 123.344 15.4452 123.344 15.9954V34.8853C123.344 35.4151 123.171 35.8634 122.824 36.2302C122.478 36.5766 122.04 36.7499 121.51 36.7499C120.98 36.7499 120.542 36.5766 120.195 36.2302C119.849 35.8634 119.675 35.4151 119.675 34.8853V33.3876L120.348 33.6627C120.348 33.9276 120.205 34.2536 119.92 34.6408C119.635 35.0076 119.247 35.3744 118.758 35.7412C118.269 36.108 117.688 36.4238 117.016 36.6887C116.363 36.9333 115.65 37.0555 114.875 37.0555C113.469 37.0555 112.195 36.6989 111.054 35.9857C109.913 35.2521 109.006 34.2536 108.333 32.9902C107.681 31.7064 107.355 30.2392 107.355 28.5887C107.355 26.9177 107.681 25.4505 108.333 24.1871C109.006 22.9033 109.902 21.9048 111.023 21.1916C112.144 20.458 113.388 20.0912 114.753 20.0912C115.63 20.0912 116.435 20.2237 117.168 20.4886C117.902 20.7535 118.534 21.0897 119.064 21.4973C119.614 21.9048 120.032 22.3226 120.317 22.7505C120.623 23.1581 120.776 23.5045 120.776 23.7898L119.675 24.1871V15.9954C119.675 15.4656 119.849 15.0274 120.195 14.681C120.542 14.3142 120.98 14.1308 121.51 14.1308ZM115.334 33.6932C116.231 33.6932 117.016 33.4691 117.688 33.0208C118.361 32.5725 118.88 31.9611 119.247 31.1868C119.635 30.4125 119.828 29.5464 119.828 28.5887C119.828 27.6105 119.635 26.7343 119.247 25.96C118.88 25.1856 118.361 24.5743 117.688 24.126C117.016 23.6777 116.231 23.4535 115.334 23.4535C114.458 23.4535 113.683 23.6777 113.011 24.126C112.338 24.5743 111.808 25.1856 111.421 25.96C111.054 26.7343 110.87 27.6105 110.87 28.5887C110.87 29.5464 111.054 30.4125 111.421 31.1868C111.808 31.9611 112.338 32.5725 113.011 33.0208C113.683 33.4691 114.458 33.6932 115.334 33.6932Z" fill="#000A33"/>
<path d="M134.562 20.7637C135.948 20.7637 137.171 21.1101 138.231 21.803C139.311 22.4958 140.167 23.4535 140.799 24.6762C141.431 25.8785 141.747 27.2743 141.747 28.8638C141.747 30.4125 141.431 31.8083 140.799 33.0513C140.167 34.2944 139.311 35.2725 138.231 35.9857C137.151 36.6989 135.938 37.0555 134.593 37.0555C133.879 37.0555 133.196 36.9434 132.544 36.7193C131.912 36.4951 131.332 36.1997 130.802 35.8329C130.272 35.4457 129.803 34.9974 129.395 34.488C128.988 33.9785 128.662 33.4283 128.417 32.8374L128.967 32.44V35.894C128.967 36.1589 128.876 36.3831 128.692 36.5665C128.529 36.7295 128.315 36.811 128.05 36.811C127.785 36.811 127.561 36.7295 127.378 36.5665C127.214 36.3831 127.133 36.1589 127.133 35.894V15.0784C127.133 14.8135 127.214 14.5995 127.378 14.4365C127.541 14.2531 127.765 14.1614 128.05 14.1614C128.315 14.1614 128.529 14.2531 128.692 14.4365C128.876 14.5995 128.967 14.8135 128.967 15.0784V25.3181L128.539 25.0735C128.743 24.4418 129.039 23.8713 129.426 23.3618C129.833 22.832 130.302 22.3735 130.832 21.9864C131.362 21.5992 131.943 21.3037 132.575 21.0999C133.207 20.8758 133.869 20.7637 134.562 20.7637ZM134.409 22.4754C133.309 22.4754 132.34 22.7505 131.505 23.3007C130.669 23.8509 130.007 24.6049 129.518 25.5626C129.049 26.5203 128.814 27.6207 128.814 28.8638C128.814 30.0864 129.049 31.197 129.518 32.1955C130.007 33.1736 130.669 33.948 131.505 34.5185C132.34 35.0687 133.309 35.3438 134.409 35.3438C135.489 35.3438 136.437 35.0585 137.252 34.488C138.088 33.9174 138.75 33.143 139.24 32.1649C139.729 31.1664 139.973 30.066 139.973 28.8638C139.973 27.6207 139.729 26.5203 139.24 25.5626C138.75 24.6049 138.088 23.8509 137.252 23.3007C136.437 22.7505 135.489 22.4754 134.409 22.4754Z" fill="#000A33"/>
<path d="M146.835 35.8329C146.835 36.0774 146.744 36.2914 146.56 36.4748C146.377 36.6582 146.163 36.7499 145.918 36.7499C145.653 36.7499 145.429 36.6582 145.245 36.4748C145.082 36.2914 145.001 36.0774 145.001 35.8329V21.7724C145.001 21.5279 145.082 21.3139 145.245 21.1305C145.429 20.9471 145.653 20.8554 145.918 20.8554C146.183 20.8554 146.397 20.9471 146.56 21.1305C146.744 21.3139 146.835 21.5279 146.835 21.7724V35.8329ZM145.918 18.8075C145.49 18.8075 145.164 18.7158 144.94 18.5324C144.736 18.3286 144.634 18.0433 144.634 17.6765V17.3709C144.634 17.0041 144.746 16.729 144.97 16.5456C145.215 16.3418 145.541 16.2399 145.949 16.2399C146.336 16.2399 146.631 16.3418 146.835 16.5456C147.059 16.729 147.172 17.0041 147.172 17.3709V17.6765C147.172 18.0433 147.059 18.3286 146.835 18.5324C146.631 18.7158 146.326 18.8075 145.918 18.8075Z" fill="#000A33"/>
<path d="M152.09 36.7499C151.825 36.7499 151.601 36.6582 151.417 36.4748C151.254 36.2914 151.173 36.0774 151.173 35.8329V15.0478C151.173 14.8033 151.254 14.5893 151.417 14.4059C151.601 14.2225 151.825 14.1308 152.09 14.1308C152.355 14.1308 152.569 14.2225 152.732 14.4059C152.915 14.5893 153.007 14.8033 153.007 15.0478V35.8329C153.007 36.0774 152.915 36.2914 152.732 36.4748C152.569 36.6582 152.355 36.7499 152.09 36.7499ZM162.484 21.0694C162.709 21.0694 162.912 21.1713 163.096 21.375C163.279 21.5584 163.371 21.7622 163.371 21.9864C163.371 22.2513 163.259 22.4856 163.035 22.6894L152.762 31.4313L152.671 29.2611L161.842 21.375C162.026 21.1713 162.24 21.0694 162.484 21.0694ZM162.729 36.7499C162.464 36.7499 162.24 36.6378 162.056 36.4136L155.086 29.0166L156.462 27.7634L163.371 35.1298C163.554 35.3336 163.646 35.568 163.646 35.8329C163.646 36.1182 163.534 36.3423 163.31 36.5053C163.086 36.6683 162.892 36.7499 162.729 36.7499Z" fill="#000A33"/>
<path d="M167.656 36.7499C167.371 36.7499 167.146 36.6582 166.983 36.4748C166.82 36.2914 166.739 36.0774 166.739 35.8329V22.1392C166.739 21.8947 166.82 21.6807 166.983 21.4973C167.167 21.3139 167.391 21.2222 167.656 21.2222C167.921 21.2222 168.135 21.3139 168.298 21.4973C168.481 21.6807 168.573 21.8947 168.573 22.1392V26.7241L168.114 26.8158C168.176 26.1026 168.349 25.3996 168.634 24.7068C168.94 23.9935 169.348 23.3415 169.857 22.7505C170.367 22.1596 170.968 21.6807 171.661 21.3139C172.374 20.9471 173.169 20.7637 174.046 20.7637C174.412 20.7637 174.769 20.8452 175.116 21.0082C175.462 21.1509 175.635 21.3954 175.635 21.7418C175.635 22.0475 175.554 22.2818 175.391 22.4448C175.228 22.6079 175.034 22.6894 174.81 22.6894C174.626 22.6894 174.423 22.6384 174.198 22.5365C173.995 22.4347 173.719 22.3837 173.373 22.3837C172.802 22.3837 172.232 22.5569 171.661 22.9033C171.09 23.2294 170.57 23.6777 170.102 24.2483C169.633 24.8188 169.256 25.4607 168.97 26.1739C168.706 26.8668 168.573 27.5698 168.573 28.283V35.8329C168.573 36.0774 168.481 36.2914 168.298 36.4748C168.114 36.6582 167.9 36.7499 167.656 36.7499Z" fill="#000A33"/>
<path d="M179.664 35.8329C179.664 36.0774 179.572 36.2914 179.389 36.4748C179.205 36.6582 178.991 36.7499 178.747 36.7499C178.482 36.7499 178.257 36.6582 178.074 36.4748C177.911 36.2914 177.829 36.0774 177.829 35.8329V21.7724C177.829 21.5279 177.911 21.3139 178.074 21.1305C178.257 20.9471 178.482 20.8554 178.747 20.8554C179.012 20.8554 179.226 20.9471 179.389 21.1305C179.572 21.3139 179.664 21.5279 179.664 21.7724V35.8329ZM178.747 18.8075C178.319 18.8075 177.992 18.7158 177.768 18.5324C177.564 18.3286 177.462 18.0433 177.462 17.6765V17.3709C177.462 17.0041 177.575 16.729 177.799 16.5456C178.043 16.3418 178.369 16.2399 178.777 16.2399C179.164 16.2399 179.46 16.3418 179.664 16.5456C179.888 16.729 180 17.0041 180 17.3709V17.6765C180 18.0433 179.888 18.3286 179.664 18.5324C179.46 18.7158 179.154 18.8075 178.747 18.8075Z" fill="#000A33"/>
</svg>
