<svg width="108" height="140" viewBox="0 0 108 140" fill="none" xmlns="http://www.w3.org/2000/svg">
<path d="M91.4229 140H11.8295C11.0471 140.009 10.2715 139.854 9.55284 139.545C8.83419 139.235 8.18852 138.778 7.65766 138.204C7.12679 137.629 6.72256 136.949 6.47113 136.208C6.21971 135.467 6.12671 134.682 6.19814 133.903L15.9464 6.09741C16.0982 4.45079 16.8523 2.91811 18.0642 1.79305C19.2761 0.667995 20.8605 0.0297007 22.5138 0.000475104H102.107C102.89 -0.00973505 103.666 0.144723 104.385 0.45383C105.104 0.762936 105.75 1.21978 106.281 1.79471C106.812 2.36964 107.216 3.04981 107.467 3.79107C107.718 4.53232 107.811 5.3181 107.739 6.09741L97.9903 133.903C97.8374 135.549 97.083 137.081 95.8714 138.206C94.6597 139.331 93.0759 139.969 91.4229 140Z" fill="#7C8199"/>
<path d="M90.2417 140H10.6434C9.86108 140.009 9.08546 139.854 8.36681 139.545C7.64815 139.235 7.00249 138.778 6.47162 138.204C5.94075 137.629 5.53652 136.949 5.2851 136.208C5.03368 135.467 4.94067 134.682 5.01211 133.903L14.7652 6.09741C14.9172 4.44996 15.672 2.91661 16.8849 1.79144C18.0978 0.666268 19.6834 0.0285059 21.3376 0.000475104H100.931C101.714 -0.00973505 102.49 0.144723 103.209 0.45383C103.928 0.762936 104.574 1.21978 105.105 1.79471C105.636 2.36964 106.04 3.04981 106.291 3.79107C106.542 4.53232 106.635 5.3181 106.562 6.09741L96.8141 133.903C96.6622 135.55 95.9074 137.083 94.6945 138.209C93.4815 139.334 91.8959 139.972 90.2417 140Z" fill="#7C8199"/>
<path opacity="0.7" d="M90.2417 140H10.6434C9.86108 140.009 9.08546 139.854 8.36681 139.545C7.64815 139.235 7.00249 138.778 6.47162 138.204C5.94075 137.629 5.53652 136.949 5.2851 136.208C5.03368 135.467 4.94067 134.682 5.01211 133.903L14.7652 6.09741C14.9172 4.44996 15.672 2.91661 16.8849 1.79144C18.0978 0.666268 19.6834 0.0285059 21.3376 0.000475104H100.931C101.714 -0.00973505 102.49 0.144723 103.209 0.45383C103.928 0.762936 104.574 1.21978 105.105 1.79471C105.636 2.36964 106.04 3.04981 106.291 3.79107C106.542 4.53232 106.635 5.3181 106.562 6.09741L96.8141 133.903C96.6622 135.55 95.9074 137.083 94.6945 138.209C93.4815 139.334 91.8959 139.972 90.2417 140Z" fill="white"/>
<path opacity="0.2" d="M89.8346 24.9422H32.8744C32.5649 24.9463 32.2581 24.8852 31.9738 24.7629C31.6895 24.6407 31.4341 24.46 31.2243 24.2325C31.0144 24.0051 30.8548 23.7361 30.7557 23.4429C30.6566 23.1497 30.6204 22.8389 30.6493 22.5308C30.7106 21.8814 31.0087 21.2771 31.4868 20.8333C31.965 20.3895 32.5897 20.1372 33.242 20.1244H90.2022C90.5114 20.1196 90.8182 20.18 91.1024 20.3017C91.3867 20.4234 91.6422 20.6037 91.8521 20.8307C92.0621 21.0578 92.2218 21.3266 92.3209 21.6195C92.42 21.9124 92.4563 22.223 92.4273 22.5308C92.3693 23.182 92.0723 23.7887 91.5936 24.2339C91.1149 24.6791 90.4883 24.9314 89.8346 24.9422Z" fill="black"/>
<path opacity="0.3" d="M65.5351 2.48526H56.3358C56.2596 2.48626 56.1841 2.47125 56.1141 2.4412C56.0441 2.41115 55.9812 2.36674 55.9294 2.31083C55.8777 2.25493 55.8383 2.18878 55.8137 2.11667C55.7891 2.04456 55.78 1.9681 55.7869 1.89223C55.8024 1.73265 55.8757 1.58425 55.9931 1.47501C56.1105 1.36577 56.2637 1.30323 56.424 1.2992H65.6282C65.704 1.29889 65.779 1.31441 65.8484 1.34476C65.9178 1.37511 65.9801 1.41963 66.0313 1.47546C66.0825 1.53129 66.1215 1.59719 66.1458 1.66896C66.1701 1.74073 66.1791 1.81678 66.1723 1.89223C66.1589 2.05262 66.0861 2.20226 65.9683 2.31192C65.8505 2.42158 65.6961 2.48338 65.5351 2.48526Z" fill="#7C8199"/>
<path d="M32.6098 22.5307C32.6913 21.6783 32.592 20.8183 32.3184 20.0068C32.0448 19.1954 31.6031 18.4508 31.0222 17.8218C30.4412 17.1927 29.734 16.6933 28.9469 16.3561C28.1597 16.019 27.3103 15.8517 26.4541 15.8653H84.2868C85.143 15.8517 85.9924 16.019 86.7795 16.3561C87.5667 16.6933 88.2738 17.1927 88.8548 17.8218C89.4358 18.4508 89.8775 19.1954 90.1511 20.0068C90.4247 20.8183 90.524 21.6783 90.4425 22.5307H32.6098Z" fill="#F0F0F0"/>
<path d="M26.4691 15.8651C24.6603 15.893 22.9259 16.5894 21.6001 17.8201C20.2743 19.0509 19.4511 20.7289 19.289 22.5306L13.3636 100.198C13.2028 101.999 12.3805 103.677 11.0556 104.908C9.73058 106.139 7.99673 106.835 6.18848 106.863H64.0211C65.8299 106.835 67.5644 106.139 68.8901 104.908C70.2159 103.678 71.0392 102 71.2012 100.198L77.1266 22.5306C77.2875 20.7293 78.1097 19.0514 79.4347 17.8205C80.7597 16.5897 82.4935 15.8931 84.3018 15.8651H26.4691Z" fill="white"/>
<path d="M57.8603 100.198C57.7788 101.05 57.8781 101.91 58.1517 102.722C58.4253 103.533 58.867 104.278 59.4479 104.907C60.0289 105.536 60.7361 106.035 61.5232 106.373C62.3104 106.71 63.1598 106.877 64.016 106.863H6.18335C5.32715 106.877 4.47773 106.71 3.69058 106.373C2.90343 106.035 2.19627 105.536 1.6153 104.907C1.03433 104.278 0.592613 103.533 0.319029 102.722C0.045445 101.91 -0.0538542 101.05 0.027609 100.198H57.8603Z" fill="#F0F0F0"/>
<path d="M24.0087 98.6639C24.2292 95.8262 23.3372 93.5325 20.5044 93.5325H65.0355C67.8684 93.5325 70.0003 96.1251 68.5447 98.6639H24.0087Z" fill="#E0E0E0"/>
<path d="M57.8605 100.198C58.0179 98.3943 58.8387 96.7128 60.164 95.4789C61.4893 94.245 63.2251 93.5464 65.0356 93.5181H7.203C5.39475 93.546 3.6609 94.2426 2.33593 95.4735C1.01095 96.7043 0.188719 98.3822 0.027832 100.184L57.8605 100.198Z" fill="#F0F0F0"/>
<path d="M85.2035 119.454H18.8185C18.5938 119.457 18.371 119.413 18.1646 119.324C17.9581 119.236 17.7726 119.105 17.6201 118.94C17.4676 118.775 17.3515 118.579 17.2793 118.367C17.2071 118.154 17.1805 117.928 17.2011 117.705C17.2445 117.232 17.4604 116.793 17.8077 116.47C18.1549 116.147 18.6091 115.964 19.0831 115.955H85.473C85.6973 115.953 85.9195 115.997 86.1254 116.086C86.3313 116.175 86.5162 116.306 86.6681 116.471C86.8201 116.636 86.9358 116.831 87.0077 117.044C87.0796 117.256 87.1061 117.481 87.0855 117.705C87.0421 118.177 86.8262 118.616 86.4789 118.939C86.1317 119.262 85.6775 119.445 85.2035 119.454Z" fill="white"/>
<path d="M51.6801 127.864H18.1764C17.9515 127.868 17.7283 127.825 17.5215 127.736C17.3147 127.648 17.1289 127.517 16.9762 127.352C16.8236 127.186 16.7075 126.991 16.6356 126.778C16.5637 126.565 16.5376 126.339 16.559 126.115C16.6024 125.643 16.8183 125.203 17.1656 124.88C17.5128 124.557 17.967 124.374 18.441 124.365H51.9448C52.1694 124.362 52.3922 124.406 52.5987 124.495C52.8051 124.584 52.9906 124.715 53.1431 124.88C53.2956 125.045 53.4117 125.24 53.4839 125.453C53.5561 125.666 53.5827 125.891 53.5621 126.115C53.5188 126.587 53.3028 127.027 52.9555 127.349C52.6083 127.672 52.1542 127.856 51.6801 127.864Z" fill="white"/>
<path d="M74.8768 127.864H61.3058C61.0809 127.868 60.8577 127.824 60.6509 127.736C60.4441 127.648 60.2583 127.517 60.1056 127.351C59.953 127.186 59.8369 126.991 59.765 126.778C59.6931 126.565 59.667 126.339 59.6884 126.115C59.7318 125.643 59.9477 125.203 60.295 124.88C60.6422 124.557 61.0964 124.374 61.5704 124.365H75.1415C75.3659 124.363 75.5884 124.408 75.7945 124.497C76.0005 124.585 76.1857 124.717 76.3381 124.881C76.4904 125.046 76.6066 125.241 76.679 125.453C76.7515 125.666 76.7787 125.891 76.7588 126.115C76.7155 126.587 76.4995 127.026 76.1523 127.349C75.805 127.672 75.3509 127.856 74.8768 127.864Z" fill="white"/>
<path d="M88.4481 94.5862L84.983 95.1302C84.8986 94.8092 84.7646 94.5033 84.586 94.2235C84.4091 94.0103 84.1907 93.8352 83.944 93.7089L83.7381 96.3702C85.5679 96.8701 86.7735 97.3962 87.3551 97.9484C87.733 98.3073 88.0222 98.7492 88.2 99.2391C88.3778 99.7291 88.4392 100.254 88.3794 100.771C88.3362 101.424 88.1343 102.057 87.7913 102.614C87.4687 103.155 87.0462 103.629 86.5464 104.011C86.0849 104.371 85.5641 104.648 85.0075 104.829C84.3695 105.013 83.7106 105.113 83.0471 105.128L82.9148 106.863H81.6209L81.7532 105.128C81.0165 105.08 80.2895 104.934 79.5918 104.692C79.0691 104.497 78.592 104.197 78.1901 103.81C77.831 103.466 77.543 103.055 77.3422 102.599C77.1354 102.1 77.0081 101.57 76.9648 101.031L80.7142 100.6C80.7354 101.058 80.8523 101.507 81.0572 101.918C81.2759 102.233 81.578 102.481 81.9296 102.634L82.1747 99.3844C81.2954 99.1588 80.4364 98.8604 79.6065 98.4924C79.0837 98.2136 78.6492 97.7943 78.3518 97.2818C78.001 96.6652 77.8567 95.9524 77.9402 95.2479C77.973 94.7251 78.1096 94.2141 78.3418 93.7446C78.574 93.2751 78.8973 92.8565 79.2929 92.5131C80.2834 91.7143 81.5198 91.2831 82.7922 91.2927L82.8608 90.3811H84.2037L84.1351 91.2927C85.2381 91.2908 86.3142 91.6335 87.213 92.2729C87.9026 92.8599 88.344 93.6866 88.4481 94.5862ZM82.6011 93.6648C82.2789 93.751 81.9849 93.92 81.7483 94.1549C81.5795 94.3415 81.4792 94.5801 81.464 94.8313C81.4382 95.0806 81.5025 95.331 81.6454 95.537C81.8491 95.7736 82.1187 95.9442 82.4197 96.0271L82.6011 93.6648ZM83.2529 102.727C83.6972 102.653 84.1108 102.452 84.4439 102.149C84.691 101.911 84.8442 101.593 84.8752 101.252C84.8999 100.964 84.8121 100.677 84.6301 100.453C84.3148 100.127 83.9166 99.893 83.4784 99.7765L83.2529 102.727Z" fill="white"/>
<path d="M23.1607 37.4839H24.8123L24.4056 42.8065H22.7588L23.1607 37.4839Z" fill="#7C8199"/>
<path d="M26.0035 37.4839H27.5375L29.3166 40.4245L29.542 37.4839H31.0908L30.684 42.8065H29.1353L27.366 39.8658L27.1405 42.8065H25.5967L26.0035 37.4839Z" fill="#7C8199"/>
<path d="M31.6592 37.4839H33.3795L34.2862 41.3165L35.7565 37.4839H37.4228L35.0605 42.8065H33.2814L31.6592 37.4839Z" fill="#7C8199"/>
<path d="M37.2999 40.1501C37.3227 39.3856 37.6386 38.6591 38.1821 38.1211C38.7548 37.6194 39.4997 37.3594 40.2602 37.3957C40.6239 37.3678 40.9895 37.4166 41.3331 37.539C41.6767 37.6614 41.9908 37.8547 42.2549 38.1064C42.4857 38.3804 42.6553 38.7006 42.7525 39.0454C42.8497 39.3902 42.8722 39.7518 42.8185 40.106C42.7977 40.6427 42.6499 41.1667 42.3873 41.6351C42.1519 42.0294 41.8128 42.3515 41.407 42.5663C40.9407 42.7999 40.4238 42.9144 39.9024 42.8996C39.3965 42.9189 38.893 42.8199 38.4321 42.6105C38.0465 42.4116 37.7353 42.0936 37.545 41.7038C37.3238 41.2177 37.239 40.6806 37.2999 40.1501ZM38.9467 40.1501C38.8751 40.5501 38.9499 40.9624 39.1574 41.3117C39.2514 41.4287 39.3722 41.5214 39.5095 41.5819C39.6469 41.6425 39.7967 41.6692 39.9465 41.6597C40.1035 41.667 40.2602 41.6402 40.4058 41.5809C40.5514 41.5217 40.6823 41.4315 40.7895 41.3166C41.049 40.9577 41.1849 40.5243 41.1767 40.0815C41.243 39.6993 41.1643 39.3061 40.9561 38.9788C40.8606 38.8626 40.7387 38.7708 40.6007 38.7112C40.4626 38.6515 40.3123 38.6256 40.1622 38.6357C40.0069 38.6317 39.8525 38.6611 39.7096 38.722C39.5667 38.7829 39.4386 38.8738 39.3339 38.9886C39.0799 39.3242 38.9438 39.7342 38.9467 40.155V40.1501Z" fill="#7C8199"/>
<path d="M43.9703 37.4839H45.617L45.2151 42.8065H43.5635L43.9703 37.4839Z" fill="#7C8199"/>
<path d="M50.1018 40.6304L51.5085 41.0666C51.3999 41.4356 51.2182 41.779 50.9742 42.0763C50.7551 42.3438 50.4742 42.5541 50.1558 42.6889C49.7759 42.8408 49.3688 42.9125 48.9599 42.8996C48.4813 42.9173 48.0046 42.8303 47.5631 42.6448C47.18 42.4534 46.8702 42.1418 46.6809 41.7577C46.4304 41.2562 46.3348 40.6914 46.4064 40.1354C46.4204 39.3724 46.7275 38.6441 47.2641 38.1015C47.8254 37.6088 48.5572 37.3555 49.303 37.3957C49.8497 37.3597 50.3933 37.5024 50.8517 37.8025C51.2424 38.1161 51.5112 38.5565 51.6114 39.0474L50.141 39.3709C50.1165 39.2468 50.0718 39.1276 50.0087 39.018C49.9321 38.8951 49.8237 38.7952 49.695 38.7288C49.5587 38.6587 49.4072 38.6234 49.254 38.6259C49.0794 38.6205 48.9063 38.6589 48.7505 38.7377C48.5947 38.8164 48.4611 38.933 48.362 39.0768C48.1655 39.3897 48.0602 39.7513 48.0581 40.1207C47.9823 40.5343 48.0443 40.9613 48.2345 41.3362C48.3204 41.4462 48.4317 41.5336 48.559 41.5908C48.6863 41.6481 48.8255 41.6734 48.9648 41.6646C49.0989 41.6732 49.2334 41.6542 49.3599 41.6087C49.4864 41.5631 49.6021 41.4921 49.7 41.3999C49.8934 41.1792 50.0312 40.9153 50.1018 40.6304Z" fill="#7C8199"/>
<path d="M52.5767 37.4839H56.9877L56.9044 38.6209H54.1451L54.0814 39.4688H56.625L56.5417 40.552H53.9833L53.9 41.6008H56.7426L56.6495 42.8065H52.1602L52.5767 37.4839Z" fill="#7C8199"/>
<path d="M61.987 24.942H71.9215L71.4706 30.8674H61.5361L61.987 24.942Z" fill="#F0F0F0"/>
<path d="M19.8516 50.8536C19.9269 50.0855 20.5727 49.5 21.3444 49.5H70.8248C71.7028 49.5 72.3931 50.2508 72.3195 51.1257L69.6293 83.1257C69.5639 83.9026 68.9142 84.5 68.1345 84.5H18.2058C17.3195 84.5 16.6264 83.7356 16.7129 82.8536L19.8516 50.8536Z" fill="#2C49C7" fill-opacity="0.8" stroke="#2C49C7"/>
<path d="M69.9712 53H22.1711L21.8574 57.063H69.6625L69.9712 53Z" fill="white"/>
<path d="M69.3541 61.121H21.549L21.2402 65.1791H69.0453L69.3541 61.121Z" fill="white"/>
<path d="M68.731 69.2372H20.9308L20.6221 73.3002H68.4222L68.731 69.2372Z" fill="white"/>
<path d="M68.1138 77.3583H20.3088L20 81.4164H67.8051L68.1138 77.3583Z" fill="white"/>
</svg>
