<svg width="500" height="500" viewBox="0 0 500 500" fill="none" xmlns="http://www.w3.org/2000/svg">
<path d="M250 427.56C357.082 427.56 443.89 422.492 443.89 416.24C443.89 409.988 357.082 404.92 250 404.92C142.917 404.92 56.11 409.988 56.11 416.24C56.11 422.492 142.917 427.56 250 427.56Z" fill="#F5F5F5"/>
<path d="M334.33 193.89H211.34C194.031 193.89 180 207.921 180 225.23V384.9C180 402.209 194.031 416.24 211.34 416.24H334.33C351.639 416.24 365.67 402.209 365.67 384.9V225.23C365.67 207.921 351.639 193.89 334.33 193.89Z" fill="#2C49C7"/>
<path d="M331.22 179.67H214.44V214.67H331.22V179.67Z" fill="#2C49C7"/>
<path opacity="0.3" d="M331.22 185L214.44 188.45V179.67H331.22V185Z" fill="#263238"/>
<path d="M335.86 144.84H209.81C208.258 144.84 207 146.098 207 147.65V178.97C207 180.522 208.258 181.78 209.81 181.78H335.86C337.412 181.78 338.67 180.522 338.67 178.97V147.65C338.67 146.098 337.412 144.84 335.86 144.84Z" fill="#2C49C7"/>
<path opacity="0.6" d="M335.86 144.84H209.81C208.258 144.84 207 146.098 207 147.65V178.97C207 180.522 208.258 181.78 209.81 181.78H335.86C337.412 181.78 338.67 180.522 338.67 178.97V147.65C338.67 146.098 337.412 144.84 335.86 144.84Z" fill="white"/>
<path opacity="0.9" d="M247.5 244.56H365.67V366.11H247.5C245.376 366.11 243.274 365.692 241.312 364.879C239.35 364.066 237.568 362.875 236.066 361.374C234.565 359.872 233.373 358.09 232.561 356.128C231.748 354.166 231.33 352.063 231.33 349.94V260.72C231.333 256.433 233.037 252.323 236.07 249.292C239.102 246.262 243.213 244.56 247.5 244.56Z" fill="white"/>
<path opacity="0.9" d="M193.5 366.11H180V244.56H193.5C197.789 244.56 201.901 246.264 204.934 249.296C207.966 252.329 209.67 256.441 209.67 260.73V349.95C209.667 354.237 207.963 358.347 204.93 361.377C201.898 364.408 197.787 366.11 193.5 366.11Z" fill="white"/>
<path d="M74.44 274.44L70.44 275.14C66.78 277.67 70.3 283 70.3 283L71.17 286.38C71.2859 286.916 71.602 287.387 72.0537 287.697C72.5053 288.008 73.0584 288.134 73.6 288.05L76.38 287.59C77.0129 287.45 77.5701 287.078 77.9407 286.546C78.3113 286.014 78.4681 285.362 78.38 284.72L78.02 281.65C77.9176 280.779 77.6386 279.939 77.2 279.18L74.44 274.44Z" fill="#FFC3BD"/>
<path d="M94.18 223L90.33 229.88L86.5 236.8L82.81 243.74L81.06 247.2L80.22 248.91L80.01 249.34L79.91 249.55C79.91 249.65 79.91 249.55 79.91 249.61H79.85H79.75C79.75 249.61 79.75 249.61 79.75 249.71V254.84C79.75 257.58 79.75 260.32 79.75 263.06L79.59 271.27C79.49 274.01 79.42 276.75 79.27 279.49L66.75 280.09C66.28 277.42 65.89 274.75 65.48 272.09L64.37 264.09C64.03 261.42 63.68 258.75 63.37 256.09L62.91 252.09L62.79 251.09C62.5917 249.112 62.7201 247.116 63.17 245.18C63.3297 244.534 63.5233 243.896 63.75 243.27L64.18 242.09L64.94 240.09C65.46 238.76 66 237.44 66.54 236.09C67.63 233.48 68.76 230.92 69.95 228.4C72.3 223.32 74.73 218.4 77.46 213.48L94.18 223Z" fill="#2C49C7"/>
<g opacity="0.2">
<path opacity="0.2" d="M94.18 223L90.33 229.88L86.5 236.8L82.81 243.74L81.06 247.2L80.22 248.91L80.01 249.34L79.91 249.55C79.91 249.65 79.91 249.55 79.91 249.61H79.85H79.75C79.75 249.61 79.75 249.61 79.75 249.71V254.84C79.75 257.58 79.75 260.32 79.75 263.06L79.59 271.27C79.49 274.01 79.42 276.75 79.27 279.49L66.75 280.09C66.28 277.42 65.89 274.75 65.48 272.09L64.37 264.09C64.03 261.42 63.68 258.75 63.37 256.09L62.91 252.09L62.79 251.09C62.5917 249.112 62.7201 247.116 63.17 245.18C63.3297 244.534 63.5233 243.896 63.75 243.27L64.18 242.09L64.94 240.09C65.46 238.76 66 237.44 66.54 236.09C67.63 233.48 68.76 230.92 69.95 228.4C72.3 223.32 74.73 218.4 77.46 213.48L94.18 223Z" fill="white"/>
</g>
<path d="M158.63 204.33C160.79 186.91 162.63 174.57 173.14 174.57C180.97 174.57 188.98 190.17 187.3 207.65C185.69 224.37 176.01 236.83 165.93 237.8L159.78 409.32C159.662 411.14 158.863 412.848 157.541 414.105C156.22 415.361 154.473 416.074 152.65 416.1H148.5C147.634 416.122 146.773 415.956 145.977 415.613C145.181 415.27 144.468 414.759 143.888 414.115C143.309 413.471 142.876 412.708 142.619 411.881C142.362 411.053 142.287 410.179 142.4 409.32L160.19 234.44C156.07 229.07 157.09 216.8 158.63 204.33Z" fill="#2C49C7"/>
<path opacity="0.7" d="M158.63 204.33C160.79 186.91 162.63 174.57 173.14 174.57C180.97 174.57 188.98 190.17 187.3 207.65C185.69 224.37 176.01 236.83 165.93 237.8L159.78 409.32C159.662 411.14 158.863 412.848 157.541 414.105C156.22 415.361 154.473 416.074 152.65 416.1H148.5C147.634 416.122 146.773 415.956 145.977 415.613C145.181 415.27 144.468 414.759 143.888 414.115C143.309 413.471 142.876 412.708 142.619 411.881C142.362 411.053 142.287 410.179 142.4 409.32L160.19 234.44C156.07 229.07 157.09 216.8 158.63 204.33Z" fill="white"/>
<path d="M133.27 412.64C126.27 412.1 122.57 407.31 122.74 402.23C122.84 399.43 113.88 399.18 113.88 399.18C115.88 407.86 114.14 409.1 113.7 411.34C113.26 413.58 113.55 416.06 115.4 416.11C117.62 416.16 118.63 415.74 121.4 415.84C124.63 415.97 126.8 416.1 132.53 416.11C134.81 416.11 136.39 412.88 133.27 412.64Z" fill="#2C49C7"/>
<path d="M81.55 412.83C77.01 411.29 76.78 406.59 77.38 401.75C77.74 398.89 68.83 399.44 68.83 399.44C68.18 406.35 66.92 406.62 65.72 408.72C64.52 410.82 64.46 413.11 66.19 413.72C68.26 414.48 69.41 414.27 72.1 414.72C75.26 415.28 78.1 416.05 81.95 416.05C84.24 416.11 84.46 413.82 81.55 412.83Z" fill="#2C49C7"/>
<path d="M126.54 260.9C126.54 260.9 130.87 296.21 126.87 326.9C127.08 352.82 123.37 403.46 123.37 403.46C120.315 404.184 117.13 404.153 114.09 403.37C114.09 403.37 100.32 368.1 103.87 326.46C90.8 284.72 91.73 262.22 91.73 262.22L126.54 260.9Z" fill="#263238"/>
<path d="M112.78 261.4C112.78 261.4 105.67 312.06 97.88 336.2C89.69 361.55 78 401 77.68 402.87C74.05 403.21 70.68 403.14 67.97 401.97C67.97 401.97 63.72 357.57 74.19 330.05C76.83 272.59 82.99 262.48 82.99 262.48L112.78 261.4Z" fill="#263238"/>
<path d="M93.27 192.76C94.67 197.63 96.15 205.6 94.37 209.93C94.37 209.93 100.87 210.02 110.37 217.07C114.5 210.51 110.17 209.41 110.17 209.41C106.28 208.65 105.5 203.98 105.37 200.33L93.27 192.76Z" fill="#FFC3BD"/>
<path d="M125 221.33C125 215.4 120.89 211.22 113.33 209.87C106.33 208.62 96.6101 208.44 90.1901 210.4C83.7701 212.36 81.8901 215.96 83.1001 220.86C88.3301 242.01 82.1 255.86 83.02 262.48C99.0201 264.01 123.11 263.64 126.57 260.9C128.89 257.55 125.5 239.4 124.2 236.76C130.44 232.09 125 224.64 125 221.33Z" fill="#2C49C7"/>
<path d="M110.8 183.65C110.95 184.31 111.41 184.76 111.8 184.65C112.19 184.54 112.46 183.95 112.32 183.3C112.18 182.65 111.72 182.19 111.32 182.3C110.92 182.41 110.66 183 110.8 183.65Z" fill="#263238"/>
<path d="M111.14 182.38L112.61 181.59C112.61 181.59 112.07 183 111.14 182.38Z" fill="#263238"/>
<path d="M111.32 184.92C112.219 186.286 113.302 187.521 114.54 188.59C114.259 188.9 113.914 189.144 113.529 189.307C113.144 189.469 112.728 189.545 112.31 189.53L111.32 184.92Z" fill="#ED847E"/>
<path d="M111.2 189.42C109.09 189.42 107.36 186.49 107.34 182.88C107.282 181.287 107.626 179.705 108.34 178.28C108.577 177.733 108.956 177.259 109.438 176.908C109.92 176.556 110.487 176.339 111.08 176.28C113.18 176.28 114.91 179.21 114.94 182.82C114.981 184.415 114.616 185.994 113.88 187.41C113.645 187.959 113.267 188.434 112.785 188.786C112.303 189.138 111.734 189.354 111.14 189.41L111.2 189.42ZM111.2 176.79C110.695 176.848 110.214 177.039 109.808 177.345C109.402 177.651 109.085 178.06 108.89 178.53C108.194 179.872 107.85 181.369 107.89 182.88C107.89 186.21 109.42 188.88 111.25 188.88C111.754 188.819 112.234 188.627 112.639 188.321C113.045 188.015 113.363 187.608 113.56 187.14C114.256 185.798 114.6 184.301 114.56 182.79C114.49 179.5 113 176.79 111.15 176.79H111.2Z" fill="#263238"/>
<path d="M111.5 179.63C111.561 179.55 111.589 179.45 111.58 179.35C111.574 179.299 111.558 179.249 111.532 179.204C111.506 179.159 111.472 179.12 111.431 179.088C111.39 179.056 111.343 179.033 111.293 179.02C111.243 179.006 111.191 179.003 111.14 179.01C110.522 179.071 109.927 179.279 109.405 179.616C108.883 179.954 108.449 180.411 108.14 180.95C108.11 181.041 108.115 181.14 108.152 181.229C108.19 181.317 108.258 181.389 108.344 181.432C108.43 181.474 108.528 181.484 108.621 181.46C108.714 181.436 108.796 181.379 108.85 181.3C109.097 180.874 109.443 180.514 109.859 180.251C110.276 179.988 110.749 179.83 111.24 179.79C111.344 179.772 111.437 179.715 111.5 179.63Z" fill="#263238"/>
<path d="M89.17 187.17C91.37 195.09 92.1701 198.49 97.0001 201.75C104.31 206.66 113.35 202.24 113.51 193.84C113.65 186.27 110.02 174.59 101.63 173.06C93.24 171.53 87 179.26 89.17 187.17Z" fill="#FFC3BD"/>
<path d="M77.52 213C81.89 207.15 101.8 206.61 116.72 208.93C131.64 211.25 130.31 226.03 130.63 236.15C130.95 246.27 134.49 317.51 129.95 344.33C109.3 347.83 76.6 345.83 67.12 342.67C69.12 333 76.49 259.12 76.6 240.01C76.65 230.67 72.91 219.17 77.52 213Z" fill="#2C49C7"/>
<path opacity="0.3" d="M77.52 213C81.89 207.15 101.8 206.61 116.72 208.93C131.64 211.25 130.31 226.03 130.63 236.15C130.95 246.27 134.49 317.51 129.95 344.33C109.3 347.83 76.6 345.83 67.12 342.67C69.12 333 76.49 259.12 76.6 240.01C76.65 230.67 72.91 219.17 77.52 213Z" fill="white"/>
<path opacity="0.5" d="M131.05 246.93C127.62 243.69 124.61 240.51 123.5 238.43C119.5 230.98 126.59 251.91 131.61 262.58C131.42 256.63 131.22 251.29 131.05 246.93Z" fill="#2C49C7"/>
<path d="M155.14 244.75L154.62 248.75C155.93 253 162.07 251.24 162.07 251.24L165.56 251.43C166.106 251.482 166.651 251.324 167.084 250.988C167.518 250.651 167.806 250.162 167.89 249.62L168.28 246.83C168.34 246.184 168.154 245.539 167.759 245.023C167.364 244.508 166.79 244.161 166.15 244.05L163.15 243.47C162.29 243.285 161.4 243.285 160.54 243.47L155.14 244.75Z" fill="#FFC3BD"/>
<path d="M154.05 245.21C155.75 242.21 159.55 242.37 162.44 241.77C162.93 241.66 163.84 242.62 163.3 243.21C162.967 243.62 162.554 243.958 162.087 244.204C161.619 244.45 161.107 244.598 160.58 244.64C160.58 245.73 159.24 248.57 155.51 248.24C154.642 247.463 154.117 246.373 154.05 245.21Z" fill="#FFC3BD"/>
<path d="M127.46 216L128.88 218.84L130.41 221.77C131.41 223.72 132.47 225.66 133.55 227.57C134.63 229.48 135.74 231.33 136.86 233.16C137.42 234.08 138 234.96 138.57 235.84C138.86 236.29 139.15 236.71 139.45 237.14L139.88 237.78L140.1 238.1L140.17 238.21C140.503 238.803 141 239.289 141.6 239.61C142.299 239.871 143.023 240.062 143.76 240.18C144.76 240.37 145.76 240.53 146.76 240.67C148.82 240.97 150.98 241.17 153.16 241.34C154.25 241.41 155.35 241.5 156.45 241.56L159.68 241.71L161.05 254.17C159.71 254.47 158.56 254.69 157.31 254.9C156.06 255.11 154.86 255.31 153.62 255.46C151.15 255.78 148.62 255.99 146.04 256.07C144.75 256.07 143.43 256.07 142.04 256.07C141.37 256.07 140.67 256 139.97 255.94C139.075 255.873 138.185 255.739 137.31 255.54C133.374 254.646 129.801 252.582 127.06 249.62L126.24 248.69L125.61 247.96C125.18 247.47 124.75 246.96 124.35 246.48C123.52 245.48 122.75 244.48 121.98 243.48C120.45 241.48 118.98 239.48 117.65 237.37C116.32 235.26 114.95 233.23 113.65 231.11C113.04 230.05 112.42 228.98 111.82 227.91C111.22 226.84 110.67 225.78 110.04 224.53L127.46 216Z" fill="#2C49C7"/>
<g opacity="0.3">
<path opacity="0.3" d="M127.46 216L128.88 218.84L130.41 221.77C131.41 223.72 132.47 225.66 133.55 227.57C134.63 229.48 135.74 231.33 136.86 233.16C137.42 234.08 138 234.96 138.57 235.84C138.86 236.29 139.15 236.71 139.45 237.14L139.88 237.78L140.1 238.1L140.17 238.21C140.503 238.803 141 239.289 141.6 239.61C142.299 239.871 143.023 240.062 143.76 240.18C144.76 240.37 145.76 240.53 146.76 240.67C148.82 240.97 150.98 241.17 153.16 241.34C154.25 241.41 155.35 241.5 156.45 241.56L159.68 241.71L161.05 254.17C159.71 254.47 158.56 254.69 157.31 254.9C156.06 255.11 154.86 255.31 153.62 255.46C151.15 255.78 148.62 255.99 146.04 256.07C144.75 256.07 143.43 256.07 142.04 256.07C141.37 256.07 140.67 256 139.97 255.94C139.075 255.873 138.185 255.739 137.31 255.54C133.374 254.646 129.801 252.582 127.06 249.62L126.24 248.69L125.61 247.96C125.18 247.47 124.75 246.96 124.35 246.48C123.52 245.48 122.75 244.48 121.98 243.48C120.45 241.48 118.98 239.48 117.65 237.37C116.32 235.26 114.95 233.23 113.65 231.11C113.04 230.05 112.42 228.98 111.82 227.91C111.22 226.84 110.67 225.78 110.04 224.53L127.46 216Z" fill="white"/>
</g>
<path opacity="0.5" d="M101.38 261.25C101.38 261.25 87.53 260.31 83.49 258.36C88.36 261.6 95 262 101.38 261.25Z" fill="#2C49C7"/>
<path opacity="0.5" d="M99.8201 262.56C99.8201 262.56 89.6201 263.08 86.4301 262.01C90.3901 263.94 95.3101 263.68 99.8201 262.56Z" fill="#2C49C7"/>
<path d="M102 169.56C86.11 162.67 72 168.85 77.22 180.26C82.44 191.67 70.44 193.87 68.22 206.78C66 219.69 71.04 229.11 84.22 233.22C101.15 238.5 116.73 236.11 115.77 220.22C114.81 204.33 105.47 193.57 108.12 185.9C110.77 178.23 112.85 167 102 169.56Z" fill="#263238"/>
<path d="M106.38 186.17H106.3C106.238 186.148 106.187 186.101 106.159 186.041C106.131 185.981 106.127 185.912 106.15 185.85C106.7 184.34 113.84 182.1 114.65 181.85C114.714 181.832 114.782 181.839 114.84 181.871C114.898 181.903 114.941 181.956 114.96 182.02C114.979 182.082 114.973 182.15 114.943 182.208C114.913 182.266 114.862 182.309 114.8 182.33C111.8 183.25 106.97 185.07 106.62 186.03C106.596 186.073 106.562 186.109 106.519 186.133C106.477 186.158 106.429 186.171 106.38 186.17Z" fill="#263238"/>
<path d="M104.8 189.75C105.061 190.494 105.483 191.171 106.036 191.733C106.59 192.295 107.26 192.728 108 193C109.82 193.53 110.73 191.22 110.22 188.92C109.76 186.85 108.22 184.07 106.43 184.58C104.64 185.09 104 187.73 104.8 189.75Z" fill="#FFC3BD"/>
<path opacity="0.1" d="M352 410.78C353.807 409.549 355.483 408.135 357 406.56H301.23L298.53 356H365.67V351.78H298.3L295.59 301.2H365.67V297H295.37L292.66 246.42H365.66V242.2H292.44L289.73 191.62H331.22V187.4H289.5L287.23 144.88H280.56L295.08 416.27H301.75L301.46 410.82L352 410.78Z" fill="#263238"/>
<path d="M365.24 119.46L366.96 129.46H289L287.28 119.46H280.61L331.7 417.68H338.37L336.65 407.68H414.65L416.37 417.68H423L371.91 119.46H365.24ZM367.68 133.68L376.35 184.26H298.35L289.68 133.68H367.68ZM317.14 293.86L308.47 243.28H386.47L395.14 293.86H317.14ZM395.86 298.08L404.53 348.66H326.53L317.86 298.08H395.86ZM307.74 239.08L299.07 188.5H377.07L385.74 239.08H307.74ZM335.93 403.48L327.26 352.9H405.26L413.93 403.48H335.93Z" fill="#263238"/>
<path d="M361.54 121.1C362.215 119.436 363.435 118.05 365 117.17C365.482 115.517 365.369 113.748 364.68 112.17L382.68 104.61C381.74 110.86 381.01 115.8 383.55 118.61C380.11 121.16 373.81 125.74 366.55 126.19C359.29 126.64 360.59 123.77 361.54 121.1Z" fill="#B55B52"/>
<path d="M360.66 96L360.77 102.08C360.77 102.08 358.46 102.65 357.07 101.63C357.742 99.4661 358.982 97.5219 360.66 96Z" fill="#A02724"/>
<path d="M360.76 95.16C360.69 95.88 360.25 96.42 359.76 96.37C359.27 96.32 358.97 95.7 359.03 94.98C359.09 94.26 359.54 93.71 360.03 93.76C360.52 93.81 360.83 94.44 360.76 95.16Z" fill="#263238"/>
<path d="M360 89.4901C360.012 89.5587 360.041 89.6232 360.085 89.6775C360.129 89.7317 360.185 89.7739 360.25 89.8001C360.751 89.9803 361.201 90.2791 361.561 90.6709C361.922 91.0627 362.182 91.5359 362.32 92.0501C362.331 92.1048 362.352 92.1568 362.383 92.2032C362.414 92.2495 362.454 92.2892 362.501 92.3199C362.547 92.3506 362.6 92.3718 362.654 92.3821C362.709 92.3924 362.765 92.3917 362.82 92.3801C362.875 92.3694 362.927 92.3478 362.973 92.3168C363.019 92.2858 363.059 92.2458 363.09 92.1993C363.121 92.1527 363.142 92.1005 363.152 92.0457C363.162 91.9909 363.162 91.9346 363.15 91.8801C362.984 91.2245 362.66 90.6195 362.207 90.1175C361.754 89.6156 361.185 89.232 360.55 89.0001C360.478 88.9735 360.4 88.9667 360.325 88.9803C360.249 88.9939 360.179 89.0275 360.121 89.0774C360.063 89.1274 360.019 89.192 359.994 89.2646C359.969 89.3371 359.965 89.415 359.98 89.4901H360Z" fill="#263238"/>
<path d="M385.39 94.9201C384.01 103.71 382.88 109.65 377.39 112.92C366.49 119.38 360.82 113.98 359.54 104.92C358.39 96.7701 360.84 83.7601 369.84 81.1401C371.832 80.5573 373.94 80.4895 375.966 80.9431C377.991 81.3967 379.869 82.3568 381.423 83.7335C382.976 85.1103 384.155 86.8587 384.849 88.8151C385.543 90.7716 385.729 92.8721 385.39 94.9201Z" fill="#B55B52"/>
<path d="M366.65 98.91C362.65 98.03 361.44 93.66 363.91 92.01C362.27 88.45 359.91 87.82 359.97 83.61C360.03 79.4 364.4 74.36 373.47 75.16C372.22 75.86 370.93 76.49 370.93 76.49C370.93 76.49 377.93 75.32 383.61 78.63C389.29 81.94 392.48 79.91 392.48 79.91C392.441 80.4986 392.243 81.0655 391.906 81.5499C391.57 82.0344 391.108 82.4181 390.57 82.66C392.02 83.41 395.48 90.32 390.15 96.24C384.82 102.16 383 106.09 384.86 108.46C382.19 111.28 375.86 111.11 371.72 108.85C367.58 106.59 366.65 98.91 366.65 98.91Z" fill="#263238"/>
<path d="M371.55 97.9001C371.255 98.8167 370.781 99.6659 370.157 100.399C369.532 101.132 368.768 101.734 367.91 102.17C365.61 103.33 363.91 101.38 364.15 98.9501C364.35 96.7701 365.78 93.5301 368.3 93.3901C368.851 93.3648 369.4 93.4774 369.897 93.7175C370.394 93.9577 370.823 94.3179 371.145 94.7656C371.468 95.2133 371.674 95.7343 371.745 96.2816C371.815 96.8289 371.748 97.3851 371.55 97.9001Z" fill="#B55B52"/>
<path d="M358.88 327.58L372.44 327.71L371.93 343.7L360.6 343.61L358.88 327.58Z" fill="#B55B52"/>
<path opacity="0.2" d="M358.89 327.58L372.44 327.71L372.15 336.67L359.85 336.56L358.89 327.58Z" fill="black"/>
<path d="M373.27 263.88C378 242.88 385.83 220.62 377.58 201.74L339.92 205C339.92 205 343.65 249.78 344.66 268.71C345.66 288.38 358.47 333.78 358.47 333.78H373.98C373.98 333.78 376.39 285.66 373.27 263.88Z" fill="#2C49C7"/>
<path d="M374.09 348.65H370.52L369.65 347.45L368.17 348.66H348.17C347.98 347.28 348.167 345.873 348.71 344.59C348.71 344.59 355.64 343.46 358.33 341.59C358.557 341.43 358.814 341.319 359.086 341.264C359.358 341.209 359.639 341.211 359.91 341.27C362.33 341.73 368.73 342.77 372.19 341.42C372.276 341.396 372.366 341.392 372.454 341.406C372.542 341.421 372.625 341.455 372.699 341.505C372.772 341.556 372.833 341.622 372.879 341.699C372.924 341.776 372.952 341.861 372.96 341.95C373.163 344.209 373.54 346.449 374.09 348.65Z" fill="#263238"/>
<path d="M416.93 310.48L429.49 305.36L436.21 319.89L425.72 324.18L416.93 310.48Z" fill="#B55B52"/>
<path opacity="0.2" d="M416.93 310.48L429.5 305.37L433.26 313.5L421.86 318.15L416.93 310.48Z" fill="black"/>
<path d="M415.63 260.05C414.87 239.51 413.63 208.79 405.89 200.05L363.74 202.92C363.74 202.92 379.49 246.61 385.56 265.08C391.87 284.27 419.4 316.24 419.4 316.24L432.94 310.62C432.94 310.62 423.23 282.88 415.63 260.05Z" fill="#2C49C7"/>
<path d="M355.44 119.47C367.821 117.148 380.422 116.209 393.01 116.67C394.736 116.768 396.425 117.217 397.972 117.99C399.518 118.763 400.891 119.843 402.006 121.165C403.121 122.487 403.955 124.022 404.456 125.677C404.957 127.332 405.115 129.072 404.92 130.79C401.74 160.7 407.82 195.86 407.75 201.72C407.75 201.72 352.82 224.33 338.13 207.2C331.03 171.56 341.24 140.51 346.01 127.53C346.757 125.49 348.018 123.676 349.669 122.265C351.321 120.853 353.308 119.891 355.44 119.47Z" fill="#2C49C7"/>
<path opacity="0.1" d="M373.27 263.88C373.67 266.62 373.97 269.78 374.2 273.21C364.664 274.836 355.004 275.626 345.33 275.57C345 273.07 344.77 270.77 344.66 268.74C344.51 265.92 344.3 262.53 344.05 258.8C354.207 259.306 364.384 259.212 374.53 258.52C374.09 260.313 373.67 262.1 373.27 263.88Z" fill="#263238"/>
<path opacity="0.1" d="M416 261.13C409.05 264.45 399.06 267.84 387.75 270.5C386.918 268.723 386.187 266.9 385.56 265.04C384.87 262.94 384.05 260.5 383.15 257.85C393.961 256.874 404.713 255.325 415.36 253.21C415.46 255.58 415.55 257.87 415.63 260.05L416 261.13Z" fill="#263238"/>
<path d="M418.53 253.66C410.53 261.66 377.3 271.56 351.32 267.54C349.793 264.199 348.578 260.724 347.69 257.16C347.073 260.298 346.805 263.494 346.89 266.69C344.231 266.097 341.623 265.294 339.09 264.29C337.32 250.71 332.74 197.7 334.81 169.35C336.88 141 346.25 123.14 348.17 121.81C350.09 120.48 362.9 116.81 377.62 115.74C391.07 114.74 403.06 118.03 405.39 122.03C409.22 128.03 406.27 172.31 407.75 186.03C409.23 199.75 417.35 232.11 418.53 253.66Z" fill="#2C49C7"/>
<path opacity="0.3" d="M418.53 253.66C410.53 261.66 377.3 271.56 351.32 267.54C349.793 264.199 348.578 260.724 347.69 257.16C347.073 260.298 346.805 263.494 346.89 266.69C344.231 266.097 341.623 265.294 339.09 264.29C337.32 250.71 332.74 197.7 334.81 169.35C336.88 141 346.25 123.14 348.17 121.81C350.09 120.48 362.9 116.81 377.62 115.74C391.07 114.74 403.06 118.03 405.39 122.03C409.22 128.03 406.27 172.31 407.75 186.03C409.23 199.75 417.35 232.11 418.53 253.66Z" fill="white"/>
<path d="M440.53 320.67L438.3 322.6L436.91 322.21L436.53 324.14L423.08 335.77C422.082 334.786 421.364 333.554 421 332.2C421 332.2 424.7 328.35 424.52 325.01C424.507 324.885 424.53 324.76 424.587 324.648C424.644 324.536 424.732 324.443 424.84 324.38C426.42 323.5 432.62 319.9 434.64 316.32C434.688 316.235 434.755 316.162 434.837 316.107C434.918 316.053 435.01 316.018 435.107 316.005C435.205 315.992 435.303 316.002 435.396 316.035C435.488 316.067 435.572 316.12 435.64 316.19C437.153 317.806 438.788 319.304 440.53 320.67Z" fill="#263238"/>
<path d="M298.81 160.3L299.05 166.01C297.17 171.7 290.27 168.01 290.27 168.01L286.27 167.57C285.562 167.453 284.919 167.086 284.459 166.535C283.998 165.985 283.751 165.288 283.76 164.57L283.56 160.57C283.466 159.752 283.696 158.93 284.201 158.28C284.705 157.629 285.445 157.202 286.26 157.09L289.79 156.89C290.822 156.83 291.852 157.026 292.79 157.46L298.81 160.3Z" fill="#B55B52"/>
<path d="M300 161.16C298.32 156.55 293.93 156.09 290.66 154.66C290.1 154.42 288.97 155.57 289.55 156.51C289.851 157.116 290.273 157.654 290.788 158.093C291.304 158.531 291.903 158.86 292.55 159.06C292.46 160.59 293.74 164.84 298.06 165.11C299.169 164.075 299.859 162.67 300 161.16Z" fill="#B55B52"/>
<path opacity="0.5" d="M338 147.73C336.366 154.842 335.286 162.071 334.77 169.35C334.703 170.29 334.643 171.26 334.59 172.26C341.65 165.82 346.31 155.87 346.32 149.66C346.36 146.64 342.29 145.76 338 147.73Z" fill="#2C49C7"/>
<path opacity="0.5" d="M379.77 186C379.77 186 396.38 184.64 401.22 181.78C395.38 186.53 387.38 187.16 379.77 186Z" fill="#2C49C7"/>
<path opacity="0.5" d="M381.65 187.94C381.65 187.94 393.88 188.7 397.7 187.13C393 190 387.06 189.58 381.65 187.94Z" fill="#2C49C7"/>
<path d="M364.05 137.24C361.78 139.68 359.48 142 357.18 144.37C354.88 146.74 352.51 149.02 350.18 151.37C345.49 156.01 340.68 160.54 335.68 165.05L333.62 166.9L331.8 167.41C328.682 168.221 325.506 168.789 322.3 169.11C319.3 169.46 316.45 169.66 313.59 169.81C310.73 169.96 307.88 170.04 305.04 170.05C302.2 170.06 299.4 170.05 296.49 169.88L295.49 155.54L303.49 153.92C306.14 153.39 308.79 152.85 311.4 152.29C314.01 151.73 316.59 151.14 319.07 150.53C321.324 150.005 323.541 149.337 325.71 148.53L321.82 150.89L334.82 136.57L341.35 129.34C343.55 126.95 345.74 124.52 347.94 122.17L364.05 137.24Z" fill="#2C49C7"/>
<g opacity="0.3">
<path opacity="0.3" d="M364.05 137.24C361.78 139.68 359.48 142 357.18 144.37C354.88 146.74 352.51 149.02 350.18 151.37C345.49 156.01 340.68 160.54 335.68 165.05L333.62 166.9L331.8 167.41C328.682 168.221 325.506 168.789 322.3 169.11C319.3 169.46 316.45 169.66 313.59 169.81C310.73 169.96 307.88 170.04 305.04 170.05C302.2 170.06 299.4 170.05 296.49 169.88L295.49 155.54L303.49 153.92C306.14 153.39 308.79 152.85 311.4 152.29C314.01 151.73 316.59 151.14 319.07 150.53C321.324 150.005 323.541 149.337 325.71 148.53L321.82 150.89L334.82 136.57L341.35 129.34C343.55 126.95 345.74 124.52 347.94 122.17L364.05 137.24Z" fill="white"/>
</g>
</svg>
