<svg width="143" height="28" viewBox="0 0 143 28" fill="none" xmlns="http://www.w3.org/2000/svg">
<path d="M10.4713 7.26658C12.4588 7.26658 13.9245 7.75102 14.8685 8.71989C15.8126 9.66393 16.4336 10.8937 16.7318 12.4091L16.0983 12.0737L16.3964 11.4775C16.6945 10.9061 17.1541 10.2974 17.7752 9.65151C18.3962 8.98075 19.1415 8.42178 20.011 7.9746C20.9054 7.50259 21.8991 7.26658 22.9922 7.26658C24.7809 7.26658 26.1348 7.65165 27.054 8.42178C27.9981 9.19191 28.644 10.2229 28.9918 11.5147C29.3396 12.7817 29.5135 14.1978 29.5135 15.7629V25.3026C29.5135 25.9485 29.3023 26.4951 28.88 26.9422C28.4577 27.3646 27.9235 27.5757 27.2776 27.5757C26.6317 27.5757 26.0976 27.3646 25.6752 26.9422C25.2529 26.4951 25.0418 25.9485 25.0418 25.3026V15.7629C25.0418 14.9431 24.9424 14.2102 24.7436 13.5643C24.5449 12.8935 24.1847 12.3594 23.663 11.9619C23.1413 11.5644 22.396 11.3657 21.4271 11.3657C20.4831 11.3657 19.6757 11.5644 19.0049 11.9619C18.3341 12.3594 17.8249 12.8935 17.4771 13.5643C17.1541 14.2102 16.9926 14.9431 16.9926 15.7629V25.3026C16.9926 25.9485 16.7815 26.4951 16.3591 26.9422C15.9368 27.3646 15.4027 27.5757 14.7567 27.5757C14.1108 27.5757 13.5767 27.3646 13.1544 26.9422C12.732 26.4951 12.5209 25.9485 12.5209 25.3026V15.7629C12.5209 14.9431 12.4215 14.2102 12.2228 13.5643C12.024 12.8935 11.6638 12.3594 11.1421 11.9619C10.6204 11.5644 9.8751 11.3657 8.90622 11.3657C7.96218 11.3657 7.15479 11.5644 6.48402 11.9619C5.81326 12.3594 5.30398 12.8935 4.95618 13.5643C4.63322 14.2102 4.47174 14.9431 4.47174 15.7629V25.3026C4.47174 25.9485 4.26058 26.4951 3.83824 26.9422C3.41591 27.3646 2.88179 27.5757 2.23587 27.5757C1.58995 27.5757 1.05583 27.3646 0.633497 26.9422C0.211166 26.4951 0 25.9485 0 25.3026V9.91236C0 9.26644 0.211166 8.73232 0.633497 8.30998C1.05583 7.86281 1.58995 7.63922 2.23587 7.63922C2.88179 7.63922 3.41591 7.86281 3.83824 8.30998C4.26058 8.73232 4.47174 9.26644 4.47174 9.91236V11.5147L3.91277 11.4029C4.13636 10.9806 4.4469 10.5334 4.84439 10.0614C5.24187 9.56456 5.72631 9.10496 6.2977 8.68263C6.86909 8.2603 7.50259 7.92492 8.19819 7.67649C8.8938 7.40322 9.65151 7.26658 10.4713 7.26658Z" fill="white"/>
<path d="M42.9986 27.9484C40.8869 27.9484 39.0485 27.5136 37.4834 26.6441C35.9432 25.7498 34.7507 24.5449 33.906 23.0295C33.0862 21.514 32.6763 19.7999 32.6763 17.887C32.6763 15.6511 33.1235 13.7506 34.0178 12.1855C34.937 10.5955 36.1295 9.37823 37.5952 8.53357C39.061 7.68891 40.6137 7.26658 42.2533 7.26658C43.5203 7.26658 44.7128 7.52743 45.8307 8.04913C46.9735 8.57084 47.9796 9.29128 48.8491 10.2105C49.7186 11.1048 50.4018 12.1482 50.8987 13.3407C51.4204 14.5332 51.6812 15.8002 51.6812 17.1417C51.6564 17.7379 51.4204 18.2223 50.9732 18.595C50.526 18.9676 50.0043 19.154 49.4081 19.154H35.173L34.0551 15.4275H47.7312L46.9114 16.1728V15.1667C46.8617 14.4462 46.6008 13.8003 46.1288 13.2289C45.6816 12.6575 45.1102 12.2103 44.4146 11.8874C43.7439 11.5396 43.0234 11.3657 42.2533 11.3657C41.508 11.3657 40.8124 11.465 40.1665 11.6638C39.5206 11.8625 38.9616 12.1979 38.4896 12.6699C38.0176 13.1419 37.6449 13.7754 37.3716 14.5704C37.0984 15.3654 36.9617 16.3715 36.9617 17.5888C36.9617 18.9304 37.235 20.0732 37.7816 21.0172C38.3529 21.9364 39.0734 22.6444 39.9429 23.1413C40.8372 23.6133 41.7813 23.8493 42.775 23.8493C43.6942 23.8493 44.4271 23.7748 44.9736 23.6257C45.5202 23.4766 45.9549 23.3027 46.2779 23.104C46.6257 22.8804 46.9362 22.6941 47.2095 22.545C47.6567 22.3214 48.079 22.2096 48.4765 22.2096C49.023 22.2096 49.4702 22.396 49.818 22.7686C50.1906 23.1413 50.377 23.576 50.377 24.0729C50.377 24.7436 50.0292 25.3523 49.3336 25.8988C48.6876 26.4454 47.7809 26.9298 46.6132 27.3521C45.4456 27.7496 44.2407 27.9484 42.9986 27.9484Z" fill="white"/>
<path d="M71.1647 0C71.8107 0 72.3448 0.211165 72.7671 0.633495C73.1894 1.05583 73.4006 1.60237 73.4006 2.27313V25.3026C73.4006 25.9485 73.1894 26.4951 72.7671 26.9422C72.3448 27.3646 71.8107 27.5757 71.1647 27.5757C70.5188 27.5757 69.9847 27.3646 69.5624 26.9422C69.14 26.4951 68.9289 25.9485 68.9289 25.3026V23.4766L69.7487 23.812C69.7487 24.135 69.5748 24.5325 69.227 25.0045C68.8792 25.4517 68.4072 25.8988 67.8109 26.346C67.2147 26.7932 66.5067 27.1782 65.6869 27.5012C64.8919 27.7993 64.0224 27.9484 63.0783 27.9484C61.3642 27.9484 59.8115 27.5136 58.4203 26.6441C57.0291 25.7498 55.9236 24.5325 55.1037 22.9922C54.3088 21.4271 53.9113 19.6384 53.9113 17.6261C53.9113 15.589 54.3088 13.8003 55.1037 12.26C55.9236 10.6949 57.0166 9.4776 58.383 8.6081C59.7494 7.71375 61.2648 7.26658 62.9293 7.26658C63.9975 7.26658 64.9788 7.42806 65.8732 7.75102C66.7675 8.07398 67.5377 8.48388 68.1836 8.98074C68.8543 9.4776 69.3636 9.98689 69.7114 10.5086C70.0841 11.0054 70.2704 11.4278 70.2704 11.7756L68.9289 12.26V2.27313C68.9289 1.62721 69.14 1.09309 69.5624 0.670759C69.9847 0.223586 70.5188 0 71.1647 0ZM63.6373 23.8493C64.7304 23.8493 65.6869 23.576 66.5067 23.0295C67.3265 22.4829 67.96 21.7376 68.4072 20.7936C68.8792 19.8496 69.1152 18.7937 69.1152 17.6261C69.1152 16.4336 68.8792 15.3654 68.4072 14.4214C67.96 13.4773 67.3265 12.732 66.5067 12.1855C65.6869 11.6389 64.7304 11.3657 63.6373 11.3657C62.5691 11.3657 61.625 11.6389 60.8052 12.1855C59.9854 12.732 59.3395 13.4773 58.8674 14.4214C58.4203 15.3654 58.1967 16.4336 58.1967 17.6261C58.1967 18.7937 58.4203 19.8496 58.8674 20.7936C59.3395 21.7376 59.9854 22.4829 60.8052 23.0295C61.625 23.576 62.5691 23.8493 63.6373 23.8493Z" fill="white"/>
<path d="M87.0741 8.0864C88.7634 8.0864 90.254 8.50873 91.5458 9.35339C92.8625 10.1981 93.9059 11.3657 94.676 12.8563C95.4462 14.322 95.8312 16.0237 95.8312 17.9615C95.8312 19.8496 95.4462 21.5513 94.676 23.0667C93.9059 24.5822 92.8625 25.7746 91.5458 26.6441C90.2291 27.5136 88.751 27.9484 87.1113 27.9484C86.2418 27.9484 85.4096 27.8117 84.6146 27.5385C83.8445 27.2652 83.1364 26.905 82.4905 26.4578C81.8446 25.9858 81.2732 25.4392 80.7764 24.8182C80.2795 24.1971 79.882 23.5263 79.5839 22.8059L80.2547 22.3214V26.5323C80.2547 26.8553 80.1429 27.1286 79.9193 27.3521C79.7205 27.5509 79.4597 27.6503 79.1367 27.6503C78.8138 27.6503 78.5405 27.5509 78.3169 27.3521C78.1182 27.1286 78.0188 26.8553 78.0188 26.5323V1.1552C78.0188 0.832237 78.1182 0.571387 78.3169 0.372644C78.5156 0.149057 78.7889 0.0372635 79.1367 0.0372635C79.4597 0.0372635 79.7205 0.149057 79.9193 0.372644C80.1429 0.571387 80.2547 0.832237 80.2547 1.1552V13.6388L79.7329 13.3407C79.9814 12.5706 80.3416 11.875 80.8136 11.2539C81.3105 10.608 81.8819 10.049 82.5278 9.57698C83.1737 9.10496 83.8817 8.74474 84.6519 8.49631C85.422 8.22303 86.2294 8.0864 87.0741 8.0864ZM86.8877 10.1732C85.5462 10.1732 84.3662 10.5086 83.3476 11.1794C82.329 11.8501 81.5216 12.7693 80.9254 13.9369C80.354 15.1045 80.0683 16.4461 80.0683 17.9615C80.0683 19.4521 80.354 20.806 80.9254 22.0233C81.5216 23.2158 82.329 24.1598 83.3476 24.8554C84.3662 25.5262 85.5462 25.8616 86.8877 25.8616C88.2044 25.8616 89.3596 25.5138 90.3533 24.8182C91.3719 24.1226 92.1793 23.1785 92.7755 21.9861C93.3718 20.7688 93.6699 19.4272 93.6699 17.9615C93.6699 16.4461 93.3718 15.1045 92.7755 13.9369C92.1793 12.7693 91.3719 11.8501 90.3533 11.1794C89.3596 10.5086 88.2044 10.1732 86.8877 10.1732Z" fill="white"/>
<path d="M102.034 26.4578C102.034 26.7559 101.922 27.0168 101.698 27.2404C101.475 27.4639 101.214 27.5757 100.916 27.5757C100.593 27.5757 100.32 27.4639 100.096 27.2404C99.8972 27.0168 99.7979 26.7559 99.7979 26.4578V9.31613C99.7979 9.01801 99.8972 8.75716 100.096 8.53357C100.32 8.30998 100.593 8.19819 100.916 8.19819C101.239 8.19819 101.5 8.30998 101.698 8.53357C101.922 8.75716 102.034 9.01801 102.034 9.31613V26.4578ZM100.916 5.70147C100.394 5.70147 99.9966 5.58968 99.7233 5.36609C99.4749 5.11766 99.3507 4.76986 99.3507 4.32268V3.95004C99.3507 3.50286 99.4873 3.16748 99.7606 2.94389C100.059 2.69547 100.456 2.57125 100.953 2.57125C101.425 2.57125 101.785 2.69547 102.034 2.94389C102.307 3.16748 102.444 3.50286 102.444 3.95004V4.32268C102.444 4.76986 102.307 5.11766 102.034 5.36609C101.785 5.58968 101.413 5.70147 100.916 5.70147Z" fill="white"/>
<path d="M108.438 27.5757C108.115 27.5757 107.842 27.4639 107.618 27.2404C107.42 27.0168 107.32 26.7559 107.32 26.4578V1.11793C107.32 0.819817 107.42 0.558967 107.618 0.335381C107.842 0.111794 108.115 0 108.438 0C108.761 0 109.022 0.111794 109.221 0.335381C109.444 0.558967 109.556 0.819817 109.556 1.11793V26.4578C109.556 26.7559 109.444 27.0168 109.221 27.2404C109.022 27.4639 108.761 27.5757 108.438 27.5757ZM121.108 8.45904C121.381 8.45904 121.63 8.58326 121.853 8.83169C122.077 9.05527 122.189 9.3037 122.189 9.57698C122.189 9.89993 122.052 10.1856 121.779 10.4341L109.258 21.0917L109.146 18.4459L120.326 8.83169C120.549 8.58326 120.81 8.45904 121.108 8.45904ZM121.406 27.5757C121.083 27.5757 120.81 27.4391 120.586 27.1658L112.09 18.1478L113.767 16.62L122.189 25.6007C122.412 25.8491 122.524 26.1348 122.524 26.4578C122.524 26.8056 122.388 27.0789 122.114 27.2776C121.841 27.4764 121.605 27.5757 121.406 27.5757Z" fill="white"/>
<path d="M127.412 27.5757C127.064 27.5757 126.791 27.4639 126.592 27.2404C126.393 27.0168 126.294 26.7559 126.294 26.4578V9.7633C126.294 9.46518 126.393 9.20433 126.592 8.98074C126.815 8.75716 127.089 8.64536 127.412 8.64536C127.735 8.64536 127.996 8.75716 128.194 8.98074C128.418 9.20433 128.53 9.46518 128.53 9.7633V15.353L127.971 15.4648C128.045 14.5953 128.256 13.7382 128.604 12.8935C128.977 12.024 129.474 11.229 130.095 10.5086C130.716 9.78814 131.449 9.20433 132.293 8.75716C133.163 8.30998 134.132 8.0864 135.2 8.0864C135.647 8.0864 136.082 8.18577 136.504 8.38451C136.927 8.55841 137.138 8.85653 137.138 9.27886C137.138 9.65151 137.038 9.9372 136.84 10.1359C136.641 10.3347 136.405 10.4341 136.132 10.4341C135.908 10.4341 135.66 10.372 135.386 10.2477C135.138 10.1235 134.803 10.0614 134.38 10.0614C133.685 10.0614 132.989 10.2726 132.293 10.6949C131.598 11.0924 130.964 11.6389 130.393 12.3346C129.821 13.0302 129.362 13.8127 129.014 14.6822C128.691 15.5269 128.53 16.384 128.53 17.2535V26.4578C128.53 26.7559 128.418 27.0168 128.194 27.2404C127.971 27.4639 127.71 27.5757 127.412 27.5757Z" fill="white"/>
<path d="M142.048 26.4578C142.048 26.7559 141.936 27.0168 141.713 27.2404C141.489 27.4639 141.228 27.5757 140.93 27.5757C140.607 27.5757 140.334 27.4639 140.11 27.2404C139.911 27.0168 139.812 26.7559 139.812 26.4578V9.31613C139.812 9.01801 139.911 8.75716 140.11 8.53357C140.334 8.30998 140.607 8.19819 140.93 8.19819C141.253 8.19819 141.514 8.30998 141.713 8.53357C141.936 8.75716 142.048 9.01801 142.048 9.31613V26.4578ZM140.93 5.70147C140.408 5.70147 140.011 5.58968 139.738 5.36609C139.489 5.11766 139.365 4.76986 139.365 4.32268V3.95004C139.365 3.50286 139.502 3.16748 139.775 2.94389C140.073 2.69547 140.47 2.57125 140.967 2.57125C141.439 2.57125 141.8 2.69547 142.048 2.94389C142.321 3.16748 142.458 3.50286 142.458 3.95004V4.32268C142.458 4.76986 142.321 5.11766 142.048 5.36609C141.8 5.58968 141.427 5.70147 140.93 5.70147Z" fill="white"/>
</svg>
