<svg width="128" height="128" viewBox="0 0 128 128" fill="none" xmlns="http://www.w3.org/2000/svg">
<path d="M43.6808 1.225H42.9058V2V10.3361V42.9057L10.3363 42.9057H2.00013H1.22513L1.22513 43.6807L1.22512 64.2038L1.22512 64.9789H2.00012H10.3363H11.1113V64.2038V52.7918H43.6808H52.0169H52.7919V52.0168V43.6807V11.1111H75.2083V43.6807V52.0168V52.7918H75.9833L84.3194 52.7918H116.889V75.2081L75.9833 75.2082H75.2083V75.9832V84.3193V116.889H63.4791H62.7041V117.664V126V126.775H63.4791H84.3194H85.0944V126V117.664V85.0943H117.664L126 85.0943H126.775V84.3193L126.775 43.6807V42.9057H126H117.664H85.0944V10.3361V2V1.225H84.3194H43.6808Z" fill="white" stroke="white" stroke-width="1.55"/>
</svg>
