<svg width="152" height="153" viewBox="0 0 152 153" fill="none" xmlns="http://www.w3.org/2000/svg">
<path d="M148.026 11.1554H6.26709V151.253H148.026V11.1554Z" fill="white" stroke="#000A33" stroke-linecap="round" stroke-linejoin="round"/>
<path d="M71.898 25.9082H62.9961V36.0465H71.898V25.9082Z" fill="white" stroke="#000A33" stroke-linecap="round" stroke-linejoin="round"/>
<path d="M68.7721 25.9082H62.9961V36.0465H68.7721V25.9082Z" fill="white" stroke="#000A33" stroke-linecap="round" stroke-linejoin="round"/>
<path d="M68.0535 30.2144H63.6445V34.9732H68.0535V30.2144Z" fill="#2C49C7" stroke="#000A33" stroke-linecap="round" stroke-linejoin="round"/>
<path d="M64.377 25.9082H55.4751V36.0465H64.377V25.9082Z" fill="white" stroke="#000A33" stroke-linecap="round" stroke-linejoin="round"/>
<path d="M61.2511 25.9082H55.4751V36.0465H61.2511V25.9082Z" fill="white" stroke="#000A33" stroke-linecap="round" stroke-linejoin="round"/>
<path d="M60.5325 30.2144H56.1235V34.9732H60.5325V30.2144Z" fill="#2C49C7" stroke="#000A33" stroke-linecap="round" stroke-linejoin="round"/>
<path d="M57.2437 21.126H48.3418V36.0465H57.2437V21.126Z" fill="#2C49C7" stroke="#000A33" stroke-linecap="round" stroke-linejoin="round"/>
<path d="M54.1178 21.126H48.3418V36.0465H54.1178V21.126Z" fill="white" stroke="#000A33" stroke-linecap="round" stroke-linejoin="round"/>
<path d="M53.3992 27.4663H48.9902V34.4693H53.3992V27.4663Z" fill="#2C49C7" stroke="#000A33" stroke-linecap="round" stroke-linejoin="round"/>
<path d="M49.7227 21.126H40.8208V36.0465H49.7227V21.126Z" fill="#2C49C7" stroke="#000A33" stroke-linecap="round" stroke-linejoin="round"/>
<path d="M46.5968 21.126H40.8208V36.0465H46.5968V21.126Z" fill="#2C49C7" stroke="#000A33" stroke-linecap="round" stroke-linejoin="round"/>
<path d="M45.8782 27.4663H41.4692V34.4693H45.8782V27.4663Z" fill="white" stroke="#000A33" stroke-linecap="round" stroke-linejoin="round"/>
<path d="M43.1065 25.9082H34.2046V36.0465H43.1065V25.9082Z" fill="white" stroke="#000A33" stroke-linecap="round" stroke-linejoin="round"/>
<path d="M39.9806 25.9082H34.2046V36.0465H39.9806V25.9082Z" fill="white" stroke="#000A33" stroke-linecap="round" stroke-linejoin="round"/>
<path d="M39.2625 30.2144H34.8535V34.9732H39.2625V30.2144Z" fill="#2C49C7" stroke="#000A33" stroke-linecap="round" stroke-linejoin="round"/>
<path d="M35.586 25.9082H26.6841V36.0465H35.586V25.9082Z" fill="white" stroke="#000A33" stroke-linecap="round" stroke-linejoin="round"/>
<path d="M32.4601 25.9082H26.6841V36.0465H32.4601V25.9082Z" fill="white" stroke="#000A33" stroke-linecap="round" stroke-linejoin="round"/>
<path d="M31.7415 30.2144H27.3325V34.9732H31.7415V30.2144Z" fill="#2C49C7" stroke="#000A33" stroke-linecap="round" stroke-linejoin="round"/>
<path d="M28.4517 21.126H19.5498V36.0465H28.4517V21.126Z" fill="white" stroke="#000A33" stroke-linecap="round" stroke-linejoin="round"/>
<path d="M25.3258 21.126H19.5498V36.0465H25.3258V21.126Z" fill="white" stroke="#000A33" stroke-linecap="round" stroke-linejoin="round"/>
<path d="M24.6077 27.4663H20.1987V34.4693H24.6077V27.4663Z" fill="#2C49C7" stroke="#000A33" stroke-linecap="round" stroke-linejoin="round"/>
<path d="M20.9317 21.126H12.0298V36.0465H20.9317V21.126Z" fill="white" stroke="#000A33" stroke-linecap="round" stroke-linejoin="round"/>
<path d="M17.8058 21.126H12.0298V36.0465H17.8058V21.126Z" fill="white" stroke="#000A33" stroke-linecap="round" stroke-linejoin="round"/>
<path d="M17.0867 27.4663H12.6777V34.4693H17.0867V27.4663Z" fill="#2C49C7" stroke="#000A33" stroke-linecap="round" stroke-linejoin="round"/>
<path d="M141.149 25.9082H132.247V36.0465H141.149V25.9082Z" fill="white" stroke="#000A33" stroke-linecap="round" stroke-linejoin="round"/>
<path d="M138.023 25.9082H132.247V36.0465H138.023V25.9082Z" fill="white" stroke="#000A33" stroke-linecap="round" stroke-linejoin="round"/>
<path d="M137.304 30.2144H132.896V34.9732H137.304V30.2144Z" fill="#2C49C7" stroke="#000A33" stroke-linecap="round" stroke-linejoin="round"/>
<path d="M133.628 25.9082H124.726V36.0465H133.628V25.9082Z" fill="white" stroke="#000A33" stroke-linecap="round" stroke-linejoin="round"/>
<path d="M130.502 25.9082H124.726V36.0465H130.502V25.9082Z" fill="white" stroke="#000A33" stroke-linecap="round" stroke-linejoin="round"/>
<path d="M129.784 30.2144H125.375V34.9732H129.784V30.2144Z" fill="#2C49C7" stroke="#000A33" stroke-linecap="round" stroke-linejoin="round"/>
<path d="M126.495 21.126H117.593V36.0465H126.495V21.126Z" fill="#2C49C7" stroke="#000A33" stroke-linecap="round" stroke-linejoin="round"/>
<path d="M123.369 21.126H117.593V36.0465H123.369V21.126Z" fill="white" stroke="#000A33" stroke-linecap="round" stroke-linejoin="round"/>
<path d="M122.65 27.4663H118.241V34.4693H122.65V27.4663Z" fill="#2C49C7" stroke="#000A33" stroke-linecap="round" stroke-linejoin="round"/>
<path d="M118.974 21.126H110.072V36.0465H118.974V21.126Z" fill="#2C49C7" stroke="#000A33" stroke-linecap="round" stroke-linejoin="round"/>
<path d="M115.848 21.126H110.072V36.0465H115.848V21.126Z" fill="#2C49C7" stroke="#000A33" stroke-linecap="round" stroke-linejoin="round"/>
<path d="M115.13 27.4663H110.721V34.4693H115.13V27.4663Z" fill="white" stroke="#000A33" stroke-linecap="round" stroke-linejoin="round"/>
<path d="M112.362 25.9082H103.46V36.0465H112.362V25.9082Z" fill="white" stroke="#000A33" stroke-linecap="round" stroke-linejoin="round"/>
<path d="M109.236 25.9082H103.46V36.0465H109.236V25.9082Z" fill="white" stroke="#000A33" stroke-linecap="round" stroke-linejoin="round"/>
<path d="M108.513 30.2144H104.104V34.9732H108.513V30.2144Z" fill="#2C49C7" stroke="#000A33" stroke-linecap="round" stroke-linejoin="round"/>
<path d="M104.837 25.9082H95.9351V36.0465H104.837V25.9082Z" fill="white" stroke="#000A33" stroke-linecap="round" stroke-linejoin="round"/>
<path d="M101.711 25.9082H95.9351V36.0465H101.711V25.9082Z" fill="white" stroke="#000A33" stroke-linecap="round" stroke-linejoin="round"/>
<path d="M100.992 30.2144H96.5835V34.9732H100.992V30.2144Z" fill="#2C49C7" stroke="#000A33" stroke-linecap="round" stroke-linejoin="round"/>
<path d="M97.7081 21.126H88.8062V36.0465H97.7081V21.126Z" fill="white" stroke="#000A33" stroke-linecap="round" stroke-linejoin="round"/>
<path d="M94.5821 21.126H88.8062V36.0465H94.5821V21.126Z" fill="white" stroke="#000A33" stroke-linecap="round" stroke-linejoin="round"/>
<path d="M93.8592 27.4663H89.4502V34.4693H93.8592V27.4663Z" fill="#2C49C7" stroke="#000A33" stroke-linecap="round" stroke-linejoin="round"/>
<path d="M90.1822 21.126H81.2803V36.0465H90.1822V21.126Z" fill="white" stroke="#000A33" stroke-linecap="round" stroke-linejoin="round"/>
<path d="M87.0563 21.126H81.2803V36.0465H87.0563V21.126Z" fill="white" stroke="#000A33" stroke-linecap="round" stroke-linejoin="round"/>
<path d="M86.3377 27.4663H81.9287V34.4693H86.3377V27.4663Z" fill="#2C49C7" stroke="#000A33" stroke-linecap="round" stroke-linejoin="round"/>
<path d="M71.898 104.574H62.9961V114.713H71.898V104.574Z" fill="white" stroke="#000A33" stroke-linecap="round" stroke-linejoin="round"/>
<path d="M68.7721 104.574H62.9961V114.713H68.7721V104.574Z" fill="white" stroke="#000A33" stroke-linecap="round" stroke-linejoin="round"/>
<path d="M68.0535 108.881H63.6445V113.64H68.0535V108.881Z" fill="#2C49C7" stroke="#000A33" stroke-linecap="round" stroke-linejoin="round"/>
<path d="M64.377 104.574H55.4751V114.713H64.377V104.574Z" fill="white" stroke="#000A33" stroke-linecap="round" stroke-linejoin="round"/>
<path d="M61.2511 104.574H55.4751V114.713H61.2511V104.574Z" fill="white" stroke="#000A33" stroke-linecap="round" stroke-linejoin="round"/>
<path d="M60.5325 108.881H56.1235V113.64H60.5325V108.881Z" fill="#2C49C7" stroke="#000A33" stroke-linecap="round" stroke-linejoin="round"/>
<path d="M57.2437 99.7922H48.3418V114.713H57.2437V99.7922Z" fill="#2C49C7" stroke="#000A33" stroke-linecap="round" stroke-linejoin="round"/>
<path d="M54.1178 99.7922H48.3418V114.713H54.1178V99.7922Z" fill="white" stroke="#000A33" stroke-linecap="round" stroke-linejoin="round"/>
<path d="M53.3992 106.128H48.9902V113.131H53.3992V106.128Z" fill="#2C49C7" stroke="#000A33" stroke-linecap="round" stroke-linejoin="round"/>
<path d="M49.7227 99.7922H40.8208V114.713H49.7227V99.7922Z" fill="#2C49C7" stroke="#000A33" stroke-linecap="round" stroke-linejoin="round"/>
<path d="M46.5968 99.7922H40.8208V114.713H46.5968V99.7922Z" fill="#2C49C7" stroke="#000A33" stroke-linecap="round" stroke-linejoin="round"/>
<path d="M45.8782 106.128H41.4692V113.131H45.8782V106.128Z" fill="white" stroke="#000A33" stroke-linecap="round" stroke-linejoin="round"/>
<path d="M43.1065 104.574H34.2046V114.713H43.1065V104.574Z" fill="white" stroke="#000A33" stroke-linecap="round" stroke-linejoin="round"/>
<path d="M39.9806 104.574H34.2046V114.713H39.9806V104.574Z" fill="white" stroke="#000A33" stroke-linecap="round" stroke-linejoin="round"/>
<path d="M39.2625 108.881H34.8535V113.64H39.2625V108.881Z" fill="#2C49C7" stroke="#000A33" stroke-linecap="round" stroke-linejoin="round"/>
<path d="M35.586 104.574H26.6841V114.713H35.586V104.574Z" fill="white" stroke="#000A33" stroke-linecap="round" stroke-linejoin="round"/>
<path d="M32.4601 104.574H26.6841V114.713H32.4601V104.574Z" fill="white" stroke="#000A33" stroke-linecap="round" stroke-linejoin="round"/>
<path d="M31.7415 108.881H27.3325V113.64H31.7415V108.881Z" fill="#2C49C7" stroke="#000A33" stroke-linecap="round" stroke-linejoin="round"/>
<path d="M28.4517 99.7922H19.5498V114.713H28.4517V99.7922Z" fill="white" stroke="#000A33" stroke-linecap="round" stroke-linejoin="round"/>
<path d="M25.3258 99.7922H19.5498V114.713H25.3258V99.7922Z" fill="white" stroke="#000A33" stroke-linecap="round" stroke-linejoin="round"/>
<path d="M24.6077 106.128H20.1987V113.131H24.6077V106.128Z" fill="#2C49C7" stroke="#000A33" stroke-linecap="round" stroke-linejoin="round"/>
<path d="M20.9317 99.7922H12.0298V114.713H20.9317V99.7922Z" fill="white" stroke="#000A33" stroke-linecap="round" stroke-linejoin="round"/>
<path d="M17.8058 99.7922H12.0298V114.713H17.8058V99.7922Z" fill="white" stroke="#000A33" stroke-linecap="round" stroke-linejoin="round"/>
<path d="M17.0867 106.128H12.6777V113.131H17.0867V106.128Z" fill="#2C49C7" stroke="#000A33" stroke-linecap="round" stroke-linejoin="round"/>
<path d="M141.149 104.574H132.247V114.713H141.149V104.574Z" fill="white" stroke="#000A33" stroke-linecap="round" stroke-linejoin="round"/>
<path d="M138.023 104.574H132.247V114.713H138.023V104.574Z" fill="white" stroke="#000A33" stroke-linecap="round" stroke-linejoin="round"/>
<path d="M137.304 108.881H132.896V113.64H137.304V108.881Z" fill="#2C49C7" stroke="#000A33" stroke-linecap="round" stroke-linejoin="round"/>
<path d="M133.628 104.574H124.726V114.713H133.628V104.574Z" fill="white" stroke="#000A33" stroke-linecap="round" stroke-linejoin="round"/>
<path d="M130.502 104.574H124.726V114.713H130.502V104.574Z" fill="white" stroke="#000A33" stroke-linecap="round" stroke-linejoin="round"/>
<path d="M129.784 108.881H125.375V113.64H129.784V108.881Z" fill="#2C49C7" stroke="#000A33" stroke-linecap="round" stroke-linejoin="round"/>
<path d="M126.495 99.7922H117.593V114.713H126.495V99.7922Z" fill="#2C49C7" stroke="#000A33" stroke-linecap="round" stroke-linejoin="round"/>
<path d="M123.369 99.7922H117.593V114.713H123.369V99.7922Z" fill="white" stroke="#000A33" stroke-linecap="round" stroke-linejoin="round"/>
<path d="M122.65 106.128H118.241V113.131H122.65V106.128Z" fill="#2C49C7" stroke="#000A33" stroke-linecap="round" stroke-linejoin="round"/>
<path d="M118.974 99.7922H110.072V114.713H118.974V99.7922Z" fill="#2C49C7" stroke="#000A33" stroke-linecap="round" stroke-linejoin="round"/>
<path d="M115.848 99.7922H110.072V114.713H115.848V99.7922Z" fill="#2C49C7" stroke="#000A33" stroke-linecap="round" stroke-linejoin="round"/>
<path d="M115.13 106.128H110.721V113.131H115.13V106.128Z" fill="white" stroke="#000A33" stroke-linecap="round" stroke-linejoin="round"/>
<path d="M112.362 104.574H103.46V114.713H112.362V104.574Z" fill="white" stroke="#000A33" stroke-linecap="round" stroke-linejoin="round"/>
<path d="M109.236 104.574H103.46V114.713H109.236V104.574Z" fill="white" stroke="#000A33" stroke-linecap="round" stroke-linejoin="round"/>
<path d="M108.513 108.881H104.104V113.64H108.513V108.881Z" fill="#2C49C7" stroke="#000A33" stroke-linecap="round" stroke-linejoin="round"/>
<path d="M104.837 104.574H95.9351V114.713H104.837V104.574Z" fill="white" stroke="#000A33" stroke-linecap="round" stroke-linejoin="round"/>
<path d="M101.711 104.574H95.9351V114.713H101.711V104.574Z" fill="white" stroke="#000A33" stroke-linecap="round" stroke-linejoin="round"/>
<path d="M100.992 108.881H96.5835V113.64H100.992V108.881Z" fill="#2C49C7" stroke="#000A33" stroke-linecap="round" stroke-linejoin="round"/>
<path d="M97.7081 99.7922H88.8062V114.713H97.7081V99.7922Z" fill="white" stroke="#000A33" stroke-linecap="round" stroke-linejoin="round"/>
<path d="M94.5821 99.7922H88.8062V114.713H94.5821V99.7922Z" fill="white" stroke="#000A33" stroke-linecap="round" stroke-linejoin="round"/>
<path d="M93.8592 106.128H89.4502V113.131H93.8592V106.128Z" fill="#2C49C7" stroke="#000A33" stroke-linecap="round" stroke-linejoin="round"/>
<path d="M90.1822 99.7922H81.2803V114.713H90.1822V99.7922Z" fill="white" stroke="#000A33" stroke-linecap="round" stroke-linejoin="round"/>
<path d="M87.0563 99.7922H81.2803V114.713H87.0563V99.7922Z" fill="white" stroke="#000A33" stroke-linecap="round" stroke-linejoin="round"/>
<path d="M86.3377 106.128H81.9287V113.131H86.3377V106.128Z" fill="#2C49C7" stroke="#000A33" stroke-linecap="round" stroke-linejoin="round"/>
<path d="M12.0853 50.9155H15.0666C15.7373 50.9155 16.3805 51.1819 16.8547 51.6562C17.329 52.1304 17.5954 52.7736 17.5954 53.4443V62.0663H9.56592V53.4443C9.56591 52.7752 9.83105 52.1334 10.3033 51.6595C10.7755 51.1855 11.4163 50.918 12.0853 50.9155Z" fill="#2C49C7" stroke="#000A33" stroke-linecap="round" stroke-linejoin="round"/>
<path d="M15.4026 47.8037H12.0947V50.9157H15.4026V47.8037Z" fill="#000A33" stroke="#000A33" stroke-linecap="round" stroke-linejoin="round"/>
<path d="M15.4025 54.2888H10.2144V59.4769H15.4025V54.2888Z" fill="white" stroke="#000A33" stroke-linecap="round" stroke-linejoin="round"/>
<path d="M21.561 50.9155H24.5423C25.2129 50.9155 25.8561 51.1819 26.3304 51.6562C26.8046 52.1304 27.071 52.7736 27.071 53.4443V62.0663H19.0322V53.4443C19.0322 53.1122 19.0976 52.7834 19.2247 52.4766C19.3518 52.1698 19.5381 51.891 19.7729 51.6562C20.0077 51.4214 20.2865 51.2351 20.5933 51.108C20.9001 50.9809 21.2289 50.9155 21.561 50.9155Z" fill="#2C49C7" stroke="#000A33" stroke-linecap="round" stroke-linejoin="round"/>
<path d="M24.8689 47.8037H21.561V50.9157H24.8689V47.8037Z" fill="#000A33" stroke="#000A33" stroke-linecap="round" stroke-linejoin="round"/>
<path d="M24.8693 54.2888H19.6812V59.4769H24.8693V54.2888Z" fill="white" stroke="#000A33" stroke-linecap="round" stroke-linejoin="round"/>
<path d="M31.0273 44.9482H34.0132C34.6831 44.9495 35.3251 45.2164 35.7983 45.6905C36.2715 46.1646 36.5373 46.8071 36.5373 47.477V62.0662H28.4985V47.477C28.4985 46.8063 28.765 46.1631 29.2392 45.6889C29.7134 45.2147 30.3566 44.9482 31.0273 44.9482Z" fill="#2C49C7" stroke="#000A33" stroke-linecap="round" stroke-linejoin="round"/>
<path d="M34.3352 41.8364H31.0273V44.9484H34.3352V41.8364Z" fill="#000A33" stroke="#000A33" stroke-linecap="round" stroke-linejoin="round"/>
<path d="M34.3351 48.3215H29.147V59.4723H34.3351V48.3215Z" fill="white" stroke="#000A33" stroke-linecap="round" stroke-linejoin="round"/>
<path d="M40.4941 50.9155H43.4754C44.146 50.9155 44.7892 51.1819 45.2635 51.6562C45.7377 52.1304 46.0041 52.7736 46.0041 53.4443V62.0663H37.9653V53.4443C37.9653 52.7736 38.2318 52.1304 38.706 51.6562C39.1802 51.1819 39.8234 50.9155 40.4941 50.9155Z" fill="#2C49C7" stroke="#000A33" stroke-linecap="round" stroke-linejoin="round"/>
<path d="M43.802 47.8037H40.4941V50.9157H43.802V47.8037Z" fill="#000A33" stroke="#000A33" stroke-linecap="round" stroke-linejoin="round"/>
<path d="M43.8019 54.2888H38.6138V59.4769H43.8019V54.2888Z" fill="white" stroke="#000A33" stroke-linecap="round" stroke-linejoin="round"/>
<path d="M49.9609 50.9155H52.9422C53.6128 50.9155 54.256 51.1819 54.7303 51.6562C55.2045 52.1304 55.4709 52.7736 55.4709 53.4443V62.0663H47.4321V53.4443C47.4321 52.7736 47.6985 52.1304 48.1728 51.6562C48.647 51.1819 49.2902 50.9155 49.9609 50.9155Z" fill="#2C49C7" stroke="#000A33" stroke-linecap="round" stroke-linejoin="round"/>
<path d="M53.2683 47.8037H49.9604V50.9157H53.2683V47.8037Z" fill="#000A33" stroke="#000A33" stroke-linecap="round" stroke-linejoin="round"/>
<path d="M53.2687 54.2888H48.0806V59.4769H53.2687V54.2888Z" fill="white" stroke="#000A33" stroke-linecap="round" stroke-linejoin="round"/>
<path d="M59.4314 47.8037H62.4127C63.0833 47.8037 63.7265 48.0701 64.2008 48.5444C64.675 49.0186 64.9414 49.6618 64.9414 50.3325V62.0711H56.8979V50.3325C56.8979 50 56.9635 49.6708 57.0909 49.3637C57.2183 49.0566 57.4049 48.7776 57.6403 48.5427C57.8756 48.3078 58.1549 48.1217 58.4622 47.9949C58.7696 47.8681 59.0989 47.8031 59.4314 47.8037Z" fill="#2C49C7" stroke="#000A33" stroke-linecap="round" stroke-linejoin="round"/>
<path d="M62.7395 44.6919H59.4316V47.8038H62.7395V44.6919Z" fill="#000A33" stroke="#000A33" stroke-linecap="round" stroke-linejoin="round"/>
<path d="M62.735 51.1721H57.5469V59.4722H62.735V51.1721Z" fill="white" stroke="#000A33" stroke-linecap="round" stroke-linejoin="round"/>
<path d="M84.6116 50.9156H87.5929C88.2636 50.9156 88.9068 51.182 89.381 51.6562C89.8552 52.1304 90.1216 52.7736 90.1216 53.4443V62.0663H82.0688V53.4443C82.0688 53.111 82.1347 52.7811 82.2627 52.4734C82.3906 52.1656 82.5781 51.8863 82.8144 51.6513C83.0507 51.4163 83.3312 51.2303 83.6396 51.104C83.948 50.9778 84.2783 50.9137 84.6116 50.9156Z" fill="#2C49C7" stroke="#000A33" stroke-linecap="round" stroke-linejoin="round"/>
<path d="M87.9192 47.8037H84.6113V50.9157H87.9192V47.8037Z" fill="#000A33" stroke="#000A33" stroke-linecap="round" stroke-linejoin="round"/>
<path d="M87.9196 54.2888H82.7314V59.4769H87.9196V54.2888Z" fill="white" stroke="#000A33" stroke-linecap="round" stroke-linejoin="round"/>
<path d="M94.0781 50.9155H97.0594C97.73 50.9155 98.3732 51.1819 98.8475 51.6562C99.3217 52.1304 99.5881 52.7736 99.5881 53.4443V62.0663H91.5493V53.4443C91.5493 52.7736 91.8157 52.1304 92.29 51.6562C92.7642 51.1819 93.4074 50.9155 94.0781 50.9155Z" fill="#2C49C7" stroke="#000A33" stroke-linecap="round" stroke-linejoin="round"/>
<path d="M97.386 47.8037H94.0781V50.9157H97.386V47.8037Z" fill="#000A33" stroke="#000A33" stroke-linecap="round" stroke-linejoin="round"/>
<path d="M97.3864 54.2888H92.1982V59.4769H97.3864V54.2888Z" fill="white" stroke="#000A33" stroke-linecap="round" stroke-linejoin="round"/>
<path d="M103.531 44.9482H106.512C107.183 44.9482 107.826 45.2147 108.3 45.6889C108.775 46.1631 109.041 46.8063 109.041 47.477V62.0662H101.021V47.477C101.021 46.8095 101.285 46.1692 101.755 45.6955C102.225 45.2218 102.864 44.9532 103.531 44.9482Z" fill="#2C49C7" stroke="#000A33" stroke-linecap="round" stroke-linejoin="round"/>
<path d="M106.857 41.8364H103.549V44.9484H106.857V41.8364Z" fill="#000A33" stroke="#000A33" stroke-linecap="round" stroke-linejoin="round"/>
<path d="M106.857 48.3215H101.669V59.4723H106.857V48.3215Z" fill="white" stroke="#000A33" stroke-linecap="round" stroke-linejoin="round"/>
<path d="M113.016 50.9155H115.997C116.329 50.9155 116.658 50.9809 116.965 51.108C117.271 51.2351 117.55 51.4214 117.785 51.6562C118.02 51.891 118.206 52.1698 118.333 52.4766C118.46 52.7834 118.526 53.1122 118.526 53.4443V62.0663H110.487V53.4443C110.487 52.7736 110.753 52.1304 111.227 51.6562C111.702 51.1819 112.345 50.9155 113.016 50.9155Z" fill="#2C49C7" stroke="#000A33" stroke-linecap="round" stroke-linejoin="round"/>
<path d="M116.324 47.8037H113.016V50.9157H116.324V47.8037Z" fill="#000A33" stroke="#000A33" stroke-linecap="round" stroke-linejoin="round"/>
<path d="M116.324 54.2888H111.136V59.4769H116.324V54.2888Z" fill="white" stroke="#000A33" stroke-linecap="round" stroke-linejoin="round"/>
<path d="M122.482 50.9155H125.459C125.791 50.9155 126.12 50.9809 126.427 51.108C126.734 51.2351 127.012 51.4214 127.247 51.6562C127.482 51.891 127.668 52.1698 127.795 52.4766C127.922 52.7834 127.988 53.1122 127.988 53.4443V62.0663H119.954V53.4443C119.954 52.7736 120.22 52.1304 120.694 51.6562C121.168 51.1819 121.812 50.9155 122.482 50.9155Z" fill="#2C49C7" stroke="#000A33" stroke-linecap="round" stroke-linejoin="round"/>
<path d="M125.79 47.8037H122.482V50.9157H125.79V47.8037Z" fill="#000A33" stroke="#000A33" stroke-linecap="round" stroke-linejoin="round"/>
<path d="M125.79 54.2888H120.602V59.4769H125.79V54.2888Z" fill="white" stroke="#000A33" stroke-linecap="round" stroke-linejoin="round"/>
<path d="M131.949 47.8037H134.93C135.601 47.8037 136.244 48.0701 136.718 48.5444C137.192 49.0186 137.459 49.6618 137.459 50.3325V62.071H129.42V50.3325C129.42 49.6618 129.686 49.0186 130.161 48.5444C130.635 48.0701 131.278 47.8037 131.949 47.8037Z" fill="#2C49C7" stroke="#000A33" stroke-linecap="round" stroke-linejoin="round"/>
<path d="M135.257 44.6919H131.949V47.8038H135.257V44.6919Z" fill="#000A33" stroke="#000A33" stroke-linecap="round" stroke-linejoin="round"/>
<path d="M135.256 51.1721H130.068V59.4722H135.256V51.1721Z" fill="white" stroke="#000A33" stroke-linecap="round" stroke-linejoin="round"/>
<path d="M12.0853 130.254H15.0666C15.7373 130.254 16.3805 130.52 16.8547 130.994C17.329 131.469 17.5954 132.112 17.5954 132.782V141.404H9.56592V132.782C9.56591 132.113 9.83105 131.472 10.3033 130.998C10.7755 130.524 11.4163 130.256 12.0853 130.254Z" fill="#2C49C7" stroke="#000A33" stroke-linecap="round" stroke-linejoin="round"/>
<path d="M15.4026 127.142H12.0947V130.254H15.4026V127.142Z" fill="#000A33" stroke="#000A33" stroke-linecap="round" stroke-linejoin="round"/>
<path d="M15.4025 133.622H10.2144V138.81H15.4025V133.622Z" fill="white" stroke="#000A33" stroke-linecap="round" stroke-linejoin="round"/>
<path d="M21.561 130.254H24.5423C25.2129 130.254 25.8561 130.52 26.3304 130.994C26.8046 131.469 27.071 132.112 27.071 132.782V141.404H19.0322V132.782C19.0322 132.45 19.0976 132.121 19.2247 131.815C19.3518 131.508 19.5381 131.229 19.7729 130.994C20.0077 130.759 20.2865 130.573 20.5933 130.446C20.9001 130.319 21.2289 130.254 21.561 130.254Z" fill="#2C49C7" stroke="#000A33" stroke-linecap="round" stroke-linejoin="round"/>
<path d="M24.8689 127.142H21.561V130.254H24.8689V127.142Z" fill="#000A33" stroke="#000A33" stroke-linecap="round" stroke-linejoin="round"/>
<path d="M24.8693 133.622H19.6812V138.81H24.8693V133.622Z" fill="white" stroke="#000A33" stroke-linecap="round" stroke-linejoin="round"/>
<path d="M31.0273 124.286H34.0132C34.6839 124.286 35.3271 124.553 35.8013 125.027C36.2756 125.501 36.542 126.144 36.542 126.815V141.404H28.4985V126.815C28.4985 126.144 28.765 125.501 29.2392 125.027C29.7134 124.553 30.3566 124.286 31.0273 124.286Z" fill="#2C49C7" stroke="#000A33" stroke-linecap="round" stroke-linejoin="round"/>
<path d="M34.3352 121.175H31.0273V124.287H34.3352V121.175Z" fill="#000A33" stroke="#000A33" stroke-linecap="round" stroke-linejoin="round"/>
<path d="M34.3351 127.66H29.147V138.81H34.3351V127.66Z" fill="white" stroke="#000A33" stroke-linecap="round" stroke-linejoin="round"/>
<path d="M40.4941 130.254H43.4754C44.146 130.254 44.7892 130.52 45.2635 130.994C45.7377 131.469 46.0041 132.112 46.0041 132.782V141.404H37.9653V132.782C37.9653 132.112 38.2318 131.469 38.706 130.994C39.1802 130.52 39.8234 130.254 40.4941 130.254Z" fill="#2C49C7" stroke="#000A33" stroke-linecap="round" stroke-linejoin="round"/>
<path d="M43.802 127.142H40.4941V130.254H43.802V127.142Z" fill="#000A33" stroke="#000A33" stroke-linecap="round" stroke-linejoin="round"/>
<path d="M43.8019 133.622H38.6138V138.81H43.8019V133.622Z" fill="white" stroke="#000A33" stroke-linecap="round" stroke-linejoin="round"/>
<path d="M49.9609 130.254H52.9422C53.6128 130.254 54.256 130.52 54.7303 130.994C55.2045 131.469 55.4709 132.112 55.4709 132.782V141.404H47.4321V132.782C47.4321 132.112 47.6985 131.469 48.1728 130.994C48.647 130.52 49.2902 130.254 49.9609 130.254Z" fill="#2C49C7" stroke="#000A33" stroke-linecap="round" stroke-linejoin="round"/>
<path d="M53.2683 127.142H49.9604V130.254H53.2683V127.142Z" fill="#000A33" stroke="#000A33" stroke-linecap="round" stroke-linejoin="round"/>
<path d="M53.2687 133.622H48.0806V138.81H53.2687V133.622Z" fill="white" stroke="#000A33" stroke-linecap="round" stroke-linejoin="round"/>
<path d="M59.4314 127.142H62.4127C63.0833 127.142 63.7265 127.408 64.2008 127.883C64.675 128.357 64.9414 129 64.9414 129.671V141.409H56.8979V129.671C56.8979 129.338 56.9635 129.009 57.0909 128.702C57.2183 128.395 57.4049 128.116 57.6403 127.881C57.8756 127.646 58.1549 127.46 58.4622 127.333C58.7696 127.206 59.0989 127.141 59.4314 127.142Z" fill="#2C49C7" stroke="#000A33" stroke-linecap="round" stroke-linejoin="round"/>
<path d="M62.7395 124.03H59.4316V127.142H62.7395V124.03Z" fill="#000A33" stroke="#000A33" stroke-linecap="round" stroke-linejoin="round"/>
<path d="M62.735 130.51H57.5469V138.811H62.735V130.51Z" fill="white" stroke="#000A33" stroke-linecap="round" stroke-linejoin="round"/>
<path d="M84.6116 130.254H87.5929C88.2636 130.254 88.9068 130.52 89.381 130.994C89.8552 131.469 90.1216 132.112 90.1216 132.782V141.404H82.0688V132.782C82.0688 132.449 82.1347 132.119 82.2627 131.811C82.3906 131.504 82.5781 131.224 82.8144 130.989C83.0507 130.754 83.3312 130.568 83.6396 130.442C83.948 130.316 84.2783 130.252 84.6116 130.254Z" fill="#2C49C7" stroke="#000A33" stroke-linecap="round" stroke-linejoin="round"/>
<path d="M87.9192 127.142H84.6113V130.254H87.9192V127.142Z" fill="#000A33" stroke="#000A33" stroke-linecap="round" stroke-linejoin="round"/>
<path d="M87.9196 133.622H82.7314V138.81H87.9196V133.622Z" fill="white" stroke="#000A33" stroke-linecap="round" stroke-linejoin="round"/>
<path d="M94.0781 130.254H97.0594C97.73 130.254 98.3732 130.52 98.8475 130.994C99.3217 131.469 99.5881 132.112 99.5881 132.782V141.404H91.5493V132.782C91.5493 132.112 91.8157 131.469 92.29 130.994C92.7642 130.52 93.4074 130.254 94.0781 130.254Z" fill="#2C49C7" stroke="#000A33" stroke-linecap="round" stroke-linejoin="round"/>
<path d="M97.386 127.142H94.0781V130.254H97.386V127.142Z" fill="#000A33" stroke="#000A33" stroke-linecap="round" stroke-linejoin="round"/>
<path d="M97.3864 133.622H92.1982V138.81H97.3864V133.622Z" fill="white" stroke="#000A33" stroke-linecap="round" stroke-linejoin="round"/>
<path d="M103.531 124.286H106.512C107.183 124.286 107.826 124.553 108.3 125.027C108.775 125.501 109.041 126.144 109.041 126.815V141.404H101.021V126.815C101.021 126.148 101.285 125.507 101.755 125.034C102.225 124.56 102.864 124.291 103.531 124.286Z" fill="#2C49C7" stroke="#000A33" stroke-linecap="round" stroke-linejoin="round"/>
<path d="M106.857 121.175H103.549V124.287H106.857V121.175Z" fill="#000A33" stroke="#000A33" stroke-linecap="round" stroke-linejoin="round"/>
<path d="M106.857 127.66H101.669V138.81H106.857V127.66Z" fill="white" stroke="#000A33" stroke-linecap="round" stroke-linejoin="round"/>
<path d="M113.016 130.254H115.997C116.329 130.254 116.658 130.319 116.965 130.446C117.271 130.573 117.55 130.759 117.785 130.994C118.02 131.229 118.206 131.508 118.333 131.815C118.46 132.121 118.526 132.45 118.526 132.782V141.404H110.487V132.782C110.487 132.112 110.753 131.469 111.227 130.994C111.702 130.52 112.345 130.254 113.016 130.254Z" fill="#2C49C7" stroke="#000A33" stroke-linecap="round" stroke-linejoin="round"/>
<path d="M116.324 127.142H113.016V130.254H116.324V127.142Z" fill="#000A33" stroke="#000A33" stroke-linecap="round" stroke-linejoin="round"/>
<path d="M116.324 133.622H111.136V138.81H116.324V133.622Z" fill="white" stroke="#000A33" stroke-linecap="round" stroke-linejoin="round"/>
<path d="M122.482 130.254H125.459C125.791 130.254 126.12 130.319 126.427 130.446C126.734 130.573 127.012 130.759 127.247 130.994C127.482 131.229 127.668 131.508 127.795 131.815C127.922 132.121 127.988 132.45 127.988 132.782V141.404H119.954V132.782C119.954 132.112 120.22 131.469 120.694 130.994C121.168 130.52 121.812 130.254 122.482 130.254Z" fill="#2C49C7" stroke="#000A33" stroke-linecap="round" stroke-linejoin="round"/>
<path d="M125.79 127.142H122.482V130.254H125.79V127.142Z" fill="#000A33" stroke="#000A33" stroke-linecap="round" stroke-linejoin="round"/>
<path d="M125.79 133.622H120.602V138.81H125.79V133.622Z" fill="white" stroke="#000A33" stroke-linecap="round" stroke-linejoin="round"/>
<path d="M131.949 127.142H134.93C135.601 127.142 136.244 127.408 136.718 127.883C137.192 128.357 137.459 129 137.459 129.671V141.409H129.42V129.671C129.42 129 129.686 128.357 130.161 127.883C130.635 127.408 131.278 127.142 131.949 127.142Z" fill="#2C49C7" stroke="#000A33" stroke-linecap="round" stroke-linejoin="round"/>
<path d="M135.257 124.03H131.949V127.142H135.257V124.03Z" fill="#000A33" stroke="#000A33" stroke-linecap="round" stroke-linejoin="round"/>
<path d="M135.256 130.51H130.068V138.811H135.256V130.51Z" fill="white" stroke="#000A33" stroke-linecap="round" stroke-linejoin="round"/>
<path d="M17.642 72.396H10.2471L12.0946 88.2683H15.7944L17.642 72.396Z" fill="white" stroke="#000A33" stroke-linecap="round" stroke-linejoin="round"/>
<path d="M11.8008 85.7441L12.0947 88.2682H15.7945L16.0884 85.7441H11.8008Z" fill="#000A33" stroke="#000A33" stroke-linecap="round" stroke-linejoin="round"/>
<path d="M15.2953 75.4612H12.23V83.0381H15.2953V75.4612Z" fill="#2C49C7" stroke="#000A33" stroke-linecap="round" stroke-linejoin="round"/>
<path d="M26.6652 72.396H19.2656L21.1179 88.2683H24.813L26.6652 72.396Z" fill="white" stroke="#000A33" stroke-linecap="round" stroke-linejoin="round"/>
<path d="M20.8242 85.7441L21.1182 88.2682H24.8133L25.1072 85.7441H20.8242Z" fill="#000A33" stroke="#000A33" stroke-linecap="round" stroke-linejoin="round"/>
<path d="M24.3187 75.4612H21.2534V83.0381H24.3187V75.4612Z" fill="#2C49C7" stroke="#000A33" stroke-linecap="round" stroke-linejoin="round"/>
<path d="M35.6838 72.396H28.2842L30.1364 88.2683H33.8316L35.6838 72.396Z" fill="white" stroke="#000A33" stroke-linecap="round" stroke-linejoin="round"/>
<path d="M29.8428 85.7441L30.1367 88.2682H33.8318L34.1304 85.7441H29.8428Z" fill="#000A33" stroke="#000A33" stroke-linecap="round" stroke-linejoin="round"/>
<path d="M33.3368 75.4612H30.2715V83.0381H33.3368V75.4612Z" fill="#2C49C7" stroke="#000A33" stroke-linecap="round" stroke-linejoin="round"/>
<path d="M44.7021 72.396H37.3071L39.1547 88.2683H42.8545L44.7021 72.396Z" fill="white" stroke="#000A33" stroke-linecap="round" stroke-linejoin="round"/>
<path d="M38.8608 85.7441L39.1548 88.2682H42.8546L43.1485 85.7441H38.8608Z" fill="#000A33" stroke="#000A33" stroke-linecap="round" stroke-linejoin="round"/>
<path d="M42.3553 75.4612H39.29V83.0381H42.3553V75.4612Z" fill="#2C49C7" stroke="#000A33" stroke-linecap="round" stroke-linejoin="round"/>
<path d="M54.7009 79.791H46.8813V82.497H54.7009V79.791Z" fill="#000A33" stroke="#000A33" stroke-linecap="round" stroke-linejoin="round"/>
<path d="M55.8906 82.4971H45.6963V88.4504H55.8906V82.4971Z" fill="#2C49C7" stroke="#000A33" stroke-linecap="round" stroke-linejoin="round"/>
<path d="M54.4532 83.7612H47.1235V87.1904H54.4532V83.7612Z" fill="white" stroke="#000A33" stroke-linecap="round" stroke-linejoin="round"/>
<path d="M66.2477 79.791H58.4282V82.497H66.2477V79.791Z" fill="#000A33" stroke="#000A33" stroke-linecap="round" stroke-linejoin="round"/>
<path d="M67.4331 82.4971H57.2388V88.4504H67.4331V82.4971Z" fill="#2C49C7" stroke="#000A33" stroke-linecap="round" stroke-linejoin="round"/>
<path d="M66.001 83.7612H58.6714V87.1904H66.001V83.7612Z" fill="white" stroke="#000A33" stroke-linecap="round" stroke-linejoin="round"/>
<path d="M89.7997 72.396H82.4048L84.2523 88.2683H87.9522L89.7997 72.396Z" fill="white" stroke="#000A33" stroke-linecap="round" stroke-linejoin="round"/>
<path d="M83.959 85.7441L84.2529 88.2682H87.9527L88.2467 85.7441H83.959Z" fill="#000A33" stroke="#000A33" stroke-linecap="round" stroke-linejoin="round"/>
<path d="M87.453 75.4612H84.3877V83.0381H87.453V75.4612Z" fill="#2C49C7" stroke="#000A33" stroke-linecap="round" stroke-linejoin="round"/>
<path d="M98.8229 72.396H91.4233L93.2756 88.2683H96.9707L98.8229 72.396Z" fill="white" stroke="#000A33" stroke-linecap="round" stroke-linejoin="round"/>
<path d="M92.9819 85.7441L93.2759 88.2682H96.971L97.2649 85.7441H92.9819Z" fill="#000A33" stroke="#000A33" stroke-linecap="round" stroke-linejoin="round"/>
<path d="M96.4764 75.4612H93.4111V83.0381H96.4764V75.4612Z" fill="#2C49C7" stroke="#000A33" stroke-linecap="round" stroke-linejoin="round"/>
<path d="M107.842 72.396H100.447L102.294 88.2683H105.994L107.842 72.396Z" fill="white" stroke="#000A33" stroke-linecap="round" stroke-linejoin="round"/>
<path d="M102 85.7441L102.294 88.2682H105.994L106.288 85.7441H102Z" fill="#000A33" stroke="#000A33" stroke-linecap="round" stroke-linejoin="round"/>
<path d="M105.495 75.4612H102.43V83.0381H105.495V75.4612Z" fill="#2C49C7" stroke="#000A33" stroke-linecap="round" stroke-linejoin="round"/>
<path d="M116.86 72.396H109.465L111.313 88.2683H115.013L116.86 72.396Z" fill="white" stroke="#000A33" stroke-linecap="round" stroke-linejoin="round"/>
<path d="M111.019 85.7441L111.313 88.2682H115.013L115.307 85.7441H111.019Z" fill="#000A33" stroke="#000A33" stroke-linecap="round" stroke-linejoin="round"/>
<path d="M114.514 75.4612H111.448V83.0381H114.514V75.4612Z" fill="#2C49C7" stroke="#000A33" stroke-linecap="round" stroke-linejoin="round"/>
<path d="M126.859 79.791H119.039V82.497H126.859V79.791Z" fill="#000A33" stroke="#000A33" stroke-linecap="round" stroke-linejoin="round"/>
<path d="M128.048 82.4971H117.854V88.4504H128.048V82.4971Z" fill="#2C49C7" stroke="#000A33" stroke-linecap="round" stroke-linejoin="round"/>
<path d="M126.616 83.7612H119.286V87.1904H126.616V83.7612Z" fill="white" stroke="#000A33" stroke-linecap="round" stroke-linejoin="round"/>
<path d="M138.406 79.791H130.586V82.497H138.406V79.791Z" fill="#000A33" stroke="#000A33" stroke-linecap="round" stroke-linejoin="round"/>
<path d="M139.591 82.4971H129.397V88.4504H139.591V82.4971Z" fill="#2C49C7" stroke="#000A33" stroke-linecap="round" stroke-linejoin="round"/>
<path d="M138.158 83.7612H130.829V87.1904H138.158V83.7612Z" fill="white" stroke="#000A33" stroke-linecap="round" stroke-linejoin="round"/>
<path d="M147.896 38.8737V35.4958L7.07953 35.4958V38.8737L147.896 38.8737Z" fill="white" stroke="#000A33" stroke-linecap="round" stroke-linejoin="round"/>
<path d="M147.9 65.2109V61.833L7.08345 61.833V65.2109L147.9 65.2109Z" fill="white" stroke="#000A33" stroke-linecap="round" stroke-linejoin="round"/>
<path d="M147.896 91.5527V88.1748L7.07953 88.1748V91.5527L147.896 91.5527Z" fill="white" stroke="#000A33" stroke-linecap="round" stroke-linejoin="round"/>
<path d="M147.896 117.895V114.517L7.07953 114.517V117.895L147.896 117.895Z" fill="white" stroke="#000A33" stroke-linecap="round" stroke-linejoin="round"/>
<path d="M147.9 143.952V140.574H7.08344V143.952H147.9Z" fill="white" stroke="#000A33" stroke-linecap="round" stroke-linejoin="round"/>
<path d="M7.75581 15.574H4.37793V152H7.75581V15.574Z" fill="white" stroke="#000A33" stroke-linecap="round" stroke-linejoin="round"/>
<path d="M78.6728 15.5737H75.2949V152H78.6728V15.5737Z" fill="white" stroke="#000A33" stroke-linecap="round" stroke-linejoin="round"/>
<path d="M149.589 15.574H146.211V152H149.589V15.574Z" fill="white" stroke="#000A33" stroke-linecap="round" stroke-linejoin="round"/>
<path d="M150.938 1.3905H1V15.9098H150.938V1.3905Z" fill="#2C49C7" stroke="#000A33" stroke-linecap="round" stroke-linejoin="round"/>
<path d="M107.039 1.3905H44.9033V15.9098H107.039V1.3905Z" fill="white" stroke="#000A33" stroke-linecap="round" stroke-linejoin="round"/>
<path d="M27.2251 6.95185H24.0851V3.80725H20.8472V6.95185H17.7026V10.1898H20.8472V13.3297H24.0851V10.1898H27.2251V6.95185Z" fill="white"/>
<path d="M133.311 6.95185H130.171V3.80725H126.933V6.95185H123.789V10.1898H126.933V13.3297H130.171V10.1898H133.311V6.95185Z" fill="white"/>
<path d="M54.6261 3.62061C56.2311 3.62061 56.9169 4.55372 56.9169 6.11669V7.35307C56.9169 8.97202 56.1611 9.81649 54.5375 9.81649H53.5344V13.8476H52.396V3.62061H54.6261ZM54.5422 8.7854C55.3913 8.7854 55.7972 8.39349 55.7972 7.41372V6.05604C55.7972 5.12292 55.4613 4.65636 54.6308 4.65636H53.5391V8.7854H54.5422Z" fill="#2C49C7"/>
<path d="M58.9929 9.2193V13.8196H57.8545V3.62061H58.9929V8.2162H61.503V3.62061H62.6414V13.8382H61.503V9.2193H58.9929Z" fill="#2C49C7"/>
<path d="M64.9602 11.7807L64.5683 13.8382H63.5186L65.4734 3.62061H67.139L69.0939 13.8382H67.9555L67.5636 11.7807H64.9602ZM65.1095 10.8009H67.3863L66.2293 4.90364L65.1095 10.8009Z" fill="#2C49C7"/>
<path d="M72.2433 3.62061C73.8529 3.62061 74.5201 4.43708 74.5201 5.95339V6.78853C74.5201 7.91294 74.1282 8.61277 73.2511 8.88804C74.1842 9.16798 74.5388 9.9238 74.5388 11.0202V12.6112C74.5054 13.0304 74.5742 13.4515 74.7394 13.8382H73.587C73.4284 13.4449 73.3645 13.0198 73.4004 12.5972V10.9922C73.4004 9.83982 72.8592 9.47124 71.9121 9.47124H71.1049V13.8382H69.9712V3.62061H72.2433ZM71.9541 8.43548C72.8592 8.43548 73.4004 8.14622 73.4004 7.03581V6.05604C73.4004 5.12292 73.0645 4.65636 72.2153 4.65636H71.1049V8.43548H71.9541Z" fill="#2C49C7"/>
<path d="M79.4842 13.8242H78.3924L76.6988 5.69212V13.8382H75.7051V3.62061H77.296L78.9756 11.7807L80.5946 3.62061H82.1856V13.8382H81.1078V5.62214L79.4842 13.8242Z" fill="#2C49C7"/>
<path d="M84.5088 11.7807L84.1123 13.8382H83.0625L85.0174 3.62061H86.669L88.6239 13.8382H87.4855L87.0889 11.7807H84.5088ZM84.6535 10.8009H86.9303L85.8012 4.90364L84.6535 10.8009Z" fill="#2C49C7"/>
<path d="M94.0219 6.0888V7.02192H92.9441V6.04215C92.9441 5.10903 92.5802 4.56782 91.7451 4.56782C90.9099 4.56782 90.5507 5.12303 90.5507 6.04215V11.4449C90.5507 12.378 90.9286 12.9145 91.7451 12.9145C92.5615 12.9145 92.9441 12.364 92.9441 11.4449V10.1152H94.0219V11.3842C94.0219 12.9332 93.294 13.955 91.7171 13.955C90.1401 13.955 89.4263 12.9332 89.4263 11.3842V6.0888C89.4263 4.53983 90.1541 3.51807 91.7171 3.51807C93.28 3.51807 94.0219 4.55383 94.0219 6.0888Z" fill="#2C49C7"/>
<path d="M96.7095 10.1524L94.5493 3.62061H95.7344L97.3253 8.64077L98.9303 3.62061H100.008L97.8339 10.1524V13.8196H96.7095V10.1524Z" fill="#2C49C7"/>
</svg>
