<svg width="144" height="118" viewBox="0 0 144 118" fill="none" xmlns="http://www.w3.org/2000/svg">
<path d="M112.2 64.5039C117 69.2019 117.804 76.4709 116.793 82.8369C116.766 82.9809 116.541 82.9419 116.541 82.8039C116.541 81.3549 116.586 79.9209 116.58 78.4869L116.508 78.2949C115.254 77.3949 114.108 76.3569 113.391 74.9469C112.587 73.3689 112.272 71.5929 111.66 69.9459C111.603 69.7899 111.771 69.8349 111.882 69.9159C114.801 72.0699 115.731 74.3859 116.568 77.4819C116.551 75.8625 116.381 74.2484 116.061 72.6609C115.431 69.7239 114.183 66.8109 112.071 64.6299C112.002 64.5489 112.125 64.4199 112.2 64.5039Z" fill="#263238"/>
<path d="M111.3 65.0531C110.475 65.0801 109.956 66.4001 109.314 66.7841C109.247 66.8369 109.169 66.8753 109.086 66.8967C109.004 66.9182 108.917 66.9223 108.833 66.9087C108.748 66.8952 108.667 66.8644 108.595 66.8182C108.523 66.7719 108.462 66.7113 108.414 66.6401C107.778 65.7401 108.651 64.6541 109.473 64.0391C108.873 64.2821 108.399 64.7051 107.763 64.8281C107.682 64.8537 107.596 64.8618 107.512 64.8517C107.427 64.8417 107.345 64.8137 107.273 64.7697C107.2 64.7257 107.137 64.6667 107.089 64.5966C107.04 64.5265 107.007 64.4469 106.992 64.3631C106.713 63.1631 108.234 62.6111 109.278 62.5871C108.771 62.2331 107.322 61.2791 108.093 60.8081C108.864 60.3371 110.574 61.7081 111.129 62.1521C111.945 62.8151 112.929 63.8051 112.956 64.8521C112.998 66.0491 111.942 65.3051 111.3 65.0531Z" fill="#2C49C7"/>
<path opacity="0.1" d="M111.3 65.0531C110.475 65.0801 109.956 66.4001 109.314 66.7841C109.247 66.8369 109.169 66.8753 109.086 66.8967C109.004 66.9182 108.917 66.9223 108.833 66.9087C108.748 66.8952 108.667 66.8644 108.595 66.8182C108.523 66.7719 108.462 66.7113 108.414 66.6401C107.778 65.7401 108.651 64.6541 109.473 64.0391C108.873 64.2821 108.399 64.7051 107.763 64.8281C107.682 64.8537 107.596 64.8618 107.512 64.8517C107.427 64.8417 107.345 64.8137 107.273 64.7697C107.2 64.7257 107.137 64.6667 107.089 64.5966C107.04 64.5265 107.007 64.4469 106.992 64.3631C106.713 63.1631 108.234 62.6111 109.278 62.5871C108.771 62.2331 107.322 61.2791 108.093 60.8081C108.864 60.3371 110.574 61.7081 111.129 62.1521C111.945 62.8151 112.929 63.8051 112.956 64.8521C112.998 66.0491 111.942 65.3051 111.3 65.0531Z" fill="black"/>
<path d="M111.546 65.2538C110.49 64.7738 108.462 65.4668 108.288 65.0678C107.94 64.2518 109.56 63.6968 110.436 63.5888C109.629 63.3698 108.087 63.0218 108.132 62.2448C108.192 61.2968 110.499 62.1128 111.669 63.0068C113.142 64.1378 113.133 65.2268 112.89 65.4458C112.554 65.7428 111.72 65.3348 111.546 65.2538Z" fill="#2C49C7"/>
<path d="M123.135 64.039C118.161 68.539 117.081 75.784 117.849 82.183C117.87 82.327 118.095 82.2971 118.101 82.1621C118.155 80.713 118.167 79.276 118.224 77.845C118.254 77.782 118.278 77.722 118.305 77.656C119.592 76.795 120.783 75.8111 121.548 74.4281C122.409 72.883 122.793 71.128 123.468 69.499C123.531 69.343 123.36 69.3821 123.246 69.4601C120.246 71.5001 119.232 73.78 118.275 76.84C118.355 75.2218 118.587 73.6147 118.968 72.04C119.709 69.127 121.068 66.265 123.258 64.168C123.339 64.09 123.222 63.958 123.135 64.039Z" fill="#263238"/>
<path d="M124.017 64.6208C124.839 64.6808 125.307 66.0188 125.934 66.4208C126 66.4784 126.076 66.5216 126.16 66.5476C126.243 66.5736 126.331 66.5818 126.417 66.5716C126.504 66.5614 126.587 66.5331 126.662 66.4885C126.737 66.4439 126.802 66.384 126.852 66.3128C127.521 65.4488 126.69 64.3178 125.892 63.6728C126.471 63.9368 126.942 64.3808 127.569 64.5248C127.649 64.5542 127.735 64.5661 127.82 64.5598C127.905 64.5535 127.988 64.5291 128.063 64.4882C128.138 64.4473 128.203 64.3909 128.255 64.3227C128.306 64.2545 128.342 64.1761 128.361 64.0928C128.685 62.8928 127.185 62.2928 126.144 62.2268C126.663 61.8968 128.148 60.9938 127.395 60.4958C126.642 59.9978 124.881 61.2968 124.308 61.7258C123.468 62.3558 122.457 63.3068 122.382 64.3418C122.289 65.5538 123.372 64.8488 124.017 64.6208Z" fill="#2C49C7"/>
<path opacity="0.1" d="M124.017 64.6208C124.839 64.6808 125.307 66.0188 125.934 66.4208C126 66.4784 126.076 66.5216 126.16 66.5476C126.243 66.5736 126.331 66.5818 126.417 66.5716C126.504 66.5614 126.587 66.5331 126.662 66.4885C126.737 66.4439 126.802 66.384 126.852 66.3128C127.521 65.4488 126.69 64.3178 125.892 63.6728C126.471 63.9368 126.942 64.3808 127.569 64.5248C127.649 64.5542 127.735 64.5661 127.82 64.5598C127.905 64.5535 127.988 64.5291 128.063 64.4882C128.138 64.4473 128.203 64.3909 128.255 64.3227C128.306 64.2545 128.342 64.1761 128.361 64.0928C128.685 62.8928 127.185 62.2928 126.144 62.2268C126.663 61.8968 128.148 60.9938 127.395 60.4958C126.642 59.9978 124.881 61.2968 124.308 61.7258C123.468 62.3558 122.457 63.3068 122.382 64.3418C122.289 65.5538 123.372 64.8488 124.017 64.6208Z" fill="black"/>
<path d="M123.771 64.816C124.842 64.375 126.843 65.143 127.029 64.75C127.41 63.952 125.814 63.331 124.944 63.19C125.757 63.004 127.311 62.716 127.293 61.936C127.272 60.985 124.932 61.714 123.732 62.566C122.217 63.637 122.184 64.726 122.421 64.966C122.742 65.266 123.6 64.9 123.771 64.816Z" fill="#2C49C7"/>
<path d="M118.05 75.9549C117.715 78.3682 117.198 80.753 116.505 83.0889C116.496 83.135 116.469 83.1756 116.43 83.2018C116.391 83.228 116.343 83.2375 116.297 83.2284C116.251 83.2192 116.21 83.1921 116.184 83.153C116.158 83.1139 116.148 83.066 116.157 83.0199C116.484 80.8209 117.081 78.6639 117.408 76.4649C117.763 74.2406 117.891 71.986 117.789 69.7359C117.579 66.0309 116.574 62.0889 114.156 59.1909C114.102 59.1219 114.216 59.0259 114.27 59.0889C119.109 64.7319 118.341 71.6499 118.335 72.2709C119.022 69.9339 119.727 67.2579 122.319 64.8789C122.43 64.7739 122.517 64.8249 122.499 64.9989C122.037 69.3309 120.831 71.5989 118.32 73.9089C118.248 74.5959 118.158 75.2799 118.05 75.9549Z" fill="#263238"/>
<path d="M114.111 59.839C113.241 59.452 112.041 60.562 111.18 60.637C110.724 60.679 110.385 60.499 110.307 60.037C110.094 58.792 111.552 58.093 112.707 57.871C111.975 57.826 111.255 58.021 110.535 57.826C110.438 57.813 110.344 57.7792 110.261 57.7268C110.178 57.6744 110.107 57.6047 110.053 57.5224C109.999 57.4401 109.964 57.3472 109.949 57.2499C109.934 57.1527 109.941 57.0535 109.968 56.959C110.289 55.558 112.137 55.759 113.235 56.263C112.887 55.645 111.864 53.92 112.899 53.821C113.934 53.722 115.023 55.999 115.374 56.746C115.887 57.844 116.4 59.362 115.917 60.454C115.365 61.726 114.645 60.424 114.111 59.839Z" fill="#2C49C7"/>
<path opacity="0.1" d="M114.111 59.839C113.241 59.452 112.041 60.562 111.18 60.637C110.724 60.679 110.385 60.499 110.307 60.037C110.094 58.792 111.552 58.093 112.707 57.871C111.975 57.826 111.255 58.021 110.535 57.826C110.438 57.813 110.344 57.7792 110.261 57.7268C110.178 57.6744 110.107 57.6047 110.053 57.5224C109.999 57.4401 109.964 57.3472 109.949 57.2499C109.934 57.1527 109.941 57.0535 109.968 56.959C110.289 55.558 112.137 55.759 113.235 56.263C112.887 55.645 111.864 53.92 112.899 53.821C113.934 53.722 115.023 55.999 115.374 56.746C115.887 57.844 116.4 59.362 115.917 60.454C115.365 61.726 114.645 60.424 114.111 59.839Z" fill="black"/>
<path d="M114.258 60.172C113.403 59.143 110.958 58.837 110.976 58.336C111.021 57.316 112.983 57.553 113.946 57.883C113.22 57.25 111.792 56.113 112.233 55.33C112.77 54.376 114.756 56.383 115.518 57.904C116.478 59.815 115.92 60.94 115.557 61.045C115.059 61.186 114.399 60.34 114.258 60.172Z" fill="#2C49C7"/>
<path d="M121.233 77.2598L123.369 93.5678H110.379C110.646 92.1218 113.064 77.2388 113.064 77.2388L121.233 77.2598Z" fill="#2C49C7"/>
<path d="M5.01294 93.544L21.0089 93.472L37.0049 93.445L68.9999 93.397L100.992 93.445L116.991 93.472L132.987 93.544L116.991 93.619L100.992 93.646L68.9999 93.694L37.0049 93.646L21.0089 93.619L5.01294 93.544Z" fill="#263238"/>
<path d="M35.0311 70.2522C36.704 71.6486 38.5225 72.8606 40.4551 73.8672C37.7821 68.9892 39.2131 58.5912 39.4561 60.1122C40.6111 67.3812 44.9611 75.6012 46.8541 76.1472C46.8651 76.1455 46.8762 76.1455 46.8871 76.1472C52.0081 77.1762 56.8231 76.3392 60.9301 74.7342C60.9323 74.7264 60.9323 74.7181 60.9301 74.7102C57.4141 69.1482 58.5541 58.5522 58.7641 59.2212C61.0501 66.4002 66.7411 70.9512 67.8001 71.0292C72.0001 68.0712 74.3581 64.9662 73.8331 64.5882C70.0201 61.8252 67.1611 55.2882 64.6681 48.4302C62.2021 41.6652 61.2781 31.8132 57.5041 25.6452C54.0481 19.9962 46.2631 18.3252 41.5501 20.6682C29.1871 26.8002 32.7001 68.3142 35.0311 70.2522Z" fill="#263238"/>
<path d="M42.3869 20.3022C41.3594 20.6597 40.4167 21.2255 39.6179 21.9642C38.8364 22.6649 38.1223 23.4373 37.4849 24.2712C36.2845 25.931 35.278 27.7226 34.4849 29.6112C32.8499 33.3342 31.9589 40.8282 31.5029 44.7942C31.1175 48.7749 31.1175 52.7836 31.5029 56.7643C31.5809 57.7603 31.7279 58.7502 31.8389 59.7432L32.2769 62.7132L32.8469 65.6652L33.5099 68.5992L33.0449 65.6413L32.6519 62.6742L32.3189 59.7072C32.2439 58.7142 32.1329 57.7272 32.0879 56.7342C31.7947 52.7811 31.8499 48.8097 32.2529 44.8662C32.6369 40.9302 33.5399 33.5022 35.0159 29.7882C35.7399 27.9083 36.6716 26.1152 37.7939 24.4422C38.3773 23.5949 39.0392 22.8044 39.7709 22.0812C40.1458 21.7173 40.5468 21.3814 40.9709 21.0762C41.4033 20.7515 41.8802 20.4908 42.3869 20.3022Z" fill="#263238"/>
<path d="M74.4001 63.55C73.3045 62.1243 72.2841 60.6423 71.3431 59.11C70.3861 57.61 69.4921 56.062 68.6851 54.49C67.8781 52.918 67.1221 51.328 66.4831 49.69C65.8441 48.052 65.2621 46.405 64.6471 44.761C63.3811 41.482 62.1721 34.666 60.6901 31.447C59.9401 29.839 59.1571 28.243 58.2541 26.695C57.7967 25.9165 57.2959 25.1644 56.7541 24.442C56.2214 23.6771 55.5373 23.0297 54.7441 22.54C55.481 23.0801 56.1064 23.7576 56.5861 24.535C57.0755 25.2755 57.5232 26.0427 57.9271 26.833C58.7551 28.399 59.4721 30.007 60.1531 31.633C61.5181 34.873 62.7271 41.677 63.9391 44.968C64.5751 46.609 65.1721 48.25 65.8441 49.891C66.5176 51.5382 67.2942 53.1414 68.1691 54.691C69.919 57.8611 72.0083 60.8316 74.4001 63.55Z" fill="#263238"/>
<path d="M44.6762 60.9489C47.9042 68.1999 60.5342 91.5489 68.3282 92.9529C73.4282 93.8709 93.8732 91.1529 97.2302 86.1699C98.6942 84.0009 95.5622 69.3699 92.8502 70.0389C90.1382 70.7079 73.7732 73.4859 71.7332 72.9729C69.6932 72.4599 53.9342 55.5729 48.1262 51.4569C38.1002 44.3499 42.9392 57.0459 44.6762 60.9489Z" fill="#EB9481"/>
<path d="M86.6069 69.2019L87.8369 91.3299C87.8369 91.3299 71.6939 94.8789 64.6469 92.4459C56.0939 89.4909 43.5749 62.9949 41.8469 58.6389C39.0329 51.4899 39.8129 47.1639 43.7999 48.2199C45.3479 48.6189 47.3999 49.8399 49.8839 52.0389C52.4969 54.3309 67.5059 69.2019 72.2429 72.0099C74.9039 73.5819 86.6069 69.2019 86.6069 69.2019Z" fill="#2C49C7"/>
<path d="M77.952 87.5593C77.5178 87.7148 77.1077 87.9309 76.734 88.2013C77.1929 88.165 77.6444 88.064 78.075 87.9013C78.5096 87.7479 78.9198 87.5326 79.293 87.2623C78.834 87.2958 78.3823 87.3958 77.952 87.5593ZM65.79 70.1773C65.3563 70.3305 64.9471 70.5458 64.575 70.8163C65.4954 70.73 66.377 70.4031 67.131 69.8683C66.6714 69.906 66.2198 70.0101 65.79 70.1773ZM53.52 59.6773C53.0858 59.8328 52.6757 60.0489 52.302 60.3193C53.2232 60.2324 54.1056 59.9056 54.861 59.3713C54.4019 59.4081 53.9504 59.5102 53.52 59.6743V59.6773ZM62.439 83.4673C62.0046 83.6211 61.5945 83.8363 61.221 84.1063C62.1414 84.02 63.023 83.6931 63.777 83.1583C63.3185 83.1947 62.8678 83.2978 62.439 83.4643V83.4673ZM76.713 74.9383C76.2785 75.0932 75.8684 75.3094 75.495 75.5803C75.9539 75.544 76.4054 75.443 76.836 75.2803C77.2706 75.1269 77.6808 74.9116 78.054 74.6413C77.5951 74.6738 77.1434 74.7729 76.713 74.9353V74.9383ZM55.278 71.0683C54.85 71.2251 54.446 71.4412 54.078 71.7103C54.5369 71.674 54.9884 71.573 55.419 71.4103C55.8476 71.2546 56.2517 71.0384 56.619 70.7683C56.1603 70.8036 55.7088 70.9036 55.278 71.0653V71.0683ZM87.378 83.2873C87.327 83.0833 87.261 82.8823 87.192 82.6873C87.0365 82.2531 86.8204 81.843 86.55 81.4693C86.5849 81.9284 86.6859 82.3801 86.85 82.8103C86.9884 83.1975 87.1738 83.5663 87.402 83.9083L87.378 83.2873ZM70.419 84.5203C70.2646 84.0862 70.0494 83.6761 69.78 83.3023C69.8162 83.7612 69.9172 84.2127 70.08 84.6433C70.2344 85.078 70.4506 85.4882 70.722 85.8613C70.6907 85.4015 70.5927 84.9488 70.431 84.5173L70.419 84.5203ZM59.7 65.5693C59.5445 65.136 59.3283 64.7269 59.058 64.3543C59.0943 64.8132 59.1953 65.2647 59.358 65.6953C59.5122 66.1292 59.7285 66.5384 60 66.9103C59.9653 66.4511 59.8642 65.9995 59.7 65.5693ZM47.883 53.9353C47.7292 53.5009 47.514 53.0907 47.244 52.7173C47.3303 53.6377 47.6572 54.5192 48.192 55.2733C48.1498 54.8139 48.0407 54.3631 47.868 53.9353H47.883ZM64.605 90.1003C64.1926 89.8979 63.753 89.7565 63.3 89.6803C63.6511 89.9778 64.0431 90.2233 64.464 90.4093C64.8804 90.607 65.3229 90.7444 65.778 90.8173C65.4231 90.5238 65.0281 90.2823 64.605 90.1003ZM79.326 80.9953C78.9097 80.7979 78.4672 80.6615 78.012 80.5903C78.7271 81.177 79.5818 81.5687 80.493 81.7273C80.1406 81.4261 79.7478 81.1757 79.326 80.9833V80.9953ZM74.478 93.1483C74.0621 92.9493 73.6195 92.8118 73.164 92.7403C73.3863 92.935 73.6298 93.1041 73.89 93.2443L74.598 93.2053L74.478 93.1483ZM62.574 75.8833C62.1581 75.6843 61.7155 75.5468 61.26 75.4753C61.9736 76.0625 62.8275 76.4543 63.738 76.6123C63.3877 76.3105 62.9957 76.0609 62.574 75.8713V75.8833ZM44.574 60.2623C44.1581 60.0633 43.7155 59.9258 43.26 59.8543C43.6111 60.1518 44.0031 60.3973 44.424 60.5833C44.8404 60.781 45.2829 60.9184 45.738 60.9913C45.3892 60.6905 44.9993 60.441 44.58 60.2503L44.574 60.2623ZM55.734 79.5343C55.5351 79.95 55.3987 80.3928 55.329 80.8483C55.6261 80.4958 55.8716 80.1029 56.058 79.6813C56.2544 79.2644 56.3917 78.8221 56.466 78.3673C56.1711 78.7164 55.9267 79.1052 55.74 79.5223L55.734 79.5343ZM49.734 67.1623C49.5351 67.578 49.3987 68.0208 49.329 68.4763C49.6261 68.1238 49.8716 67.7309 50.058 67.3093C50.2544 66.8924 50.3917 66.4501 50.466 65.9953C50.1732 66.3453 49.9299 66.7339 49.743 67.1503L49.734 67.1623ZM68.829 77.0983C68.6355 77.5114 68.5012 77.9497 68.43 78.4003C68.7296 78.0502 68.9762 77.658 69.162 77.2363C69.3584 76.8194 69.4957 76.3771 69.57 75.9223C69.271 76.2729 69.0245 76.6649 68.838 77.0863L68.829 77.0983ZM40.416 53.8843C40.446 54.0493 40.479 54.2143 40.518 54.3853C40.6617 54.0493 40.7625 53.6965 40.818 53.3353C40.6709 53.5019 40.5394 53.6817 40.425 53.8723L40.416 53.8843Z" fill="white"/>
<path d="M83.7988 91C83.5168 87.736 82.8598 74.335 82.9138 71.428C82.9138 71.227 83.0458 71.182 83.0698 71.392C84.1438 81.154 83.8138 87.769 83.9248 90.985C83.9278 91.057 83.8048 91.075 83.7988 91Z" fill="#263238"/>
<path opacity="0.1" d="M41.8589 58.6362C43.5689 62.9922 56.0939 89.4912 64.6589 92.4432C66.7589 93.1722 69.6989 93.3642 72.7589 93.2832L43.2839 48.1002C42.4349 47.9712 41.7539 48.1152 41.2589 48.5112C39.6689 49.7682 39.8219 53.4702 41.8589 58.6362Z" fill="black"/>
<path d="M12.501 93.5172L56.823 93.4002L54.372 78.1602C54.372 78.1602 57.876 73.9062 57.213 69.2922C56.487 64.2372 47.37 51.4212 46.605 50.6922C43.518 47.7942 40.251 47.2752 37.113 48.3192C22.614 57.4512 12.501 93.5172 12.501 93.5172Z" fill="#2C49C7"/>
<path d="M15.963 84.7422C15.7064 84.8389 15.4568 84.9532 15.216 85.0842L15.126 85.3392C15.453 85.2792 15.7742 85.1908 16.086 85.0752C16.521 84.9216 16.9313 84.7053 17.304 84.4332C16.8444 84.4709 16.3927 84.575 15.963 84.7422ZM31.977 55.6422C31.5489 55.7991 31.145 56.0152 30.777 56.2842C31.2349 56.248 31.6854 56.147 32.115 55.9842C32.55 55.8306 32.9603 55.6143 33.333 55.3422C32.8693 55.3752 32.4127 55.4741 31.977 55.6362V55.6422ZM52.89 59.9502C52.6798 60.0546 52.479 60.1771 52.29 60.3162C52.5384 60.3011 52.7847 60.2609 53.025 60.1962C52.989 60.1152 52.938 60.0342 52.89 59.9502ZM41.472 66.5832C41.0379 66.7377 40.6278 66.9528 40.254 67.2222C41.1752 67.1354 42.0575 66.8085 42.813 66.2742C42.3534 66.3119 41.9017 66.416 41.472 66.5832ZM35.772 83.9382C35.3376 84.092 34.9274 84.3072 34.554 84.5772C35.0129 84.541 35.4644 84.44 35.895 84.2772C36.3236 84.1216 36.7277 83.9054 37.095 83.6352C36.6448 83.673 36.2023 83.775 35.781 83.9382H35.772ZM55.272 71.0652C54.8439 71.2221 54.44 71.4382 54.072 71.7072C54.5309 71.671 54.9824 71.57 55.413 71.4072C55.8416 71.2516 56.2457 71.0354 56.613 70.7652C56.1561 70.802 55.7067 70.903 55.278 71.0652H55.272ZM26.19 71.8392C25.762 71.995 25.3581 72.2101 24.99 72.4782C25.9104 72.392 26.7919 72.065 27.546 71.5302C27.0834 71.5671 26.6286 71.6712 26.196 71.8392H26.19ZM48.051 83.4642C47.6166 83.618 47.2064 83.8332 46.833 84.1032C47.2919 84.067 47.7434 83.966 48.174 83.8032C48.6075 83.6483 49.0167 83.4321 49.389 83.1612C48.9327 83.1973 48.484 83.2993 48.057 83.4642H48.051ZM36.3 49.1712L36.21 48.9492C36.111 49.0182 36.015 49.0902 35.91 49.1622C35.928 49.2072 35.943 49.2492 35.958 49.2942C36.1134 49.7248 36.3296 50.1309 36.6 50.5002C36.5626 50.0454 36.4616 49.598 36.3 49.1712ZM25.236 84.3732C25.0815 83.9391 24.8664 83.529 24.597 83.1552C24.6838 84.0764 25.0107 84.9588 25.545 85.7142C25.5076 85.2546 25.4035 84.8029 25.236 84.3732ZM41.172 77.4342C41.0162 77.0063 40.8011 76.6023 40.533 76.2342C40.6192 77.1546 40.9462 78.0362 41.481 78.7902C41.4447 78.3256 41.3406 77.8687 41.172 77.4342ZM35.535 62.4762C35.3794 62.0429 35.1633 61.6339 34.893 61.2612C34.9843 62.1805 35.3107 63.0608 35.841 63.8172C35.8028 63.358 35.6998 62.9065 35.535 62.4762ZM55.119 87.9192C54.9664 87.4843 54.7511 87.074 54.48 86.7012C54.5162 87.1601 54.6172 87.6116 54.78 88.0422C54.9349 88.4758 55.1511 88.8849 55.422 89.2572C55.3865 88.7989 55.2845 88.3481 55.119 87.9192ZM47.868 53.9352C47.7142 53.5008 47.499 53.0907 47.229 52.7172C47.3152 53.6376 47.6422 54.5192 48.177 55.2732C48.1396 54.8146 48.0355 54.3638 47.868 53.9352ZM30.873 78.6132C30.4567 78.4159 30.0141 78.2795 29.559 78.2082C30.274 78.7949 31.1287 79.1866 32.04 79.3452C31.6868 79.0483 31.294 78.8019 30.873 78.6132ZM46.614 93.0762C46.7669 93.2093 46.9305 93.3297 47.103 93.4362H47.817C47.4348 93.2606 47.0298 93.1394 46.614 93.0762ZM20.61 90.5082C20.1936 90.3105 19.7511 90.1731 19.296 90.1002C19.6472 90.3999 20.0403 90.6465 20.463 90.8322C20.8787 91.029 21.32 91.1663 21.774 91.2402C21.4238 90.9406 21.0317 90.694 20.61 90.5082ZM47.457 74.9412C47.0418 74.7431 46.6003 74.6057 46.146 74.5332C46.4961 74.8328 46.8883 75.0794 47.31 75.2652C47.7265 75.4619 48.169 75.5983 48.624 75.6702C48.2715 75.3731 47.8786 75.1277 47.457 74.9412ZM44.58 60.2412C44.1641 60.0422 43.7215 59.9048 43.266 59.8332C43.617 60.1308 44.009 60.3763 44.43 60.5622C44.8464 60.7599 45.2888 60.8973 45.744 60.9702C45.392 60.6764 45.0001 60.434 44.58 60.2502V60.2412ZM27.318 64.3092C27.119 64.7251 26.9815 65.1678 26.91 65.6232C27.2078 65.2713 27.4533 64.8782 27.639 64.4562C27.8384 64.0415 27.9759 63.5998 28.047 63.1452C27.7487 63.499 27.5032 63.8941 27.318 64.3182V64.3092ZM41.226 88.4262C41.0293 88.8428 40.8929 89.2852 40.821 89.7402C41.1166 89.3965 41.362 89.0127 41.55 88.6002C41.7477 88.1838 41.8851 87.7414 41.958 87.2862C41.6622 87.6337 41.4159 88.0204 41.226 88.4352V88.4262ZM49.743 67.1412C49.5441 67.5569 49.4076 67.9997 49.338 68.4552C49.6351 68.1027 49.8805 67.7098 50.067 67.2882C50.2633 66.8713 50.4007 66.429 50.475 65.9742C50.1773 66.3302 49.9309 66.726 49.743 67.1502V67.1412ZM30.708 89.6652C30.5084 90.0882 30.3709 90.5379 30.3 91.0002C30.5996 90.6501 30.8462 90.2579 31.032 89.8362C31.2287 89.4197 31.3651 88.9772 31.437 88.5222C31.1409 88.87 30.8955 89.2578 30.708 89.6742V89.6652ZM21.084 78.6432C20.8859 79.0595 20.7485 79.502 20.676 79.9572C21.2657 79.2441 21.6578 78.3885 21.813 77.4762C21.5159 77.8287 21.2704 78.2216 21.084 78.6432ZM34.638 71.5002C34.4386 71.9149 34.3011 72.3566 34.23 72.8112C34.5275 72.4602 34.773 72.0682 34.959 71.6472C35.1567 71.2308 35.2941 70.7884 35.367 70.3332C35.0699 70.6857 34.8244 71.0786 34.638 71.5002ZM40.095 54.4812C39.8955 54.8959 39.7581 55.3376 39.687 55.7922C39.9845 55.4412 40.23 55.0492 40.416 54.6282C40.6137 54.2118 40.7511 53.7694 40.824 53.3142C40.5262 53.6695 40.2807 54.0655 40.095 54.4902V54.4812Z" fill="white"/>
<path d="M51.4141 56.8661C52.2721 58.2941 53.2141 59.6711 54.1141 61.0661C53.7511 60.0701 53.3971 59.0741 53.0011 58.0931C52.9999 58.0892 53.0001 58.0851 53.0015 58.0813C53.0029 58.0775 53.0056 58.0743 53.0091 58.0723C53.0125 58.0702 53.0166 58.0693 53.0206 58.0698C53.0246 58.0704 53.0283 58.0722 53.0311 58.0751C53.6611 59.2585 54.1745 60.5003 54.5641 61.7831C55.237 62.8417 55.8383 63.9442 56.3641 65.0831C57.0095 66.4497 57.4154 67.917 57.5641 69.4211C57.6607 70.9365 57.4463 72.4556 56.9341 73.8851C56.3308 75.5257 55.5797 77.1082 54.6901 78.6131C54.5761 78.8141 54.2971 78.6281 54.3901 78.4271C55.6471 75.7451 57.0361 72.9251 56.9101 69.8861C56.7841 66.8471 55.3861 64.1111 54.0151 61.5041C53.2143 59.915 52.3124 58.3788 51.3151 56.9051C51.2731 56.8631 51.3751 56.8001 51.4141 56.8661Z" fill="#263238"/>
<path d="M65.4181 90.25L64.5181 95.287H92.4541C93.2253 95.2623 93.9656 94.9777 94.5548 94.4795C95.1441 93.9812 95.5476 93.2985 95.7001 92.542L96.1021 90.25H65.4181Z" fill="#DBDBDB"/>
<path d="M62.2708 92.542L62.6758 90.25H68.1628L67.7578 92.542C67.6071 93.296 67.2064 93.9772 66.6207 94.4753C66.0349 94.9734 65.2982 95.2594 64.5298 95.287C64.1888 95.296 63.85 95.2284 63.5385 95.0893C63.227 94.9502 62.9507 94.743 62.7298 94.483C62.5161 94.2127 62.3643 93.8988 62.285 93.5634C62.2057 93.2281 62.2008 92.8794 62.2708 92.542Z" fill="#EBEBEB"/>
<path d="M74.4959 54.328L67.2749 95.287H92.4749C93.2425 95.2577 93.9779 94.971 94.5629 94.4731C95.1478 93.9752 95.5483 93.2951 95.6999 92.542L102.921 51.583H77.7209C76.9539 51.5975 76.2166 51.8823 75.6389 52.387C75.0461 52.8834 74.6425 53.5689 74.4959 54.328Z" fill="#DBDBDB"/>
<path d="M77.7241 51.583L76.2661 59.857H106.944L107.919 54.328C108.186 52.813 107.172 51.583 105.66 51.583H77.7241Z" fill="#EBEBEB"/>
<path d="M74.496 54.328L73.521 59.857H79.008L79.983 54.328C80.25 52.813 79.239 51.583 77.724 51.583C76.957 51.5975 76.2197 51.8823 75.642 52.387C75.0481 52.8829 74.6433 53.5684 74.496 54.328Z" fill="#DBDBDB"/>
<path d="M99.2102 67.4233C100.236 70.3483 103.194 74.1553 103.227 76.4593C103.254 77.0264 103.098 77.5871 102.782 78.0587C102.466 78.5304 102.007 78.8878 101.472 79.0783C101.472 79.0783 103.62 80.4493 103.305 82.5433C103.143 83.6203 101.277 84.3073 101.277 84.3073C101.277 84.3073 102.951 85.4803 102.555 87.3253C102.24 88.7953 100.419 89.2633 100.419 89.2633C100.419 89.2633 101.499 91.1383 100.698 92.5333C99.0722 95.3593 86.2412 93.9973 84.7622 89.0593C84.0722 86.7583 87.1892 87.2593 87.1892 87.2593C87.1892 87.2593 82.8812 85.4593 83.0972 82.8013C83.3132 80.1433 87.3182 81.0463 87.3182 81.0463C87.3182 81.0463 83.1602 79.2613 83.6582 76.5313C84.1802 73.6933 88.0352 75.2773 88.0352 75.2773C88.0352 75.2773 85.3862 73.0423 86.2352 71.0413C87.6542 67.7413 92.6012 72.6073 95.4932 72.2413L97.5422 67.7413L99.2102 67.4233Z" fill="#EB9481"/>
<path d="M101.352 71.7401C100.623 68.8871 104.382 65.8601 104.076 63.0401C103.665 59.2151 99.0659 62.4401 97.5539 67.7651L97.1069 72.1001L101.352 71.7401Z" fill="#EB9481"/>
<path d="M100.143 89.3799C100.152 89.3799 100.16 89.3834 100.166 89.3896C100.172 89.3957 100.176 89.4041 100.176 89.4129C100.176 89.4216 100.172 89.43 100.166 89.4362C100.16 89.4424 100.152 89.4459 100.143 89.4459C95.8108 90.0279 90.8788 89.3379 87.0088 87.2529C86.8798 87.1869 86.9368 86.9529 87.0928 86.9979C91.4998 88.3839 95.5108 89.2599 100.143 89.3799Z" fill="#263238"/>
<path d="M101.337 84.3403C101.388 84.3403 101.385 84.4243 101.337 84.4303C96.8698 85.0063 91.3348 84.0763 87.1558 81.1483C87.0148 81.0493 86.9848 80.8153 87.1558 80.9173C90.0808 82.6543 97.1668 84.2533 101.337 84.3403Z" fill="#263238"/>
<path d="M87.798 74.971C91.911 77.623 96.462 78.688 101.298 79.108C101.361 79.108 101.346 79.204 101.298 79.213C98.88 79.651 95.829 79.06 93.498 78.4C91.3184 77.8299 89.3269 76.6971 87.723 75.115C87.639 75.052 87.708 74.917 87.798 74.971Z" fill="#263238"/>
<path d="M39.3361 48.1152C39.3961 48.8952 42.2341 54.3282 45.6961 54.6972C46.8241 54.8142 47.7421 48.6972 47.7421 48.6972L47.9161 48.2622L50.3161 42.1452L43.6111 36.2232L42.6331 35.4282C42.6331 35.4282 42.0901 37.1442 41.4331 39.2862C41.4031 39.3852 41.3701 39.4872 41.3401 39.5862C41.3101 39.6852 41.2591 39.8202 41.2261 39.9342C41.1241 40.2522 41.0221 40.5792 40.9261 40.9062C40.8511 41.1552 40.7791 41.3952 40.7101 41.6592C40.6411 41.9232 40.5691 42.1812 40.4941 42.4422C39.8011 45.0492 39.3151 47.8002 39.3361 48.1152Z" fill="#EB9481"/>
<path d="M41.4238 39.2769C41.7896 41.1546 42.5599 42.9301 43.6809 44.4802C44.802 46.0302 46.2471 47.3176 47.9158 48.2529L50.3158 42.1359L43.6108 36.2139L42.6328 35.4189C42.6328 35.4189 42.0808 37.1349 41.4238 39.2769Z" fill="#263238"/>
<path d="M60.9841 34.8519C59.4661 46.2759 52.4521 46.6569 49.9891 46.3269C47.7541 46.0269 40.1761 44.7219 40.5061 33.2019C40.8361 21.6819 46.6291 18.7749 51.7801 19.1889C56.9311 19.6029 62.5051 23.4249 60.9841 34.8519Z" fill="#EB9481"/>
<path d="M59.3431 33.6251C59.0936 33.5322 58.8493 33.4261 58.6111 33.3071C58.3386 33.2325 58.0988 33.0688 57.9301 32.8421C57.89 32.761 57.8782 32.6687 57.8967 32.58C57.9152 32.4914 57.9629 32.4115 58.0321 32.3531C58.1852 32.2566 58.3612 32.2026 58.5421 32.1968C58.723 32.191 58.9021 32.2336 59.0611 32.3201C59.41 32.4465 59.6996 32.6977 59.8741 33.0251C59.9095 33.1023 59.9217 33.1881 59.9093 33.272C59.8968 33.356 59.8602 33.4345 59.804 33.4981C59.7477 33.5616 59.6742 33.6075 59.5924 33.63C59.5106 33.6526 59.424 33.6509 59.3431 33.6251Z" fill="#263238"/>
<path d="M51.618 31.6629C51.8828 31.6764 52.1482 31.6764 52.413 31.6629C52.6944 31.6996 52.9801 31.6427 53.226 31.5009C53.2939 31.4415 53.3403 31.3615 53.3582 31.2731C53.3761 31.1848 53.3644 31.093 53.325 31.0119C53.2218 30.8627 53.0806 30.7437 52.9161 30.6673C52.7516 30.5908 52.5696 30.5596 52.389 30.5769C52.019 30.5568 51.6545 30.6743 51.366 30.9069C51.3046 30.9642 51.2609 31.0379 51.2401 31.1192C51.2194 31.2006 51.2225 31.2862 51.249 31.3659C51.2756 31.4456 51.3245 31.5159 51.3899 31.5686C51.4553 31.6212 51.5345 31.654 51.618 31.6629Z" fill="#263238"/>
<path d="M52.8361 34.1769C52.8361 34.1439 52.7701 34.2009 52.7641 34.2339C52.6501 35.0109 52.3891 35.8809 51.6421 36.0099C51.6211 36.0099 51.6151 36.0549 51.6421 36.0549C52.5151 36.0999 52.8511 34.9299 52.8361 34.1769Z" fill="#263238"/>
<path d="M52.2929 33.244C51.0689 32.926 50.5199 35.401 51.6569 35.695C52.7939 35.989 53.3189 33.511 52.2929 33.244Z" fill="#263238"/>
<path d="M51.7772 33.2682C51.5312 33.3612 51.2642 33.5682 51.0002 33.5292C50.7002 33.4932 50.5202 33.1812 50.3792 32.8902C50.3642 32.8602 50.3372 32.8752 50.3312 32.9082C50.2172 33.3822 50.2922 33.9072 50.7872 34.0902C51.2342 34.2582 51.6602 33.9132 51.8852 33.4632C51.9272 33.3792 51.8792 33.2322 51.7772 33.2682Z" fill="#263238"/>
<path d="M57.4111 34.9001C57.4111 34.8731 57.4621 34.9511 57.4531 34.9841C57.2521 35.7431 57.1531 36.6461 57.7861 37.0571C57.8071 37.0721 57.7861 37.1081 57.7711 37.0991C56.9521 36.7781 57.0991 35.5811 57.4111 34.9001Z" fill="#263238"/>
<path d="M58.2749 34.2492C59.5289 34.4382 59.0579 36.9282 57.8999 36.7542C56.7419 36.5802 57.2279 34.0932 58.2749 34.2492Z" fill="#263238"/>
<path d="M58.7642 34.5131C58.9352 34.6811 59.0852 34.9571 59.3192 35.0171C59.5532 35.0771 59.8382 34.8551 60.0602 34.6301C60.0842 34.6061 60.0992 34.6301 60.0962 34.6631C60.0182 35.1431 59.7662 35.6081 59.2922 35.6141C58.8182 35.6201 58.6322 35.1521 58.6082 34.6571C58.6022 34.5641 58.6952 34.4441 58.7642 34.5131Z" fill="#263238"/>
<path d="M51.615 40.7831C51.75 41.0081 51.864 41.3021 52.134 41.3831C52.4168 41.4529 52.7111 41.4631 52.998 41.4131C53.0043 41.4108 53.0111 41.4108 53.0173 41.4133C53.0235 41.4157 53.0285 41.4204 53.0315 41.4263C53.0345 41.4323 53.0351 41.4391 53.0334 41.4455C53.0317 41.4519 53.0276 41.4574 53.022 41.461C52.873 41.5802 52.6946 41.6571 52.5056 41.6835C52.3166 41.7099 52.124 41.6848 51.948 41.611C51.8041 41.5303 51.6878 41.4082 51.614 41.2606C51.5402 41.113 51.5123 40.9466 51.534 40.7831C51.534 40.7501 51.6 40.7501 51.615 40.7831Z" fill="#263238"/>
<path d="M55.4071 38.6771C55.4071 38.6771 55.3261 39.8561 55.2121 40.3991C55.2121 40.4501 55.0651 40.4441 54.8791 40.4171C54.8761 40.4193 54.8724 40.4205 54.8686 40.4205C54.8649 40.4205 54.8612 40.4193 54.8581 40.4171C54.3761 40.4041 53.907 40.259 53.5018 39.9977C53.0965 39.7364 52.7708 39.3688 52.5601 38.9351C52.5542 38.9225 52.5531 38.9081 52.557 38.8947C52.5609 38.8813 52.5696 38.8699 52.5815 38.8625C52.5933 38.8551 52.6074 38.8523 52.6212 38.8546C52.635 38.8569 52.6474 38.8642 52.6561 38.8751C53.2474 39.4926 54.0234 39.9011 54.8671 40.0391C54.9361 39.8981 54.9361 38.0141 55.0231 38.0261C55.4366 38.1498 55.8313 38.3295 56.1961 38.5601C56.4361 36.1061 56.2801 33.6341 56.5561 31.1951C56.5561 31.1752 56.564 31.1562 56.5781 31.1421C56.5922 31.128 56.6112 31.1201 56.6311 31.1201C56.651 31.1201 56.6701 31.128 56.6842 31.1421C56.6982 31.1562 56.7061 31.1752 56.7061 31.1951C57.0511 33.7751 56.8351 36.5951 56.6521 39.1451C56.6341 39.4541 55.6051 38.8151 55.4071 38.6771Z" fill="#263238"/>
<path d="M41.3101 33.3491C43.9501 33.8891 44.7421 29.7161 44.7421 29.7161C44.7421 29.7161 47.7931 30.0161 48.9571 25.2311C48.9571 25.2311 49.8301 28.4351 53.7781 29.8211C54.6151 30.1211 52.1641 27.3221 52.1641 27.3221C52.1641 27.3221 55.0111 31.1231 61.6591 31.1861C62.1271 31.1861 63.0181 24.1991 58.4371 20.9111C53.8561 17.6231 48.5371 18.0851 44.7901 20.6531C44.7901 20.6531 41.1901 21.9191 40.1011 25.3301C39.0121 28.7411 40.2841 33.1391 41.3101 33.3491Z" fill="#263238"/>
<path d="M50.0998 38.56C49.4105 38.3673 48.7891 37.985 48.3062 37.4567C47.8234 36.9284 47.4985 36.2752 47.3684 35.5714C47.2383 34.8676 47.3083 34.1415 47.5704 33.4755C47.8325 32.8095 48.2763 32.2304 48.8511 31.804C49.426 31.3777 50.109 31.1211 50.8224 31.0636C51.5358 31.0061 52.251 31.1499 52.8867 31.4787C53.5225 31.8075 54.0532 32.308 54.4186 32.9234C54.784 33.5389 54.9694 34.2445 54.9538 34.96C54.9278 35.9708 54.5033 36.9304 53.7727 37.6295C53.0421 38.3286 52.0648 38.7105 51.0538 38.692C50.7314 38.6893 50.4108 38.6449 50.0998 38.56ZM52.0228 31.684C51.3608 31.5007 50.6582 31.5285 50.0128 31.7635C49.3674 31.9985 48.8114 32.4291 48.4224 32.9952C48.0333 33.5612 47.8306 34.2346 47.8425 34.9214C47.8544 35.6081 48.0802 36.2741 48.4886 36.8263C48.897 37.3786 49.4675 37.7897 50.1207 38.0023C50.7738 38.2148 51.477 38.2183 52.1322 38.0122C52.7874 37.8061 53.362 37.4007 53.7758 36.8525C54.1896 36.3043 54.4221 35.6406 54.4408 34.954C54.4561 34.2196 54.2282 33.5007 53.7925 32.9092C53.3568 32.3178 52.7378 31.887 52.0318 31.684H52.0228Z" fill="#EBEBEB"/>
<path d="M58.8001 39.8741C57.3931 39.4811 56.5171 37.6811 56.8261 35.7101C56.9535 34.7664 57.3731 33.8863 58.0261 33.1931C58.2902 32.8798 58.6306 32.6399 59.0145 32.4966C59.3984 32.3533 59.8127 32.3115 60.2175 32.3751C60.6223 32.4387 61.0038 32.6057 61.3252 32.8599C61.6466 33.1141 61.897 33.4469 62.0521 33.8261C62.4664 34.6852 62.6007 35.6527 62.4361 36.5921C62.1091 38.6741 60.5821 40.1711 59.0311 39.9281C58.953 39.9155 58.8758 39.8975 58.8001 39.8741ZM60.3421 32.9201C60.2802 32.9015 60.2171 32.8875 60.1531 32.8781C59.8284 32.8429 59.5 32.8857 59.1953 33.0032C58.8905 33.1206 58.6182 33.3091 58.4011 33.5531C57.821 34.1691 57.4467 34.9501 57.3301 35.7881C57.0481 37.5881 57.8491 39.2231 59.1301 39.4241C60.4111 39.6251 61.6681 38.3171 61.9531 36.5141C62.0997 35.6804 61.9833 34.8218 61.6201 34.0571C61.4972 33.787 61.3184 33.546 61.0955 33.35C60.8726 33.154 60.6108 33.0075 60.3271 32.9201H60.3421Z" fill="#EBEBEB"/>
<path d="M54.7679 35.3831L54.5039 34.9451C55.1519 34.5521 56.5769 34.1141 57.3449 35.2451L56.9219 35.5451C56.2349 34.5191 54.8279 35.3471 54.7679 35.3831Z" fill="#EBEBEB"/>
<path d="M37.7821 33.7001L37.3711 33.4001C37.5121 33.2081 38.7811 31.5221 39.9391 31.5161C41.0191 31.5161 47.6881 33.2111 47.9731 33.2831L47.8441 33.7781C45.9331 33.2891 40.7761 32.0231 39.9421 32.0261C39.1771 32.0411 38.1241 33.2471 37.7821 33.7001Z" fill="#EBEBEB"/>
<path d="M42.2071 34.3211C42.2071 34.3211 40.5301 30.2621 38.7421 30.7841C36.9541 31.3061 37.6681 36.8081 39.3841 37.9211C39.5944 38.079 39.8345 38.1927 40.09 38.2553C40.3454 38.318 40.6108 38.3283 40.8704 38.2857C41.1299 38.2431 41.3781 38.1484 41.6001 38.0074C41.8221 37.8664 42.0132 37.682 42.1621 37.4651L42.2071 34.3211Z" fill="#EB9481"/>
<path d="M38.9998 32.3563C38.9938 32.3553 38.9877 32.3563 38.9824 32.3592C38.9771 32.3621 38.9729 32.3666 38.9705 32.3721C38.9681 32.3777 38.9676 32.3838 38.9691 32.3897C38.9706 32.3955 38.974 32.4007 38.9788 32.4043C40.1788 33.2293 40.5928 34.5973 40.7938 35.9653C40.5118 35.3953 40.0408 35.0113 39.2938 35.3293C39.2861 35.3339 39.2801 35.3407 39.2766 35.3489C39.2731 35.3571 39.2722 35.3662 39.2743 35.3749C39.2763 35.3836 39.281 35.3914 39.2877 35.3973C39.2945 35.4031 39.3029 35.4066 39.3118 35.4073C39.5592 35.3848 39.8076 35.4397 40.0225 35.5644C40.2375 35.689 40.4084 35.8774 40.5118 36.1033C40.6845 36.4806 40.8143 36.8761 40.8988 37.2823C40.9348 37.4113 41.1598 37.3963 41.1448 37.2523C41.1448 37.2523 41.1448 37.2313 41.1448 37.2193C41.5258 35.5543 40.7458 32.9233 38.9998 32.3563Z" fill="#263238"/>
<path d="M47.6548 48.8889L46.0408 54.1569L39.1678 48.2529L37.5508 50.4699C37.5508 50.4699 44.6098 60.1809 44.6098 59.7129L46.3348 55.1469L49.6348 57.9429L48.7348 50.2989L47.6548 48.8889Z" fill="#EBEBEB"/>
<path d="M49.3919 54.139C49.2029 52.882 49.0469 51.61 48.7919 50.362C48.7919 50.32 48.7109 50.305 48.7049 50.362C48.5549 51.604 49.3049 56.407 49.4009 57.562C49.2629 57.439 46.3649 55.114 46.3409 55.162C45.9449 55.897 44.6759 59.224 44.5949 59.524C43.4789 57.982 38.7809 51.925 37.4909 50.488C37.4877 50.4833 37.4837 50.4793 37.479 50.4761C37.4742 50.4729 37.4689 50.4707 37.4634 50.4696C37.4578 50.4685 37.4521 50.4685 37.4465 50.4696C37.4409 50.4707 37.4356 50.4729 37.4309 50.476C37.4262 50.4792 37.4221 50.4832 37.4189 50.488C37.4158 50.4927 37.4136 50.498 37.4125 50.5036C37.4113 50.5091 37.4113 50.5149 37.4124 50.5204C37.4135 50.526 37.4157 50.5313 37.4189 50.536C38.4299 52.18 44.5169 60.181 44.5889 60.154C45.2723 58.5774 45.8731 56.9662 46.3889 55.327C46.8899 55.843 49.8419 58.498 49.8359 58.309C49.7622 56.9121 49.614 55.5202 49.3919 54.139Z" fill="#263238"/>
<path d="M37.0558 58.9C34.3858 70.402 26.8228 83.269 22.0348 87.052C19.1188 89.353 9.78582 89.374 9.36882 83.335C8.95182 77.296 27.2758 58.369 29.9728 54.688C32.6698 51.007 39.4678 48.523 37.0558 58.9Z" fill="#EB9481"/>
<path d="M37.0558 58.9C34.3858 70.402 26.8228 83.269 22.0348 87.052C19.1188 89.353 9.78582 89.374 9.36882 83.335C8.95182 77.296 27.2758 58.369 29.9728 54.688C32.6698 51.007 39.4678 48.523 37.0558 58.9Z" fill="#2C49C7"/>
<path d="M15.963 84.7423C15.535 84.8991 15.1311 85.1152 14.763 85.3843C15.221 85.348 15.6715 85.247 16.101 85.0843C16.5361 84.9306 16.9464 84.7144 17.319 84.4423C16.8548 84.4757 16.398 84.5768 15.963 84.7423ZM31.977 55.6423C31.549 55.7991 31.1451 56.0152 30.777 56.2843C31.235 56.248 31.6855 56.147 32.115 55.9843C32.5501 55.8306 32.9604 55.6144 33.333 55.3423C32.8694 55.3752 32.4127 55.4742 31.977 55.6363V55.6423ZM26.196 71.8423C25.7681 71.998 25.3642 72.2131 24.996 72.4813C25.9165 72.395 26.798 72.0681 27.552 71.5333C27.0875 71.5686 26.6307 71.6717 26.196 71.8393V71.8423ZM21.627 66.7003C21.4779 66.2624 21.2667 65.8482 21 65.4703C21.0363 65.9292 21.1373 66.3807 21.3 66.8113C21.4544 67.246 21.6706 67.6562 21.942 68.0293C21.9002 67.5737 21.7941 67.1262 21.627 66.7003ZM14.169 78.1453C14.0135 77.7111 13.7974 77.301 13.527 76.9273C13.6139 77.8485 13.9408 78.7308 14.475 79.4863C14.4369 79.0271 14.3339 78.5756 14.169 78.1453ZM24.6 83.1553C24.6254 83.5192 24.698 83.8782 24.816 84.2233L25.053 83.9233C24.9307 83.6514 24.7788 83.3939 24.6 83.1553ZM35.538 62.4763C35.3825 62.043 35.1663 61.6339 34.896 61.2613C34.9309 61.7194 35.0319 62.1701 35.196 62.5993C35.3274 62.9645 35.4995 63.3137 35.709 63.6403C35.733 63.5623 35.76 63.4873 35.784 63.4093C35.7273 63.0919 35.644 62.7798 35.535 62.4763H35.538ZM18.504 72.1003C18.0875 71.9036 17.6451 71.7672 17.19 71.6953C17.5411 71.9928 17.9331 72.2383 18.354 72.4243C18.7705 72.622 19.2129 72.7594 19.668 72.8323C19.3159 72.5354 18.9242 72.289 18.504 72.1003ZM27.318 64.3003C27.119 64.7162 26.9816 65.1588 26.91 65.6143C27.2078 65.2623 27.4534 64.8693 27.639 64.4473C27.8385 64.0326 27.9759 63.5909 28.047 63.1363C27.748 63.4929 27.5025 63.891 27.318 64.3183V64.3003ZM21.084 78.6433C20.886 79.0595 20.7486 79.502 20.676 79.9573C21.2658 79.2441 21.6579 78.3886 21.813 77.4763C21.516 77.8288 21.2705 78.2217 21.084 78.6433ZM9.58204 82.6693C9.50404 82.8463 9.42905 83.0263 9.36605 83.2123C9.36301 83.2522 9.36301 83.2923 9.36605 83.3323C9.36605 83.4553 9.38705 83.5783 9.40205 83.6953C9.59434 83.418 9.76102 83.1238 9.90005 82.8163C10.0968 82.3995 10.2341 81.9572 10.308 81.5023C10.0113 81.8544 9.76681 82.2475 9.58204 82.6693Z" fill="white"/>
<path d="M13.9652 87.928C15.2224 88.1316 16.5037 88.1386 17.7632 87.949C18.9966 87.7486 20.183 87.3246 21.2642 86.698C23.5502 85.384 25.0802 83.158 26.4392 80.968C27.9292 78.568 29.3292 76.11 30.6392 73.594C31.9442 71.083 33.1412 68.515 34.2962 65.932C34.8812 64.63 35.4122 63.31 35.9672 61.996C36.5222 60.682 37.0472 59.383 37.5302 58.054C37.6532 57.718 37.7672 57.382 37.8842 57.046C37.8861 57.0396 37.8906 57.0343 37.8965 57.0312C37.9024 57.0281 37.9093 57.0275 37.9157 57.0295C37.922 57.0315 37.9273 57.0359 37.9304 57.0418C37.9335 57.0477 37.9341 57.0546 37.9322 57.061C37.5002 58.435 37.0892 59.824 36.6242 61.186C36.5642 61.363 36.4982 61.54 36.4352 61.717C36.9182 60.688 37.4132 59.665 37.9352 58.654C37.9652 58.594 38.0492 58.654 38.0252 58.708C37.5632 59.758 37.0832 60.808 36.5912 61.831C36.3472 62.341 36.1022 62.849 35.8562 63.355C35.6222 63.985 35.3792 64.618 35.1302 65.245C34.0562 67.933 32.8622 70.564 31.5482 73.138C30.2342 75.712 28.8182 78.233 27.3002 80.701C25.9112 82.972 24.4202 85.306 22.1732 86.821C20.0209 88.2668 17.3825 88.7988 14.8382 88.3C14.5326 88.2348 14.2319 88.1486 13.9382 88.042C13.9259 88.036 13.916 88.026 13.9101 88.0137C13.9042 88.0014 13.9028 87.9874 13.9059 87.9741C13.9091 87.9608 13.9166 87.949 13.9274 87.9406C13.9382 87.9322 13.9515 87.9278 13.9652 87.928Z" fill="#263238"/>
<path d="M18.4292 41.764C20.3342 37.129 23.4242 30.772 25.5002 29.8C27.6842 28.789 35.5052 25.549 37.5662 25.384C39.6272 25.219 46.9352 27.355 48.2552 28.651C49.3082 29.689 47.4812 32.161 43.3172 31.807C39.4172 31.474 38.5172 31.207 37.3862 31.378C36.2552 31.549 32.9102 34.249 33.2042 35.899C33.3782 36.868 35.6432 38.539 37.4042 38.236C39.1652 37.933 40.2242 36.211 42.3992 35.206C44.5742 34.201 47.6942 35.206 47.6552 36.106C47.6162 37.006 46.4552 37.138 44.0972 39.628C42.5732 41.227 41.4752 44.404 38.2802 47.011C36.6752 48.319 33.4982 52.087 33.4982 52.087L18.4292 41.764Z" fill="#EB9481"/>
<path d="M25.5 29.8001C27.648 27.7931 32.673 24.4721 36.93 23.9861C39.807 23.6531 47.688 30.3641 46.98 32.0171C46.272 33.6701 44.736 33.2831 42.525 32.4251C41.721 32.1251 37.725 29.4041 36.75 30.1331C35.334 31.1801 32.802 35.3531 32.802 35.3531L25.5 29.8001Z" fill="#EB9481"/>
<path d="M46.9348 31.3C46.2958 29.17 44.1028 27.556 41.8678 26.152C41.8318 26.128 41.7958 26.182 41.8318 26.203C42.3988 26.563 45.8968 29.41 46.8988 31.321C46.9108 31.342 46.9408 31.321 46.9348 31.3Z" fill="#263238"/>
<path d="M25.5 29.7999C27.648 27.7929 32.673 24.4719 36.93 23.9859C39.807 23.6529 45.489 31.1049 44.784 32.7609C44.079 34.4169 41.829 33.9819 39.606 32.5029C38.886 32.0229 36.717 29.4789 35.733 30.2049C34.314 31.2519 30.846 33.8649 30.846 33.8649L25.5 29.7999Z" fill="#EB9481"/>
<path d="M32.8861 32.2302C33.2281 31.9302 33.3482 31.8042 33.6962 31.4952C34.0442 31.1862 34.3952 30.8952 34.7642 30.5952C35.0662 30.3231 35.4134 30.1059 35.7902 29.9532C36.1658 29.8493 36.5652 29.8714 36.9271 30.0162C37.7551 30.3162 38.3821 31.0482 38.9941 31.6482C39.6781 32.3142 41.1511 33.4902 42.4621 33.6822C42.8162 33.7572 43.1821 33.7572 43.5361 33.6822C43.8025 33.6352 44.0529 33.5228 44.2652 33.3552C45.0572 32.5602 44.6432 31.3122 44.1332 30.3552C43.1792 28.6032 41.6732 27.1242 40.1732 25.8552C39.8042 25.5402 39.4261 25.2342 39.0511 24.9282C38.6393 24.5474 38.1502 24.2598 37.6171 24.0852C36.7321 23.8512 35.0492 24.3852 34.5302 24.5352C34.4912 24.5352 34.4792 24.4842 34.5302 24.4722C35.1602 24.2712 36.7952 23.5152 38.2052 23.9562C38.7212 24.1182 39.1412 24.5112 39.5642 24.8382C39.9872 25.1652 40.4402 25.5402 40.8632 25.9092C41.6927 26.6183 42.4651 27.3917 43.1732 28.2222C43.8362 29.0112 44.5292 29.9112 44.8591 30.9012C45.1592 31.7592 45.0212 32.8392 44.3582 33.4902C43.8002 34.0392 42.9272 33.9822 42.5312 33.9342C42.1444 33.8852 41.766 33.7843 41.4062 33.6342C40.6195 33.2408 39.8625 32.7906 39.1411 32.2872C38.4451 31.7802 37.8812 31.0872 37.1462 30.6312C36.9748 30.5177 36.7825 30.4396 36.5806 30.4015C36.3786 30.3634 36.1711 30.366 35.9701 30.4092C35.5876 30.5433 35.2275 30.7345 34.9021 30.9762C34.2338 31.3625 33.6031 31.8105 33.0181 32.3142C32.8471 32.4462 32.7421 32.3622 32.8861 32.2302Z" fill="#263238"/>
<path d="M23.832 31.5999C24.687 30.6039 26.832 26.1399 28.122 24.9309C29.412 23.7219 34.836 19.8009 36.717 20.5149C39.081 21.4149 35.415 25.1469 33.675 26.6229C31.935 28.0989 31.362 31.2279 31.362 31.2279L23.832 31.5999Z" fill="#EB9481"/>
<path d="M36.2219 24.1C35.6219 24.556 35.0579 25.087 34.5059 25.6C33.954 26.0615 33.4366 26.5629 32.9579 27.1C32.5262 27.668 32.1917 28.3036 31.9679 28.981C31.8479 29.311 31.7519 29.647 31.6679 29.986C31.5839 30.325 31.5059 30.739 31.4009 31.105C31.4009 31.144 31.4489 31.168 31.4609 31.126C31.6803 30.4601 31.9418 29.8087 32.2439 29.176C32.5439 28.5158 32.9227 27.8943 33.3719 27.325C34.2719 26.197 35.3939 25.276 36.2999 24.154C36.3329 24.118 36.2669 24.067 36.2219 24.1Z" fill="#263238"/>
<path d="M36.5191 38.2302C37.3259 38.2771 38.1195 38.0093 38.7331 37.4832C39.3091 37.0512 39.8581 36.5832 40.4371 36.1542C40.9963 35.7041 41.6177 35.3372 42.2821 35.0652C43.0496 34.8227 43.8474 34.6894 44.6521 34.6692C45.428 34.5864 46.2123 34.701 46.9321 35.0022C47.5141 35.2782 48.1321 35.8812 47.8111 36.5892C47.6489 36.9068 47.4268 37.19 47.1571 37.4232C46.9042 37.6635 46.6334 37.8841 46.3471 38.0832C45.7741 38.4942 45.1651 38.8632 44.6311 39.3312C43.9201 39.9552 43.4311 40.8042 42.9091 41.5872C42.7141 41.8872 41.4691 43.8492 40.9951 44.5182C40.5975 45.0882 40.1508 45.6222 39.6601 46.1142C39.1744 46.5604 38.6625 46.9771 38.1271 47.3622C37.5426 47.7784 37.0063 48.2584 36.5281 48.7932C36.5071 48.8202 36.4711 48.7932 36.4861 48.7572C37.0861 47.6532 38.1841 46.9122 39.1861 46.1802C40.4671 45.2322 43.3111 40.3362 43.8271 39.6702C44.6851 38.5632 45.9871 38.0322 46.9651 37.0692C47.1901 36.8472 47.5351 36.5322 47.5291 36.1842C47.5013 36.0188 47.4315 35.8633 47.3265 35.7325C47.2214 35.6017 47.0846 35.5001 46.9291 35.4372C46.2571 35.0802 45.4291 35.1042 44.6971 35.1762C43.9273 35.2149 43.1645 35.3407 42.4231 35.5512C41.7764 35.7835 41.1646 36.1034 40.6051 36.5022C39.9631 36.9462 39.3481 37.4022 38.6731 37.8042C38.0324 38.2254 37.2601 38.3982 36.5011 38.2902C36.4651 38.2812 36.4831 38.2272 36.5191 38.2302Z" fill="#263238"/>
<path d="M47.0372 28.0573C46.5242 27.8053 46.0142 27.5323 45.4922 27.2953C45.4922 27.2953 45.4922 27.2653 45.4922 27.2713C46.1102 27.5173 46.7462 27.7213 47.3672 27.9613C47.8592 28.1503 48.3662 28.4263 48.5672 28.9423C48.646 29.1839 48.6598 29.4419 48.6071 29.6905C48.5544 29.9391 48.4372 30.1694 48.2672 30.3583C47.8859 30.7576 47.4235 31.0706 46.9112 31.2763C46.8842 31.2913 46.8632 31.2493 46.8902 31.2343C47.6372 30.8023 48.7952 29.9323 48.1862 28.9393C47.8931 28.5437 47.4951 28.2381 47.0372 28.0573Z" fill="#263238"/>
<path d="M44.538 33.0339C45.123 33.0519 45.771 33.0339 46.29 32.7339C46.4641 32.6381 46.613 32.5021 46.7241 32.3372C46.8352 32.1723 46.9054 31.9834 46.929 31.7859C46.9603 31.6426 46.9401 31.4929 46.872 31.3629C46.848 31.3329 46.905 31.3059 46.914 31.3419C46.94 31.4199 46.9711 31.496 47.007 31.5699C47.0291 31.6362 47.0442 31.7045 47.052 31.7739C47.0667 31.9118 47.0555 32.0512 47.019 32.1849C46.9327 32.4761 46.7496 32.7291 46.5 32.9019C45.915 33.3219 45.189 33.2829 44.529 33.0879C44.502 33.0759 44.508 33.0339 44.538 33.0339Z" fill="#263238"/>
<path d="M33.4918 52.093C32.2138 56.704 22.4998 81.295 19.7998 84.766C17.0998 88.237 10.5328 88.984 8.69983 82.711C6.86683 76.438 16.4098 46.456 18.4258 41.764C19.5508 39.154 33.9508 50.422 33.4918 52.093Z" fill="#EB9481"/>
<path d="M35.616 55.201L16.554 44.146C16.554 44.146 8.39998 72.115 8.25598 80.74C8.15098 86.929 15.57 91.555 21.432 83.188C27.294 74.821 35.616 55.201 35.616 55.201Z" fill="#2C49C7"/>
<path d="M17.1358 44.5C16.8515 44.8439 16.6144 45.2243 16.4308 45.631C16.2341 46.0475 16.0978 46.49 16.0258 46.945C16.3234 46.5939 16.5689 46.2019 16.7548 45.781C16.947 45.3745 17.0823 44.9434 17.1568 44.5H17.1358ZM10.9918 71.17C10.7951 71.5865 10.6588 72.029 10.5868 72.484C10.8844 72.1329 11.1299 71.7409 11.3158 71.32C11.5141 70.9017 11.6515 70.4572 11.7238 70C11.4271 70.3544 11.1808 70.7481 10.9918 71.17ZM9.58183 82.669C9.38374 83.0853 9.24635 83.5277 9.17383 83.983C9.47056 83.6308 9.71506 83.2378 9.89983 82.816C10.0966 82.3992 10.2339 81.9569 10.3078 81.502C10.0111 81.8542 9.76659 82.2472 9.58183 82.669ZM21.0838 78.643C20.8857 79.0593 20.7483 79.5018 20.6758 79.957C21.2656 79.2439 21.6577 78.3883 21.8128 77.476C21.5157 77.8285 21.2703 78.2214 21.0838 78.643ZM27.4918 50.5C27.4918 50.527 27.4918 50.557 27.4918 50.584L27.5428 50.521L27.4918 50.5ZM27.3178 64.327C27.1188 64.7429 26.9814 65.1855 26.9098 65.641C27.2076 65.289 27.4531 64.896 27.6388 64.474C27.8383 64.0593 27.9757 63.6176 28.0468 63.163C27.75 63.5113 27.5045 63.9002 27.3178 64.318V64.327ZM18.5278 61.195C18.3292 61.6079 18.1918 62.0475 18.1198 62.5C18.7065 61.7849 19.0982 60.9302 19.2568 60.019C18.9597 60.3715 18.7143 60.7644 18.5278 61.186V61.195ZM25.0558 57.88C24.6394 57.6823 24.197 57.5449 23.7418 57.472C24.092 57.7716 24.4841 58.0182 24.9058 58.204C25.3228 58.3976 25.7653 58.5309 26.2198 58.6C25.8684 58.303 25.4765 58.0575 25.0558 57.871V57.88ZM18.5038 72.1C18.0873 71.9033 17.6448 71.7669 17.1898 71.695C17.5409 71.9925 17.9329 72.238 18.3538 72.424C18.7702 72.6217 19.2127 72.7591 19.6678 72.832C19.3157 72.5351 18.924 72.2887 18.5038 72.1ZM15.6538 54.526C15.2377 54.3276 14.7951 54.1902 14.3398 54.118C15.053 54.7078 15.9085 55.0998 16.8208 55.255C16.4676 54.9621 16.0747 54.7207 15.6538 54.538V54.526ZM14.1538 78.133C13.9983 77.6988 13.7822 77.2887 13.5118 76.915C13.5987 77.8362 13.9255 78.7185 14.4598 79.474C14.4254 79.0196 14.3274 78.5722 14.1688 78.145L14.1538 78.133ZM21.6268 66.7C21.4777 66.2622 21.2665 65.8479 20.9998 65.47C21.0361 65.9289 21.1371 66.3804 21.2998 66.811C21.4542 67.2457 21.6704 67.656 21.9418 68.029C21.9 67.5734 21.7939 67.1259 21.6268 66.7ZM26.1958 71.851C25.7679 72.0068 25.3639 72.2219 24.9958 72.49C25.9163 72.4037 26.7978 72.0768 27.5518 71.542C27.0878 71.5744 26.631 71.6745 26.1958 71.839V71.851ZM13.4638 65.161C13.0352 65.3167 12.6312 65.5329 12.2638 65.803C12.7225 65.7653 13.1738 65.6643 13.6048 65.503C14.0334 65.3473 14.4375 65.1311 14.8048 64.861C14.3457 64.8958 13.894 64.9969 13.4638 65.161ZM20.9248 51.172C20.4906 51.3275 20.0805 51.5437 19.7068 51.814C20.1657 51.7777 20.6172 51.6767 21.0478 51.514C21.4826 51.3596 21.8928 51.1434 22.2658 50.872C21.8069 50.9079 21.3554 51.0089 20.9248 51.172ZM31.9768 55.636C31.5488 55.7928 31.1448 56.0089 30.7768 56.278C31.2348 56.2417 31.6852 56.1407 32.1148 55.978C32.5499 55.8243 32.9602 55.6081 33.3328 55.336C32.8688 55.3709 32.4122 55.4719 31.9768 55.636ZM15.9628 84.736C15.5348 84.8928 15.1308 85.1089 14.7628 85.378C15.2208 85.3417 15.6712 85.2407 16.1008 85.078C16.5359 84.9243 16.9462 84.7081 17.3188 84.436C16.8543 84.4713 16.3975 84.5744 15.9628 84.742V84.736Z" fill="white"/>
<path d="M33 58.6001C30.114 57.0491 18.528 50.2811 16.125 48.6491C15.957 48.5351 15.99 48.4001 16.179 48.4961C24.951 52.9241 30.3 56.8001 33.066 58.4771C33.135 58.5191 33.084 58.6331 33 58.6001Z" fill="#263238"/>
<path d="M26.9009 73.426C28.9139 69.646 30.8489 65.827 32.6009 61.912C33.0869 60.816 33.5629 59.716 34.0289 58.612C34.4759 57.55 34.9289 56.485 35.3309 55.405C34.9319 55.126 33.1799 53.98 32.9909 53.803C32.9339 53.752 32.9909 53.653 33.0689 53.677C33.3029 53.764 35.3369 54.943 35.7689 55.264C35.8319 55.309 34.9649 57.415 34.5689 58.423C34.1729 59.431 33.7709 60.433 33.3509 61.423C32.5189 63.397 31.6389 65.348 30.7109 67.276C29.7119 69.358 28.6679 71.41 27.5609 73.429C26.5949 75.169 24.2999 78.295 26.9009 73.426Z" fill="#263238"/>
<path d="M103.911 104.617C103.911 104.617 107.649 105.124 107.787 102.547C107.925 99.9698 104.154 100.072 104.154 100.072L103.911 104.617Z" fill="#DD6A57"/>
<path d="M77.8227 98.6641L77.5781 103.208L104.069 104.634L104.313 100.089L77.8227 98.6641Z" fill="#2C49C7"/>
<path d="M103.424 99.6625L103.138 104.968L104.19 105.024L104.475 99.719L103.424 99.6625Z" fill="#37474F"/>
<path d="M102.257 99.5975L101.972 104.903L103.026 104.96L103.312 99.6542L102.257 99.5975Z" fill="#37474F"/>
<path d="M77.8137 98.6558L74.4537 100.189L73.3438 100.69L74.3937 101.32L77.5707 103.204L78.2547 102.781L77.6187 102.295L78.3027 101.869L77.6668 101.386L78.3508 100.969C78.3508 100.969 77.7267 100.486 77.7177 100.474L78.4017 100.06L77.7657 99.5648L78.4497 99.1508L77.8137 98.6558Z" fill="#EBEBEB"/>
<path d="M74.4537 100.189L73.3438 100.69L74.3938 101.32L74.4537 100.189Z" fill="#37474F"/>
<path d="M55.746 96.2378L59.631 106.27H24.168L28.407 96.2498L55.746 96.2378Z" fill="#2C49C7"/>
<path d="M56.028 96.9668L59.631 106.27V107.971H24.168V106.27L28.101 96.9758L56.028 96.9668Z" fill="#2C49C7"/>
<path opacity="0.1" d="M55.746 96.2378L59.631 106.27H24.168L28.407 96.2498L55.746 96.2378Z" fill="black"/>
<path d="M37.9138 103.57L37.6918 105.499H33.3838L33.7978 103.57H37.9138Z" fill="white"/>
<path d="M38.169 101.386L37.944 103.315H33.855L34.272 101.386H38.169Z" fill="white"/>
<path d="M38.4212 99.2017L38.1992 101.131H34.3262L34.7432 99.2017H38.4212Z" fill="#2C49C7"/>
<path d="M38.6758 97.0176L38.4508 98.9436L34.7998 98.9466L35.2168 97.0176H38.6758Z" fill="#2C49C7"/>
<path d="M42.6362 103.57L42.6332 105.499H38.3252L38.5202 103.57H42.6362Z" fill="#37474F"/>
<path d="M42.6359 101.386V103.315H38.5469L38.7419 101.386H42.6359Z" fill="#37474F"/>
<path d="M42.6391 99.2017V101.128H38.7661L38.9611 99.2017H42.6391Z" fill="#37474F"/>
<path d="M42.6661 97.0146V98.9437H39.0151L39.2071 97.0177L42.6661 97.0146Z" fill="white"/>
<path d="M47.3548 103.57L47.5738 105.499H43.2658L43.2388 103.57H47.3548Z" fill="#37474F"/>
<path d="M47.106 101.386L47.325 103.312L43.236 103.315L43.209 101.386H47.106Z" fill="#37474F"/>
<path d="M46.8572 99.1987L47.0762 101.128H43.2062L43.1792 99.2017L46.8572 99.1987Z" fill="#37474F"/>
<path d="M46.6079 97.0146L46.8269 98.9437H43.1759L43.1489 97.0146H46.6079Z" fill="white"/>
<path d="M52.0769 103.57L52.5179 105.499H48.2069L47.9609 103.57H52.0769Z" fill="#37474F"/>
<path d="M51.5762 101.383L52.0172 103.312H47.9282L47.6792 101.386L51.5762 101.383Z" fill="#37474F"/>
<path d="M51.075 99.1987L51.516 101.128H47.646L47.397 99.1987H51.075Z" fill="#37474F"/>
<path d="M50.5772 97.0117L51.0182 98.9407L47.3642 98.9437L47.1182 97.0147L50.5772 97.0117Z" fill="white"/>
<path d="M56.7962 103.57L57.4592 105.496L53.1512 105.499L52.6802 103.57H56.7962Z" fill="#37474F"/>
<path d="M56.0459 101.383L56.7089 103.312H52.6169L52.1489 101.383H56.0459Z" fill="#37474F"/>
<path d="M55.2927 99.1958L55.9557 101.125L52.0857 101.128L51.6147 99.1988L55.2927 99.1958Z" fill="white"/>
<path d="M54.543 97.0117L55.206 98.9407H51.555L51.084 97.0117H54.543Z" fill="white"/>
<path d="M35.238 104.821C35.067 104.821 34.938 104.767 34.938 104.689C34.938 104.611 35.106 104.557 35.274 104.557C35.445 104.557 35.574 104.608 35.574 104.689C35.574 104.77 35.4 104.821 35.238 104.821ZM35.271 104.629C35.172 104.629 35.088 104.653 35.079 104.689C35.07 104.725 35.151 104.749 35.247 104.749C35.346 104.749 35.43 104.725 35.436 104.689C35.442 104.653 35.367 104.629 35.271 104.629ZM36.075 104.728L35.04 104.362C35.019 104.362 35.01 104.344 35.013 104.332C35.016 104.32 35.049 104.302 35.085 104.302H35.13L36.168 104.671C36.186 104.671 36.195 104.689 36.195 104.698C36.195 104.707 36.159 104.731 36.12 104.731C36.105 104.733 36.0896 104.732 36.075 104.728ZM35.925 104.482C35.754 104.482 35.625 104.428 35.625 104.35C35.625 104.272 35.79 104.218 35.955 104.218C36.123 104.218 36.255 104.272 36.255 104.35C36.255 104.428 36.093 104.482 35.925 104.482ZM35.955 104.287C35.856 104.287 35.772 104.314 35.766 104.35C35.76 104.386 35.838 104.41 35.931 104.41C36.03 104.41 36.114 104.386 36.12 104.35C36.126 104.314 36.048 104.287 35.955 104.287Z" fill="#37474F"/>
<path d="M36.234 100.654C35.919 100.654 35.688 100.522 35.718 100.354C35.7296 100.314 35.7494 100.276 35.7763 100.244C35.8032 100.212 35.8364 100.186 35.874 100.168C35.9143 100.151 35.9596 100.151 36 100.168C36.036 100.183 36.039 100.213 36 100.231C35.9736 100.243 35.9502 100.261 35.9316 100.283C35.9129 100.306 35.8994 100.332 35.892 100.36C35.8886 100.39 35.8952 100.421 35.911 100.447C35.9267 100.473 35.9506 100.493 35.979 100.504C36.0617 100.545 36.1534 100.566 36.246 100.564C36.3442 100.565 36.4414 100.544 36.531 100.504C36.5636 100.492 36.5931 100.473 36.617 100.448C36.641 100.423 36.6588 100.393 36.669 100.36C36.6714 100.334 36.6664 100.309 36.6547 100.286C36.643 100.263 36.6251 100.244 36.603 100.231C36.579 100.213 36.588 100.183 36.63 100.168C36.6494 100.16 36.6703 100.155 36.6915 100.155C36.7126 100.155 36.7335 100.16 36.753 100.168C36.7845 100.187 36.8101 100.215 36.8271 100.247C36.844 100.28 36.8516 100.317 36.849 100.354C36.828 100.522 36.552 100.654 36.234 100.654Z" fill="#37474F"/>
<path d="M36.822 99.9999H35.898C35.85 99.9999 35.817 99.9789 35.82 99.9549L35.868 99.6969C35.868 99.6729 35.913 99.6519 35.961 99.6519C36.009 99.6519 36.045 99.6729 36.042 99.6969L36.003 99.9129H36.303L36.333 99.7269C36.333 99.7029 36.381 99.6819 36.426 99.6819C36.471 99.6819 36.51 99.7029 36.507 99.7269L36.477 99.9129H36.777L36.813 99.6969C36.813 99.6729 36.858 99.6519 36.906 99.6519C36.954 99.6519 36.987 99.6729 36.984 99.6969L36.945 99.9549C36.9 99.9999 36.867 99.9999 36.822 99.9999Z" fill="#37474F"/>
<path d="M36.645 98.2329C36.345 98.2329 36.135 98.0979 36.162 97.9329C36.1729 97.8933 36.1919 97.8564 36.2177 97.8244C36.2435 97.7924 36.2756 97.766 36.312 97.7469C36.3305 97.7389 36.3504 97.7348 36.3705 97.7348C36.3906 97.7348 36.4105 97.7389 36.429 97.7469C36.465 97.7649 36.465 97.7949 36.429 97.8129C36.4028 97.825 36.3798 97.8429 36.3616 97.8653C36.3434 97.8876 36.3305 97.9139 36.324 97.9419C36.3223 97.9712 36.329 98.0003 36.3434 98.0258C36.3578 98.0513 36.3791 98.0722 36.405 98.0859C36.4817 98.1261 36.5675 98.1458 36.654 98.1429C36.7462 98.1447 36.8376 98.1252 36.921 98.0859C36.9522 98.073 36.9802 98.0535 37.003 98.0286C37.0258 98.0037 37.0429 97.9741 37.053 97.9419C37.0557 97.9167 37.0512 97.8912 37.0401 97.8684C37.0289 97.8456 37.0116 97.8263 36.99 97.8129C36.969 97.7949 36.99 97.7649 37.017 97.7469C37.0351 97.7377 37.0552 97.7329 37.0755 97.7329C37.0958 97.7329 37.1159 97.7377 37.134 97.7469C37.1641 97.767 37.1882 97.795 37.2035 97.8278C37.2188 97.8606 37.2249 97.8969 37.221 97.9329C37.2 98.0979 36.942 98.2329 36.645 98.2329Z" fill="#37474F"/>
<path d="M40.0558 104.359L41.0788 104.56C41.1148 104.56 41.1358 104.581 41.1358 104.599C41.1371 104.605 41.1371 104.611 41.1358 104.617C41.0976 104.641 41.0513 104.65 41.0068 104.641L40.1068 104.467V104.674C40.1068 104.698 40.0588 104.719 40.0048 104.719C39.9508 104.719 39.9088 104.698 39.9118 104.674L39.9298 104.398L39.9478 104.38H40.0648L40.0558 104.359Z" fill="white"/>
<path d="M40.8298 102.175C41.0488 102.175 41.2228 102.262 41.2168 102.367C41.2108 102.472 41.0308 102.559 40.8118 102.559C40.6964 102.565 40.582 102.534 40.4848 102.472C40.4319 102.491 40.376 102.5 40.3198 102.499C40.1698 102.499 40.0498 102.439 40.0528 102.367C40.0558 102.295 40.1848 102.235 40.3348 102.235C40.39 102.234 40.4449 102.243 40.4968 102.262C40.5969 102.201 40.7127 102.171 40.8298 102.175ZM40.8298 102.262C40.7128 102.262 40.6108 102.31 40.6078 102.367C40.6048 102.424 40.7008 102.469 40.8208 102.472C40.9408 102.475 41.0368 102.424 41.0398 102.367C41.0428 102.31 40.9438 102.262 40.8268 102.262H40.8298ZM40.3258 102.412C40.3798 102.412 40.4218 102.391 40.4248 102.367C40.4278 102.343 40.3828 102.322 40.3318 102.322C40.2808 102.322 40.2388 102.343 40.2388 102.367C40.2388 102.391 40.2748 102.4 40.3228 102.4L40.3258 102.412Z" fill="white"/>
<path d="M40.5689 100.369C40.3559 100.369 40.1909 100.282 40.1969 100.174C40.2029 100.066 40.3589 99.9909 40.5509 99.9819H40.6439C40.7505 99.982 40.8569 99.991 40.9619 100.009C41.0567 100.024 41.1469 100.06 41.2259 100.114C41.2453 100.128 41.2615 100.146 41.2734 100.166C41.2853 100.187 41.2926 100.21 41.2949 100.234C41.2949 100.258 41.2589 100.279 41.2079 100.279C41.1569 100.279 41.1239 100.261 41.1209 100.237C41.1198 100.222 41.1155 100.208 41.1082 100.195C41.101 100.182 41.091 100.171 41.0789 100.162C41.0463 100.139 41.0097 100.121 40.9709 100.111H40.9319C40.9497 100.132 40.9593 100.158 40.9589 100.186C40.9529 100.282 40.7789 100.369 40.5689 100.369ZM40.5689 100.282C40.6829 100.282 40.7789 100.234 40.7819 100.174C40.7849 100.114 40.6949 100.069 40.5809 100.069C40.4669 100.069 40.3739 100.117 40.3709 100.174C40.3679 100.231 40.4579 100.282 40.5719 100.282H40.5689Z" fill="white"/>
<path d="M40.8809 98.1516C40.8329 98.1516 40.7939 98.1306 40.7939 98.1066V97.8546C40.7939 97.8306 40.8389 97.8066 40.8869 97.8066C40.9349 97.8066 40.9709 97.8306 40.9709 97.8546V98.1066C40.9709 98.1306 40.9289 98.1516 40.8809 98.1516Z" fill="#37474F"/>
<path d="M45.6002 104.32C45.6542 104.32 45.6992 104.338 45.6992 104.365H45.8312C45.8852 104.365 45.9272 104.386 45.9302 104.41C45.9332 104.434 45.8912 104.455 45.8372 104.455H45.7052L45.7232 104.704C45.7232 104.704 45.7232 104.722 45.7022 104.731C45.6809 104.74 45.6579 104.745 45.6347 104.745C45.6115 104.745 45.5885 104.74 45.5672 104.731L44.7422 104.431H44.7212H45.5042C45.5042 104.338 45.5462 104.32 45.6002 104.32ZM45.0812 104.461L45.5252 104.62V104.461H45.0812Z" fill="white"/>
<path d="M45.06 102.244C45.1537 102.2 45.2566 102.179 45.36 102.184C45.4631 102.182 45.5653 102.203 45.66 102.244C45.744 102.283 45.786 102.334 45.789 102.385C45.789 102.436 45.756 102.487 45.678 102.526C45.6566 102.535 45.6337 102.539 45.6105 102.539C45.5873 102.539 45.5643 102.535 45.543 102.526C45.504 102.508 45.504 102.478 45.543 102.46C45.582 102.442 45.609 102.412 45.606 102.385C45.6014 102.367 45.5925 102.35 45.5799 102.337C45.5673 102.323 45.5515 102.313 45.534 102.307C45.4836 102.286 45.4295 102.276 45.375 102.277C45.3204 102.275 45.2661 102.285 45.216 102.307C45.1995 102.313 45.185 102.323 45.1744 102.337C45.1637 102.351 45.1573 102.367 45.156 102.385C45.156 102.412 45.18 102.439 45.225 102.46C45.27 102.481 45.267 102.508 45.225 102.526H45.204H45.147L44.712 102.502C44.6885 102.501 44.6657 102.494 44.646 102.481C44.6441 102.474 44.6441 102.467 44.646 102.46V102.223C44.646 102.196 44.685 102.175 44.739 102.175C44.793 102.175 44.832 102.196 44.832 102.223V102.418H44.997C44.9856 102.402 44.9794 102.383 44.979 102.364C44.943 102.334 44.979 102.283 45.06 102.244Z" fill="white"/>
<path d="M45.207 99.979C45.417 99.979 45.594 100.066 45.6 100.174C45.606 100.282 45.465 100.357 45.273 100.369H45.18C45.0713 100.369 44.9628 100.359 44.856 100.339C44.7575 100.326 44.6631 100.292 44.58 100.237C44.5384 100.209 44.5093 100.166 44.499 100.117C44.499 100.09 44.532 100.072 44.58 100.069C44.628 100.066 44.667 100.087 44.673 100.111C44.675 100.127 44.6803 100.142 44.6886 100.155C44.6969 100.169 44.7079 100.18 44.721 100.189C44.7564 100.211 44.7948 100.227 44.835 100.237H44.877C44.8563 100.216 44.8435 100.188 44.841 100.159C44.835 100.066 45 99.979 45.207 99.979ZM45.207 100.069C45.096 100.069 45.003 100.117 45.006 100.174C45.009 100.231 45.108 100.279 45.222 100.279C45.336 100.279 45.426 100.234 45.42 100.174C45.414 100.114 45.327 100.069 45.213 100.069H45.207Z" fill="white"/>
<path d="M45.0001 98.1336C45.0001 98.1576 44.9671 98.1756 44.9251 98.1756C44.8831 98.1756 44.8471 98.1576 44.8441 98.1336L44.8261 97.8096C44.8261 97.7886 44.8591 97.7676 44.9011 97.7676C44.9431 97.7676 44.9761 97.7856 44.9791 97.8096L45.0001 98.1336ZM44.5981 97.9176C44.6521 97.9176 44.7001 97.9416 44.7001 97.9716C44.7001 98.0016 44.6581 98.0286 44.6041 98.0286C44.5501 98.0286 44.5051 98.0046 44.5021 97.9716C44.4991 97.9386 44.5411 97.9176 44.5951 97.9176H44.5981ZM45.1981 97.9176C45.2521 97.9176 45.2971 97.9416 45.2971 97.9716C45.2971 98.0016 45.2581 98.0286 45.2041 98.0286C45.1471 98.0286 45.1021 98.0016 45.0991 97.9716C45.0961 97.9416 45.1561 97.9176 45.2101 97.9176H45.1981Z" fill="#37474F"/>
<path d="M49.626 104.449H50.658C50.712 104.449 50.757 104.47 50.763 104.494C50.769 104.518 50.73 104.539 50.676 104.539H49.8L49.845 104.569C49.845 104.569 49.863 104.587 49.863 104.593C49.863 104.599 49.863 104.623 49.821 104.629C49.7997 104.638 49.7767 104.643 49.7535 104.643C49.7303 104.643 49.7073 104.638 49.686 104.629L49.542 104.53H49.617L49.626 104.449Z" fill="white"/>
<path d="M50.2231 102.169C50.2771 102.169 50.3191 102.19 50.3251 102.214L50.3791 102.499C50.38 102.506 50.378 102.514 50.3735 102.52C50.3691 102.526 50.3625 102.53 50.3551 102.532C50.3126 102.548 50.2655 102.548 50.2231 102.532L49.7341 102.292C49.682 102.27 49.6258 102.258 49.5691 102.259C49.5216 102.258 49.4745 102.267 49.4311 102.286C49.3861 102.307 49.3681 102.334 49.3741 102.364C49.3801 102.394 49.4011 102.412 49.4401 102.433L49.4911 102.457C49.5301 102.475 49.5301 102.502 49.4911 102.52C49.4496 102.536 49.4035 102.536 49.3621 102.52L49.3111 102.496C49.2815 102.486 49.2547 102.469 49.2328 102.446C49.2109 102.424 49.1946 102.397 49.1851 102.367C49.1851 102.313 49.2121 102.262 49.2931 102.223C49.3745 102.188 49.4624 102.171 49.5511 102.172C49.6547 102.172 49.757 102.195 49.8511 102.238L50.1511 102.388L50.1181 102.217C50.1361 102.19 50.1721 102.169 50.2231 102.169Z" fill="white"/>
<path d="M49.2419 100.051C49.3226 100.013 49.4111 99.9956 49.4999 99.9996C49.5979 99.9981 49.695 100.018 49.7849 100.057C49.8689 100.096 49.9169 100.147 49.9259 100.198C49.9349 100.249 49.9079 100.3 49.8389 100.339C49.8191 100.348 49.7976 100.352 49.7759 100.352C49.7542 100.352 49.7327 100.348 49.7129 100.339C49.6739 100.321 49.6709 100.294 49.7129 100.276C49.7279 100.269 49.7404 100.258 49.749 100.244C49.7576 100.23 49.7617 100.214 49.7609 100.198C49.7543 100.18 49.7439 100.164 49.7304 100.151C49.7169 100.138 49.7007 100.129 49.6829 100.123C49.6344 100.099 49.5808 100.088 49.5269 100.09C49.4777 100.087 49.4288 100.098 49.3859 100.123C49.3469 100.144 49.3319 100.171 49.3349 100.198C49.3379 100.225 49.3349 100.222 49.3139 100.231C49.2736 100.247 49.2283 100.247 49.1879 100.231L49.0109 100.15L49.0319 100.279C49.0319 100.303 49.0019 100.324 48.9509 100.324C48.8999 100.324 48.8579 100.303 48.8549 100.279L48.8159 100.042C48.8159 100.015 48.8489 99.9966 48.8969 99.9966H48.9389H48.9629L49.1849 100.099C49.2009 100.079 49.2202 100.063 49.2419 100.051Z" fill="white"/>
<path d="M48.8759 97.8428L49.1339 97.9388L49.3589 97.8428C49.376 97.8354 49.3944 97.8315 49.4129 97.8315C49.4315 97.8315 49.4499 97.8354 49.4669 97.8428C49.4669 97.8428 49.4879 97.8608 49.4879 97.8698C49.4879 97.8788 49.4879 97.8938 49.4639 97.9058L49.2749 97.9868L49.4939 98.0648C49.5149 98.0648 49.5299 98.0858 49.5329 98.0978C49.5359 98.1098 49.5329 98.1158 49.5329 98.1248C49.5165 98.1326 49.4986 98.1366 49.4804 98.1366C49.4623 98.1366 49.4444 98.1326 49.4279 98.1248L49.1639 98.0288L48.9389 98.1248C48.9219 98.1322 48.9035 98.1361 48.8849 98.1361C48.8664 98.1361 48.848 98.1322 48.8309 98.1248C48.8039 98.1038 48.8069 98.0798 48.8309 98.0648L49.0169 97.9868L48.8039 97.9058C48.7679 97.8908 48.7559 97.8638 48.7769 97.8428C48.7926 97.8361 48.8094 97.8327 48.8264 97.8327C48.8435 97.8327 48.8603 97.8361 48.8759 97.8428Z" fill="#37474F"/>
<path d="M55.3408 104.5C55.3408 104.467 55.3828 104.44 55.4548 104.44C55.5268 104.44 55.5928 104.467 55.6048 104.5C55.6168 104.533 55.5628 104.56 55.4908 104.56C55.4188 104.56 55.3528 104.533 55.3408 104.5Z" fill="white"/>
<path d="M54.417 102.58C54.2762 102.582 54.1357 102.564 54 102.526C53.886 102.493 53.793 102.439 53.775 102.376C53.757 102.313 53.82 102.262 53.916 102.229C54.039 102.189 54.1679 102.171 54.297 102.175C54.4359 102.173 54.5744 102.191 54.708 102.229C54.825 102.262 54.921 102.316 54.939 102.376C54.957 102.436 54.894 102.493 54.798 102.526C54.675 102.565 54.5462 102.584 54.417 102.58ZM54.324 102.265C54.2228 102.261 54.1216 102.273 54.024 102.301C53.961 102.325 53.934 102.352 53.943 102.376C53.952 102.4 53.991 102.43 54.066 102.454C54.1641 102.479 54.2648 102.492 54.366 102.493C54.4624 102.494 54.5585 102.481 54.651 102.454C54.714 102.43 54.738 102.403 54.729 102.376C54.72 102.349 54.684 102.325 54.603 102.301C54.5118 102.278 54.4181 102.266 54.324 102.265Z" fill="white"/>
<path d="M53.6398 100.333C53.5918 100.333 53.5438 100.312 53.5348 100.285L53.4658 100.039C53.4658 100.012 53.4928 99.9907 53.5408 99.9907C53.5888 99.9907 53.6368 100.012 53.6458 100.039L53.7178 100.285C53.7268 100.3 53.6998 100.333 53.6398 100.333ZM53.9398 100.333C53.8858 100.333 53.8378 100.312 53.8318 100.285L53.7568 100.039C53.7568 100.012 53.7868 99.9907 53.8378 99.9907C53.8888 99.9907 53.9368 100.012 53.9428 100.039L54.0178 100.285C54.0208 100.3 53.9998 100.333 53.9338 100.333H53.9398Z" fill="#37474F"/>
<path d="M53.1569 98.0167L53.1929 98.1306C53.1929 98.1546 53.1689 98.1727 53.1239 98.1727C53.0789 98.1727 53.0339 98.1546 53.0279 98.1306L52.9949 98.0167H52.7999C52.7549 98.0167 52.7099 97.9956 52.7039 97.9716C52.6979 97.9476 52.7279 97.9236 52.7759 97.9236H52.9799L52.9469 97.8097C52.9469 97.7857 52.9709 97.7646 53.0159 97.7646C53.0609 97.7646 53.1029 97.7857 53.1089 97.8097L53.1419 97.9236H53.3489C53.3679 97.9217 53.3871 97.9249 53.4045 97.9328C53.4219 97.9407 53.4368 97.9531 53.4479 97.9687C53.4479 97.9957 53.4239 98.0167 53.3759 98.0167H53.1569Z" fill="#37474F"/>
<path d="M35.5439 102.076C35.5829 102.076 35.6129 102.091 35.6099 102.109L35.5919 102.211C35.8259 102.253 36.4379 102.358 36.6149 102.382C36.6338 102.384 36.6521 102.391 36.6689 102.4C36.6736 102.402 36.6776 102.405 36.6803 102.409C36.683 102.414 36.6843 102.419 36.6839 102.424C36.6839 102.424 36.6839 102.445 36.6509 102.454C36.6179 102.463 36.4169 102.562 36.3329 102.595C36.2489 102.628 36.1679 102.622 36.1589 102.616C36.1499 102.61 36.1589 102.616 36.1589 102.598C36.1589 102.58 36.1589 102.577 36.1859 102.568L36.2669 102.532L36.3329 102.502L36.3959 102.475L36.4619 102.445L35.4959 102.277H35.4719C35.4719 102.277 35.4509 102.259 35.4539 102.25L35.4779 102.118C35.4719 102.1 35.5079 102.076 35.5439 102.076Z" fill="#37474F"/>
<path d="M33.2038 97.0176L30.8758 105.499H26.3398L29.5618 97.0206L33.2038 97.0176Z" fill="#455A64"/>
<path d="M29.3189 100.849H30.8999C30.9839 100.849 31.0379 100.882 31.0259 100.924C31.0139 100.966 30.9389 100.996 30.8549 100.996H29.5379L29.5799 101.05C29.5833 101.056 29.5851 101.062 29.5851 101.069C29.5851 101.076 29.5833 101.083 29.5799 101.089C29.5691 101.105 29.5549 101.119 29.5384 101.13C29.5219 101.141 29.5033 101.148 29.4839 101.152C29.4516 101.163 29.417 101.167 29.3831 101.162C29.3491 101.157 29.3168 101.144 29.2889 101.125L29.1509 100.963H29.2469L29.3189 100.849Z" fill="white"/>
<path d="M31.1341 100.072C31.2151 100.072 31.2661 100.105 31.2541 100.147L31.1101 100.621C31.0964 100.646 31.0739 100.665 31.0471 100.675C31.0143 100.688 30.9791 100.695 30.9436 100.695C30.908 100.695 30.8729 100.688 30.8401 100.675L30.2581 100.276C30.187 100.235 30.1057 100.216 30.0241 100.222C29.9413 100.222 29.8591 100.236 29.7811 100.264C29.7478 100.274 29.7168 100.29 29.69 100.313C29.6633 100.335 29.6412 100.362 29.6251 100.393C29.6175 100.415 29.6182 100.439 29.6271 100.46C29.6359 100.482 29.6522 100.499 29.6731 100.51L29.7331 100.552C29.7781 100.582 29.7571 100.627 29.6881 100.657C29.6555 100.671 29.6202 100.679 29.5846 100.679C29.5489 100.679 29.5136 100.671 29.4811 100.657L29.4211 100.615C29.3829 100.595 29.353 100.563 29.337 100.523C29.321 100.483 29.32 100.439 29.3341 100.399C29.3649 100.341 29.4075 100.289 29.4591 100.249C29.5108 100.208 29.5703 100.178 29.6341 100.162C29.7773 100.105 29.9301 100.077 30.0841 100.078C30.2341 100.071 30.383 100.108 30.5131 100.183L30.8851 100.438L30.9721 100.153C30.9781 100.105 31.0531 100.072 31.1341 100.072Z" fill="white"/>
<path d="M30.3961 99.379C30.5478 99.3143 30.7112 99.2817 30.8761 99.283C31.0222 99.2766 31.1673 99.3098 31.2961 99.379C31.3406 99.3982 31.3768 99.4326 31.3982 99.476C31.4197 99.5194 31.4249 99.569 31.4131 99.616C31.3878 99.6707 31.3516 99.7196 31.3067 99.7598C31.2618 99.8001 31.2093 99.8307 31.1521 99.85C31.1197 99.8648 31.0844 99.8725 31.0486 99.8725C31.0129 99.8725 30.9776 99.8648 30.9451 99.85C30.8971 99.82 30.9121 99.772 30.9781 99.742C31.009 99.7318 31.0375 99.7153 31.0618 99.6937C31.086 99.672 31.1055 99.6455 31.1191 99.616C31.1258 99.5909 31.1235 99.5642 31.1125 99.5406C31.1016 99.517 31.0827 99.4981 31.0591 99.487C30.9883 99.4488 30.9086 99.4301 30.8281 99.433C30.7383 99.4323 30.6494 99.4508 30.5671 99.487C30.5045 99.5099 30.4523 99.5546 30.4201 99.613C30.4201 99.637 30.3931 99.655 30.3571 99.67C30.3245 99.6841 30.2892 99.6914 30.2536 99.6914C30.218 99.6914 30.1828 99.6841 30.1501 99.67L29.9281 99.535L29.8531 99.751C29.8531 99.793 29.7601 99.826 29.6791 99.826C29.5981 99.826 29.5441 99.793 29.5591 99.751L29.6971 99.355C29.6971 99.313 29.7901 99.28 29.8681 99.28C29.89 99.2765 29.9123 99.2765 29.9341 99.28H29.9671L30.2431 99.451C30.2905 99.4199 30.342 99.3956 30.3961 99.379Z" fill="white"/>
<path d="M31.3348 98.353C31.4128 98.353 31.4608 98.386 31.4488 98.428V98.443H31.6408C31.7188 98.443 31.7668 98.473 31.7548 98.515C31.7428 98.557 31.6738 98.59 31.5958 98.59H31.4038L31.2718 99.01C31.2679 99.0206 31.2619 99.0304 31.2542 99.0386C31.2464 99.0469 31.2371 99.0535 31.2268 99.058C31.1956 99.0719 31.1619 99.0791 31.1278 99.0791C31.0937 99.0791 31.0599 99.0719 31.0288 99.058L30.0298 98.563V98.548H31.1158V98.533C31.1998 98.389 31.2598 98.353 31.3348 98.353ZM30.5008 98.59L31.0348 98.857L31.1218 98.59H30.5008Z" fill="white"/>
<path d="M30.9628 97.6868C31.1078 97.6207 31.2655 97.5869 31.4248 97.5878C31.5634 97.5835 31.7005 97.6178 31.8208 97.6868C31.8638 97.7065 31.8983 97.7409 31.9181 97.7838C31.9379 97.8267 31.9417 97.8753 31.9288 97.9208C31.9055 97.9752 31.8711 98.0242 31.8277 98.0645C31.7842 98.1048 31.7329 98.1356 31.6768 98.1548C31.6459 98.1696 31.6121 98.1774 31.5778 98.1774C31.5435 98.1774 31.5097 98.1696 31.4788 98.1548C31.4338 98.1248 31.4488 98.0768 31.5118 98.0468C31.5425 98.036 31.5706 98.019 31.5944 97.9968C31.6182 97.9746 31.637 97.9477 31.6498 97.9178C31.6572 97.8934 31.6555 97.8672 31.645 97.844C31.6345 97.8209 31.616 97.8023 31.5928 97.7918C31.5274 97.7536 31.4525 97.7349 31.3768 97.7378C31.2899 97.7373 31.2039 97.7557 31.1248 97.7918C31.0943 97.802 31.0663 97.8185 31.0425 97.8402C31.0187 97.8619 30.9998 97.8883 30.9868 97.9178C30.9784 97.9421 30.9792 97.9688 30.9892 97.9926C30.9992 98.0163 31.0175 98.0356 31.0408 98.0468C31.0858 98.0768 31.0678 98.1248 31.0048 98.1548L30.9688 98.1698H30.8818L30.2518 98.1308C30.2195 98.1293 30.1887 98.1166 30.1648 98.0948C30.1612 98.09 30.1592 98.0842 30.1592 98.0783C30.1592 98.0723 30.1612 98.0665 30.1648 98.0618L30.3028 97.6658C30.3028 97.6238 30.3898 97.5908 30.4678 97.5908C30.5458 97.5908 30.5938 97.6238 30.5788 97.6658L30.4648 97.9958L30.7048 98.0108C30.6989 97.981 30.6989 97.9505 30.7048 97.9208C30.73 97.8665 30.7658 97.8178 30.8101 97.7776C30.8544 97.7374 30.9063 97.7065 30.9628 97.6868Z" fill="white"/>
<path d="M82.1012 13.5042C82.1018 15.3601 81.5866 17.1797 80.6131 18.7598C79.6397 20.3399 78.2463 21.6184 76.5884 22.4527C74.9306 23.2869 73.0735 23.644 71.2245 23.4841C69.3754 23.3242 67.6072 22.6536 66.1172 21.5472L61.2002 22.7982L63.2432 18.2292C62.5236 16.8864 62.1197 15.3973 62.0623 13.875C62.0049 12.3527 62.2955 10.8373 62.9119 9.44419C63.5283 8.05109 64.4544 6.81693 65.6196 5.83561C66.7848 4.85429 68.1585 4.15167 69.6362 3.78119C71.1138 3.41072 72.6565 3.38215 74.1469 3.69767C75.6372 4.0132 77.036 4.66449 78.2368 5.602C79.4375 6.53951 80.4086 7.73855 81.0762 9.10788C81.7438 10.4772 82.0902 11.9808 82.0892 13.5042H82.1012Z" fill="#26CBA3"/>
<path d="M71.001 18.79L67.272 15.019L68.526 13.783L70.701 15.985L75.225 8.896L76.707 9.84099L71.001 18.79Z" fill="white"/>
</svg>
