<svg viewBox="0 0 24 24" fill="none" xmlns="http://www.w3.org/2000/svg">
<path stroke-width="1.5" stroke-miterlimit="10" stroke="#1B1B1B" d="m21,17.697c0,0.324 -0.0721,0.657 -0.2253,0.981c-0.1533,0.324 -0.3516,0.63 -0.613,0.918c-0.4416,0.486 -0.9283,0.837 -1.4782,1.062c-0.5408,0.225 -1.1267,0.342 -1.7576,0.342c-0.9194,0 -1.9019,-0.216 -2.9384,-0.657c-1.0366,-0.441 -2.0731,-1.035 -3.1007,-1.782c-1.03652,-0.756 -2.019,-1.593 -2.9564,-2.52c-0.9284,-0.936 -1.76665,-1.917 -2.51478,-2.943c-0.73911,-1.026 -1.334,-2.052 -1.76665,-3.069c-0.43265,-1.026 -0.64897,-2.007 -0.64897,-2.943c0,-0.612 0.10816,-1.197 0.32449,-1.737c0.21632,-0.549 0.55884,-1.053 1.03655,-1.503c0.57687,-0.567 1.20781,-0.846 1.87481,-0.846c0.25238,0 0.50476,0.054 0.7301,0.162c0.23435,0.108 0.44166,0.27 0.60391,0.504l2.09113,2.943c0.16225,0.225 0.27942,0.432 0.36051,0.63c0.0812,0.189 0.1262,0.378 0.1262,0.549c0,0.216 -0.0631,0.432 -0.18926,0.639c-0.11718,0.207 -0.28843,0.423 -0.50476,0.639l-0.68503,0.711c-0.09915,0.099 -0.14421,0.216 -0.14421,0.36c0,0.072 0.00901,0.135 0.02704,0.207c0.02704,0.072 0.05408,0.126 0.07211,0.18c0.16224,0.297 0.44166,0.684 0.83825,1.152c0.40561,0.468 0.83826,0.945 1.30696,1.422c0.4867,0.477 0.9554,0.918 1.4332,1.323c0.4687,0.396 0.8562,0.666 1.1627,0.828c0.0451,0.018 0.0991,0.045 0.1622,0.072c0.0721,0.027 0.1443,0.036 0.2254,0.036c0.1532,0 0.2704,-0.054 0.3695,-0.153l0.6851,-0.675c0.2253,-0.225 0.4416,-0.396 0.6489,-0.504c0.2073,-0.126 0.4147,-0.189 0.64,-0.189c0.1713,0 0.3515,0.036 0.5498,0.117c0.1983,0.081 0.4056,0.198 0.631,0.351l2.9834,2.115c0.2344,0.162 0.3966,0.351 0.4958,0.576c0.0901,0.225 0.1442,0.45 0.1442,0.702z"/>
</svg>