<?xml version="1.0" standalone="no"?>
<!DOCTYPE svg PUBLIC "-//W3C//DTD SVG 20010904//EN"
 "http://www.w3.org/TR/2001/REC-SVG-20010904/DTD/svg10.dtd">
<svg version="1.0" xmlns="http://www.w3.org/2000/svg"
 width="100.000000pt" height="100.000000pt" viewBox="0 0 100.000000 100.000000"
 preserveAspectRatio="xMidYMid meet">

<g transform="translate(0.000000,100.000000) scale(0.100000,-0.100000)"
>
<path stroke="currentColor" stroke-width="18" d="M210 905 c-44 -23 -79 -34 -107 -35 -42 0 -58 -15 -29 -26 8 -3 17
-16 20 -29 8 -30 71 -85 99 -85 12 0 36 -9 52 -20 18 -12 47 -20 73 -20 23 0
42 -2 42 -4 0 -2 -9 -23 -19 -47 -22 -48 -15 -82 21 -110 20 -15 20 -18 4 -40
-31 -44 -19 -88 41 -150 30 -31 33 -40 24 -57 -19 -35 -13 -86 14 -122 14 -19
25 -47 25 -66 0 -17 7 -37 15 -44 23 -19 45 5 45 47 0 23 9 46 25 65 27 32 33
84 14 119 -9 17 -4 27 30 64 49 53 61 103 36 142 -17 25 -17 27 3 42 36 28 43
62 21 110 -10 24 -19 45 -19 47 0 2 19 4 43 4 25 0 54 8 72 20 17 11 38 20 48
20 32 0 75 32 94 69 10 20 24 40 31 44 24 15 12 27 -29 27 -27 0 -62 12 -106
35 -93 49 -114 47 -176 -20 -49 -54 -88 -74 -71 -37 12 28 7 65 -12 79 -52 38
-107 -17 -80 -79 17 -37 -22 -17 -71 37 -62 67 -81 69 -173 20z m159 -35 c23
-27 53 -53 67 -56 13 -3 24 -12 24 -20 0 -32 -53 -4 -112 59 -40 42 -54 45
-106 18 -21 -11 -56 -22 -77 -26 -36 -6 -33 -3 35 33 101 54 117 54 169 -8z
m161 29 c9 -15 8 -24 -1 -35 -28 -33 -80 -3 -59 35 6 12 19 21 30 21 11 0 24
-9 30 -21z m267 -20 c70 -36 74 -40 38 -34 -21 4 -56 15 -77 26 -20 10 -44 19
-53 19 -9 0 -38 -22 -65 -49 -49 -49 -85 -69 -98 -56 -4 4 2 12 13 19 11 6 44
35 72 64 29 28 62 52 73 52 11 0 55 -18 97 -41z m-497 -22 c0 -7 -13 -34 -30
-60 -23 -36 -36 -47 -55 -47 -36 0 -79 24 -92 52 -10 22 -9 23 32 24 24 0 60
10 81 22 46 24 64 27 64 9z m463 -8 c23 -12 61 -22 84 -23 24 0 43 -3 43 -6
-1 -11 -36 -48 -57 -59 -45 -23 -72 -14 -103 36 -48 75 -40 89 33 52z m-394
-96 c-13 -34 -19 -38 -53 -41 -64 -6 -70 11 -28 78 l37 58 29 -28 c29 -28 29
-29 15 -67z m321 76 c0 -6 13 -30 30 -54 25 -36 27 -45 15 -55 -7 -6 -31 -10
-51 -8 -34 3 -40 7 -52 40 -14 36 -13 38 14 67 26 28 44 32 44 10z m-171 -128
c-4 -114 -10 -154 -23 -140 -2 2 -7 64 -11 137 -7 131 -7 132 15 132 22 0 22
-2 19 -129z m-55 20 c7 -43 3 -47 -25 -27 -13 9 -32 13 -46 10 -27 -7 -28 -5
-7 39 15 32 18 34 44 24 21 -8 29 -19 34 -46z m151 23 c19 -47 19 -47 -8 -40
-14 3 -33 -1 -45 -10 -21 -15 -22 -14 -22 24 0 32 4 40 28 49 15 6 28 11 29
12 2 1 10 -15 18 -35z m-187 -81 c2 -13 -6 -26 -22 -37 -36 -23 -32 -42 11
-64 l36 -19 -27 -7 c-33 -8 -71 13 -79 43 -5 20 26 90 47 103 17 11 31 4 34
-19z m213 -32 c32 -61 -2 -97 -121 -127 -120 -30 -138 -61 -73 -128 29 -29 34
-39 23 -46 -8 -5 -22 -4 -32 1 -23 12 -68 90 -68 116 0 38 87 92 150 93 29 1
100 39 100 54 0 9 -11 23 -25 32 -24 16 -33 43 -18 57 11 11 45 -17 64 -52z
m-171 -22 c0 -42 -13 -49 -52 -28 -20 11 -20 11 6 35 14 14 26 29 26 35 0 6 5
7 10 4 6 -3 10 -24 10 -46z m113 2 c19 -14 19 -15 2 -28 -27 -19 -59 -17 -51
3 3 9 6 30 6 47 1 29 2 30 12 12 6 -11 20 -26 31 -34z m29 -128 c10 -9 18 -26
18 -38 0 -21 -56 -115 -68 -115 -4 0 -26 -18 -50 -39 -39 -36 -43 -43 -37 -74
8 -40 -8 -58 -24 -28 -20 37 -13 81 18 109 15 15 49 46 75 70 51 48 59 82 25
105 -15 11 -17 16 -7 20 22 9 31 8 50 -10z m-102 -63 c0 -33 -4 -60 -10 -60
-6 0 -10 27 -10 60 0 33 4 60 10 60 6 0 10 -27 10 -60z m-40 3 l0 -48 -20 25
c-30 38 -25 65 13 69 4 1 7 -20 7 -46z m90 32 c11 -13 11 -20 0 -40 -19 -36
-30 -31 -30 15 0 42 9 50 30 25z m0 -218 c0 -35 -24 -83 -49 -97 -31 -16 -34
5 -6 46 18 27 24 46 20 63 -4 15 -1 27 7 32 16 10 28 -8 28 -44z m-50 -2 c0
-8 -4 -15 -10 -15 -5 0 -10 7 -10 15 0 8 5 15 10 15 6 0 10 -7 10 -15z m0
-151 c0 -14 -4 -23 -10 -19 -5 3 -10 15 -10 26 0 10 5 19 10 19 6 0 10 -12 10
-26z"/>
</g>
</svg>
