<svg width="32" height="32" viewBox="0 0 32 32" fill="none" xmlns="http://www.w3.org/2000/svg">
<path d="M2.3335 28C2.04461 28 1.80572 27.9056 1.61683 27.7167C1.42794 27.5278 1.3335 27.2889 1.3335 27C1.3335 26.7111 1.42794 26.4722 1.61683 26.2833C1.80572 26.0944 2.04461 26 2.3335 26H29.6668C29.9557 26 30.1946 26.0944 30.3835 26.2833C30.5724 26.4722 30.6668 26.7111 30.6668 27C30.6668 27.2889 30.5724 27.5278 30.3835 27.7167C30.1946 27.9056 29.9557 28 29.6668 28H2.3335ZM4.66683 24C4.1335 24 3.66683 23.8 3.26683 23.4C2.86683 23 2.66683 22.5333 2.66683 22V6C2.66683 5.46667 2.86683 5 3.26683 4.6C3.66683 4.2 4.1335 4 4.66683 4H27.3335C27.8668 4 28.3335 4.2 28.7335 4.6C29.1335 5 29.3335 5.46667 29.3335 6V22C29.3335 22.5333 29.1335 23 28.7335 23.4C28.3335 23.8 27.8668 24 27.3335 24H4.66683ZM4.66683 22H27.3335V6H4.66683V22Z" fill="currentColor"/>
</svg>