<?xml version="1.0" encoding="iso-8859-1"?>
<!-- Uploaded to: SVG Repo, www.svgrepo.com, Generator: SVG Repo Mixer Tools -->
<svg fill="#000000" version="1.1" id="Layer_1" xmlns="http://www.w3.org/2000/svg" xmlns:xlink="http://www.w3.org/1999/xlink" 
	 viewBox="0 0 435.174 435.174" xml:space="preserve">
<g>
	<g>
		<path d="M107.328,169.754h39.066v-53.13c-1.27-1.843-2.427-3.758-3.553-5.699h-35.512V169.754z"/>
		<polygon points="198.054,313.82 198.054,343.071 177.856,343.071 177.856,351.529 258.22,351.529 258.22,343.071 237.12,343.071 
			237.12,313.82 		"/>
		<path d="M327.852,110.925h-35.512c-1.126,1.94-2.284,3.86-3.553,5.704v53.13h39.066V110.925z"/>
		<path d="M217.587,135.46c37.407,0,67.727-30.326,67.727-67.727S254.994,0,217.587,0S149.86,30.326,149.86,67.727
			S180.18,135.46,217.587,135.46z M179.269,53.212h23.803V29.409h29.036v23.803h23.803v29.036h-23.803v23.803h-29.036V82.248
			h-23.803V53.212z"/>
		<path d="M198.054,151.849v17.905h39.066v-17.91c-6.287,1.459-12.81,2.309-19.538,2.309
			C210.86,154.158,204.342,153.308,198.054,151.849z"/>
		<rect x="198.054" y="212.372" width="39.066" height="59.433"/>
		<rect x="107.323" y="212.372" width="39.066" height="59.433"/>
		<rect x="288.786" y="313.82" width="39.066" height="60.037"/>
		<rect x="107.323" y="313.82" width="39.066" height="60.037"/>
		<path d="M304.023,67.727c0,11.766-2.381,22.984-6.661,33.219h71.736v78.157H66.076v-78.152h71.741
			c-4.28-10.235-6.661-21.453-6.661-33.219H53.747v367.442h124.109v-51.963H66.076v-79.365h303.022v79.365H258.22v51.958h123.208
			V67.727H304.023z M66.076,281.16v-78.761h303.022v78.761H66.076z"/>
		<rect x="288.786" y="212.372" width="39.066" height="59.433"/>
	</g>
</g>
</svg>