<svg width="32" height="32" viewBox="0 0 32 32" fill="none" xmlns="http://www.w3.org/2000/svg">
<path d="M16.1721 27.9994C13.6482 27.9972 11.2042 27.1151 9.26061 25.505C7.31715 23.8951 5.99596 21.6577 5.52437 19.1785C5.05278 16.6992 5.46059 14.133 6.6773 11.9221C7.89404 9.71091 9.8435 7.99313 12.1904 7.06469C12.3204 6.99856 12.4725 6.99019 12.6089 7.04192C12.7455 7.09365 12.8538 7.20045 12.9075 7.33622C12.9611 7.47199 12.9551 7.62417 12.8906 7.75524C12.8264 7.88633 12.7097 7.98409 12.5696 8.02461C10.3464 8.90218 8.52012 10.561 7.43362 12.69C6.34699 14.8187 6.07476 17.2709 6.66807 19.586C7.2612 21.9013 8.67916 23.9201 10.6557 25.2641C12.6322 26.6079 15.031 27.1841 17.4022 26.8845C19.7734 26.5846 21.9536 25.4299 23.5337 23.6366C25.1136 21.8431 25.9846 19.5349 25.9832 17.1447C25.973 15.1674 25.3694 13.2387 24.2504 11.6084C23.1314 9.97822 21.5487 8.7215 19.7071 8.00095C19.5705 7.9586 19.4577 7.8615 19.3954 7.73259C19.3332 7.60386 19.3273 7.45503 19.3789 7.32178C19.4306 7.18835 19.5352 7.08238 19.668 7.02915C19.8007 6.97608 19.9497 6.98026 20.0791 7.04103C22.4383 7.95473 24.4038 9.66433 25.6355 11.874C26.8671 14.0839 27.2877 16.6546 26.8239 19.142C26.3604 21.6292 25.0418 23.876 23.0965 25.4934C21.1512 27.1109 18.7016 27.9975 16.1718 27.9998L16.1721 27.9994Z" fill="currentColor"  stroke-width="0.5"/>
<path d="M16.1721 14.7998C15.8872 14.7998 15.6562 14.5688 15.6562 14.2838V4.51595C15.6562 4.23102 15.8872 4 16.1721 4C16.4571 4 16.6881 4.23102 16.6881 4.51595V14.2765C16.6901 14.4147 16.6365 14.5477 16.5396 14.646C16.4427 14.7443 16.3102 14.7997 16.1721 14.7997V14.7998Z" fill="currentColor" stroke-width="0.5"/>
</svg>
