<svg width="32" height="32" viewBox="0 0 32 32" fill="none" xmlns="http://www.w3.org/2000/svg">
<path d="M6.59604 23.9714L8.31 25.6854V28V28.1H8.41H26.6191H26.7191V28L26.719 9.04814V9.00673L26.6897 8.97745L21.6437 3.9293L21.6144 3.9H21.573H8.40983H8.30983V4V16.6187H6.66675H6.56675V16.7187V23.9007V23.9421L6.59604 23.9714ZM8.885 4.47483H21.1573V9.48555V9.58555H21.2573H26.1441L26.144 27.5248H8.88483V24.1106H25.1108H25.2108V24.0106V16.7185V16.6185H25.1108H8.88484L8.885 4.47483ZM21.7323 9.01029V4.83077L25.9102 9.01029H21.7323ZM7.14192 17.1935H24.6359V23.5357H7.14192V17.1935ZM8.31 24.1107V24.8732L7.54806 24.1107H8.31Z" fill="#2C49C7" stroke="#2C49C7" stroke-width="0.3"/>
<path d="M13.1074 18.5308H11.4365V22.2223H12.137V21.0299H12.962L13.124 21.0269C13.6288 21.0269 13.9641 20.9459 14.1298 20.7838C14.2956 20.6211 14.3788 20.2933 14.3788 19.7991C14.3788 19.3018 14.2917 18.9659 14.1178 18.7918C13.9437 18.617 13.607 18.5308 13.1075 18.5308H13.1074ZM13.5387 20.3299C13.4531 20.4034 13.2514 20.4394 12.9342 20.4394H12.1369V19.1193H13.0055C13.3048 19.1193 13.49 19.1568 13.5613 19.2312C13.6326 19.3062 13.6686 19.4989 13.6686 19.8109C13.6678 20.0846 13.6249 20.2571 13.5387 20.3299L13.5387 20.3299Z" fill="#2C49C7" stroke-width="0.3"/>
<path d="M16.6403 18.5308H14.8252V22.2223H16.662C17.2439 22.2223 17.6189 22.0911 17.7848 21.8293C17.9506 21.5674 18.0338 20.9743 18.0338 20.0532C18.0338 19.4892 17.9295 19.0948 17.7241 18.869C17.517 18.6424 17.1562 18.5308 16.6402 18.5308L16.6403 18.5308ZM17.1743 21.4009C17.0761 21.5554 16.8593 21.6326 16.5241 21.6326L15.5258 21.6327V19.1202H16.5668C16.8931 19.1202 17.1008 19.1937 17.1892 19.3415C17.2778 19.4894 17.322 19.8357 17.322 20.3803C17.322 20.9066 17.2726 21.2472 17.1743 21.4008L17.1743 21.4009Z" fill="#2C49C7" stroke-width="0.3"/>
<path d="M18.5442 22.2222H19.2446V20.7043H20.8998V20.1146H19.2446V19.1202H20.9892V18.5308H18.5442V22.2222Z" fill="#2C49C7" stroke-width="0.3"/>
</svg>
