<svg width="24" height="24" viewBox="0 0 24 24" fill="none" xmlns="http://www.w3.org/2000/svg">
<path d="M13.4528 18.9575C13.6859 18.9575 13.8745 19.1466 13.8745 19.3792C13.8745 19.6119 13.6854 19.801 13.4528 19.801H4.03606C3.80341 19.801 3.61432 19.6119 3.61432 19.3792C3.61432 19.3544 3.6165 19.3308 3.62034 19.3071L4.92912 8.10948C4.95335 7.89451 5.1364 7.73568 5.34752 7.73568V7.73516H8.12721V6.80403C8.12721 5.75764 8.55496 4.80665 9.24422 4.117C9.93334 3.42788 10.8849 3 11.9312 3C12.9776 3 13.9286 3.42775 14.6177 4.117C15.3069 4.80613 15.7347 5.75712 15.7347 6.80403V7.73516H18.5144C18.7382 7.73516 18.9218 7.90988 18.9357 8.12984L19.6639 14.3618C19.6903 14.5928 19.5244 14.8017 19.2934 14.8283C19.0624 14.8547 18.8535 14.6888 18.8269 14.4578L18.14 8.57928H15.7352V11.2315C15.7352 11.4642 15.5462 11.6533 15.3135 11.6533C15.0803 11.6533 14.8917 11.4642 14.8917 11.2315V8.57928H8.97185V11.2315C8.97185 11.4642 8.78277 11.6533 8.5501 11.6533C8.31693 11.6533 8.12836 11.4642 8.12836 11.2315V8.57928H5.72361L4.51072 18.9571H13.4539L13.4528 18.9575ZM15.8874 13.9807C15.9083 13.9592 15.9315 13.94 15.9569 13.9234L15.958 13.9229L15.9657 13.9179L15.9662 13.9174L15.9745 13.9124L15.9757 13.9119C16.0385 13.875 16.1113 13.8534 16.1896 13.8534C16.268 13.8534 16.3406 13.875 16.4036 13.9119L16.4047 13.9124L16.4131 13.9174L16.4136 13.9179L16.4213 13.9229L16.4224 13.9234C16.4478 13.94 16.4709 13.9593 16.4919 13.9807L19.1938 16.6826C19.3586 16.8475 19.3586 17.1143 19.1938 17.2792C19.0295 17.444 18.7621 17.444 18.5972 17.2792L16.612 15.294V20.5783C16.612 20.8109 16.4229 21 16.1903 21C15.9576 21 15.7685 20.8109 15.7685 20.5783V15.294L13.7827 17.2792C13.6178 17.444 13.3509 17.444 13.1861 17.2792C13.0212 17.1143 13.0212 16.8475 13.1861 16.6826L15.888 13.9807H15.8874ZM8.97088 7.73562H14.8908V6.80448C14.8908 5.99076 14.5578 5.25087 14.0208 4.71391C13.4838 4.17744 12.7439 3.84391 11.9308 3.84391C11.1171 3.84391 10.3772 4.17692 9.84088 4.71391C9.30392 5.25087 8.97088 5.99076 8.97088 6.80448V7.73562Z" strokeWidth="0.5" fill="currentColor"/>
</svg>