<?xml version="1.0" standalone="no"?>
<!DOCTYPE svg PUBLIC "-//W3C//DTD SVG 20010904//EN"
 "http://www.w3.org/TR/2001/REC-SVG-20010904/DTD/svg10.dtd">
<svg version="1.0" xmlns="http://www.w3.org/2000/svg"
 width="850.000000pt" height="238.000000pt" viewBox="0 0 850.000000 238.000000"
 preserveAspectRatio="xMidYMid meet">

<g transform="translate(0.000000,238.000000) scale(0.100000,-0.100000)"
fill="#000000" stroke="none">
<path d="M796 2362 c-3 -5 -132 -465 -287 -1023 -302 -1089 -299 -1075 -253
-1136 11 -14 35 -34 54 -44 33 -18 86 -19 1223 -19 1051 0 1192 2 1225 16 48
20 86 56 106 102 9 20 142 494 296 1052 155 558 283 1023 286 1033 5 16 -10
17 -215 17 l-220 0 -11 -37 c-5 -21 -117 -423 -249 -893 l-239 -855 -881 -3
c-772 -2 -881 0 -881 13 0 11 450 1647 486 1768 5 16 -10 17 -215 17 -121 0
-222 -4 -225 -8z"/>
<path d="M3746 2353 c-3 -10 -28 -101 -56 -203 -28 -102 -53 -193 -56 -202 -5
-17 52 -18 1101 -18 l1107 0 -6 -22 c-3 -13 -31 -116 -63 -230 l-57 -208
-1108 0 -1108 0 -5 -22 c-4 -13 -86 -311 -184 -663 l-177 -640 220 -3 c134 -1
222 1 225 7 3 6 60 206 126 445 l120 436 1025 0 1025 0 50 24 c65 30 110 68
140 120 33 56 288 976 287 1038 0 63 -27 108 -82 136 l-44 22 -1237 0 c-1170
0 -1238 -1 -1243 -17z"/>
<path d="M6725 2358 c-3 -7 -142 -506 -308 -1108 l-304 -1095 220 -3 c121 -1
221 -1 223 1 4 3 614 2203 614 2212 0 3 -99 5 -220 5 -167 0 -222 -3 -225 -12z"/>
<path d="M7538 2354 c-3 -10 -141 -509 -307 -1107 -167 -599 -301 -1091 -299
-1093 4 -3 283 256 490 454 l37 36 -19 -70 c-113 -402 -118 -425 -97 -407 125
108 1142 1081 1142 1093 0 20 -547 1108 -551 1095 -2 -5 -26 -93 -54 -195 -28
-102 -58 -210 -67 -240 l-16 -54 -127 253 c-87 174 -128 248 -132 235z"/>
</g>
</svg>
