<svg width="32" height="32" viewBox="0 0 32 32" fill="none" xmlns="http://www.w3.org/2000/svg">
<path d="M22.1111 26.9998V24.5554C22.1111 23.2588 21.596 22.0153 20.6792 21.0984C19.7623 20.1816 18.5188 19.6665 17.2222 19.6665H7.44443C6.14782 19.6665 4.90431 20.1816 3.98746 21.0984C3.07062 22.0153 2.55554 23.2588 2.55554 24.5554V26.9998" stroke-width="1.5" stroke="#2C49C7" stroke-linecap="round" stroke-linejoin="round"/>
<path d="M12.3333 14.7778C15.0334 14.7778 17.2222 12.5889 17.2222 9.88889C17.2222 7.18883 15.0334 5 12.3333 5C9.63329 5 7.44446 7.18883 7.44446 9.88889C7.44446 12.5889 9.63329 14.7778 12.3333 14.7778Z" stroke-width="1.5" stroke="#2C49C7" stroke-linecap="round" stroke-linejoin="round"/>
<path d="M29.4444 27.0001V24.5557C29.4436 23.4725 29.0831 22.4202 28.4194 21.5641C27.7558 20.708 26.8266 20.0965 25.7778 19.8257" stroke-width="1.5" stroke="#2C49C7" stroke-linecap="round" stroke-linejoin="round"/>
<path d="M20.8889 5.15869C21.9405 5.42795 22.8726 6.03955 23.5382 6.89707C24.2038 7.75459 24.5651 8.80926 24.5651 9.8948C24.5651 10.9803 24.2038 12.035 23.5382 12.8925C22.8726 13.7501 21.9405 14.3617 20.8889 14.6309" stroke-width="1.5" stroke="#2C49C7" stroke-linecap="round" stroke-linejoin="round"/>
</svg>
