<svg width="20" height="20" viewBox="0 0 20 20" fill="none" xmlns="http://www.w3.org/2000/svg">
    <path d="M9.99982 2.5C5.86172 2.5 2.5 5.86172 2.5 9.99982C2.5 11.3299 2.86478 12.5712 3.47314 13.6548L2.5121 17.0857C2.49675 17.1406 2.49605 17.1985 2.51009 17.2538C2.52412 17.309 2.5524 17.3597 2.59209 17.4006C2.63178 17.4415 2.68151 17.4713 2.73631 17.487C2.79111 17.5027 2.84907 17.5038 2.90441 17.4901L6.48173 16.6036C7.53291 17.1647 8.7257 17.4996 9.99982 17.4996C14.1379 17.4996 17.4996 14.1379 17.4996 9.99982C17.4996 5.86172 14.1379 2.5 9.99982 2.5ZM9.99982 3.15216C13.7854 3.15216 16.8475 6.21419 16.8475 9.99982C16.8475 13.7854 13.7854 16.8475 9.99982 16.8475C8.78616 16.8475 7.64948 16.5311 6.66133 15.9782C6.58906 15.9378 6.50413 15.9264 6.42378 15.9463L3.291 16.7227L4.13103 13.7255C4.14305 13.6832 4.14637 13.6388 4.14079 13.5952C4.13521 13.5515 4.12084 13.5094 4.09855 13.4714C3.49803 12.4531 3.15216 11.2683 3.15216 9.99982C3.15216 6.21419 6.21419 3.15216 9.99982 3.15216ZM7.27464 6.08687C7.06561 6.08687 6.76709 6.16464 6.52186 6.42887C6.37456 6.58758 5.76079 7.1856 5.76079 8.23696C5.76079 9.33308 6.52101 10.2789 6.61293 10.4004H6.61357V10.4011C6.60485 10.3896 6.73024 10.5712 6.89761 10.7889C7.06499 11.0066 7.29904 11.2926 7.59308 11.6022C8.18115 12.2214 9.00798 12.937 10.0342 13.3746C10.5068 13.5759 10.8796 13.6974 11.1621 13.786C11.6856 13.9504 12.1624 13.9254 12.5206 13.8726C12.7887 13.8332 13.0835 13.7044 13.3753 13.5198C13.667 13.3352 13.9529 13.1056 14.079 12.7568C14.1693 12.5068 14.2152 12.2757 14.2318 12.0856C14.2401 11.9905 14.2412 11.9066 14.235 11.8289C14.2288 11.7512 14.2355 11.6917 14.1631 11.5729C14.0113 11.3236 13.8393 11.3171 13.6599 11.2284C13.5603 11.179 13.2765 11.0404 12.9919 10.9048C12.7075 10.7693 12.4614 10.6494 12.3098 10.5953C12.214 10.5608 12.097 10.5112 11.9283 10.5303C11.7595 10.5494 11.5929 10.6712 11.4958 10.815C11.4039 10.9513 11.0336 11.3884 10.9207 11.5169C10.9192 11.5159 10.929 11.5205 10.8844 11.4984C10.7448 11.4293 10.5741 11.3705 10.3214 11.2373C10.0688 11.104 9.75274 10.9072 9.40689 10.6023V10.6017C8.89214 10.1485 8.53158 9.57954 8.41783 9.38842C8.42549 9.37931 8.41692 9.39035 8.43311 9.37441L8.43375 9.37377C8.55 9.25927 8.65303 9.12251 8.74009 9.02222C8.86352 8.88002 8.91799 8.75467 8.977 8.63755C9.09461 8.40413 9.02913 8.14728 8.96108 8.01214V8.0115C8.96578 8.02085 8.92427 7.92927 8.87956 7.82362C8.83472 7.71768 8.77757 7.58033 8.71652 7.43386C8.59443 7.14092 8.45813 6.81237 8.37707 6.61993V6.6193C8.28158 6.39263 8.15239 6.22934 7.98348 6.15056C7.81457 6.07178 7.66535 6.09418 7.65931 6.09388H7.65867C7.53814 6.08832 7.40587 6.08687 7.27464 6.08687ZM7.27464 6.73903C7.40036 6.73903 7.5243 6.74056 7.6281 6.7454C7.73489 6.75072 7.72825 6.75116 7.70771 6.74158C7.68685 6.73185 7.71516 6.72869 7.77586 6.87277C7.85523 7.0612 7.99221 7.39094 8.11468 7.68479C8.17591 7.83171 8.23322 7.96959 8.27899 8.07774C8.32476 8.18588 8.34956 8.24626 8.37834 8.30383V8.30446L8.37898 8.3051C8.4072 8.36078 8.4047 8.32513 8.3949 8.34459C8.32609 8.48116 8.31675 8.51469 8.24715 8.59488C8.14116 8.71697 8.03306 8.85313 7.97584 8.90949C7.92577 8.95867 7.83544 9.03529 7.77904 9.18526C7.72256 9.33546 7.74892 9.54154 7.83955 9.6954C7.96021 9.90024 8.35782 10.5474 8.97573 11.0914C9.36487 11.4345 9.7274 11.6615 10.017 11.8143C10.3066 11.967 10.5425 12.0563 10.5953 12.0824C10.7206 12.1444 10.8576 12.1926 11.0169 12.1735C11.1762 12.1543 11.3135 12.0577 11.4009 11.9588L11.4016 11.9582C11.5179 11.8263 11.8636 11.4315 12.0295 11.1882C12.0366 11.1907 12.0343 11.1888 12.0894 11.2086V11.2092H12.09C12.1152 11.2182 12.4305 11.3593 12.7116 11.4933C12.9927 11.6272 13.2781 11.7665 13.3708 11.8124C13.5046 11.8786 13.5678 11.9217 13.5841 11.9219C13.5852 11.9506 13.5864 11.9817 13.5822 12.0289C13.5708 12.1599 13.5358 12.3411 13.4657 12.5352C13.4313 12.6302 13.2525 12.8262 13.0269 12.9689C12.8013 13.1117 12.5267 13.2125 12.425 13.2275C12.1193 13.2725 11.7563 13.289 11.3576 13.1638C11.0812 13.077 10.7365 12.9647 10.2902 12.7747C9.3851 12.3887 8.61581 11.7318 8.06627 11.1532C7.79151 10.8639 7.57137 10.5946 7.41475 10.3909C7.25843 10.1875 7.19017 10.0817 7.13325 10.0068L7.13262 10.0062C7.03159 9.87259 6.41295 9.01208 6.41295 8.23696C6.41295 7.41662 6.79397 7.09492 7.00015 6.87277C7.10839 6.75615 7.22672 6.73903 7.27464 6.73903Z" fill="currentColor" strokeWidth="0.45" />
</svg>
